<?xml version="1.0" standalone="no"?>
<!DOCTYPE svg PUBLIC "-//W3C//DTD SVG 1.1//EN" "http://www.w3.org/Graphics/SVG/1.1/DTD/svg11.dtd" >
<svg>
<metadata>
Created by FontForge 20090914 at Tue Oct 20 10:15:50 2015
 By www-data
Copyright &#194;&#169; 1990 Esselte Letraset, Ltd.
</metadata>
<defs>
<font id="SavoyeLetPlain" horiz-adv-x="0" >
  <font-face 
    font-family="Savoye LET"
    font-weight="400"
    font-stretch="normal"
    units-per-em="2048"
    panose-1="0 0 0 0 0 0 0 0 0 0"
    ascent="1638"
    descent="-410"
    x-height="568"
    cap-height="1351"
    bbox="-735 -763.002 2661 1962"
    underline-thickness="0"
    underline-position="0"
    unicode-range="U+0020-U+FB04"
  />
<missing-glyph horiz-adv-x="1024" 
d="M78 1365h860v-1365h-860v1365zM119 1324v-1283h778v1283h-778z" />
    <glyph glyph-name=".notdef" horiz-adv-x="1024" 
d="M78 1365h860v-1365h-860v1365zM119 1324v-1283h778v1283h-778z" />
    <glyph glyph-name="space" unicode=" " horiz-adv-x="355" 
 />
    <glyph glyph-name="exclam" unicode="!" horiz-adv-x="540" 
d="M437 1266l-253 -1020l-28 -13l148 973zM143 151c23.333 0 42.666 -7.66699 57.999 -23s23 -34.666 23 -57.999s-7.66699 -42.666 -23 -57.999s-34.666 -23 -57.999 -23c-22.667 0 -42 7.66699 -58 23s-24 34.666 -24 57.999s8 42.666 24 57.999s35.333 23 58 23z" />
    <glyph glyph-name="quotedbl" unicode="&#x22;" horiz-adv-x="250" 
d="M68 625h-17l8 130l2 21c2.66699 32.667 13.667 49 33 49s29 -9.66699 29 -29c0 -10.667 -5 -29.667 -15 -57zM165 625h-16l8 130l2 21c2.66699 32.667 13.334 49 32.001 49c9.33301 0 16.666 -2.66699 21.999 -8s8 -12.333 8 -21c0 -8 -5 -27 -15 -57z" />
    <glyph glyph-name="numbersign" unicode="#" horiz-adv-x="1504" 
d="M1146 1323l-79 -376h389l10 -64h-413l-79 -376h367l10 -64h-390l-86 -410l-38 24l81 386h-457l-86 -410l-38 24l81 386h-350l-10 64h373l79 376h-328l-10 64h351l84 399l39 -23l-79 -376h456l84 399zM474 507h457l79 376h-457z" />
    <glyph glyph-name="dollar" unicode="$" horiz-adv-x="582" 
d="M312 820h10.001c10 0 18.333 -0.333008 25 -1l21 102h24l-22 -106c59.333 -12 107 -42 143 -90l-49 -53c-30.667 44.667 -65.334 76 -104.001 94l-68 -331l4 -4c40 -38 68.833 -73.667 86.5 -107s26.5 -68.666 26.5 -105.999c0 -58 -19.167 -108.167 -57.5 -150.5
s-88.5 -67.833 -150.5 -76.5l-22 -106h-24l22 104h-14c-8 0 -15 0.333008 -21 1l-22 -105h-24l22 108c-36 5.33301 -69.333 17 -100 35s-56 40.667 -76 68l60 64c25.333 -54.667 67.666 -93.334 126.999 -116.001l75 368l-4 4c-38 40 -64.333 74.5 -79 103.5
s-22 59.5 -22 91.5c0 51.333 18.333 97 55 137s81.334 63.333 134.001 70l21 103h24zM304.001 782l-61 -299l29 -29l66 321c-8 2.66699 -19.333 5 -34 7zM224.001 391l-73 -353.999l6 -1c10 -2.66699 19.333 -4.33398 28 -5.00098l68 330
c-0.666992 0.666992 -9 9.66699 -25 27zM223.001 502.001l57 279.999c-36.667 -2 -68.167 -15.5 -94.5 -40.5s-39.5 -54.833 -39.5 -89.5c0 -47.333 23.333 -94.666 70 -141.999zM273.001 341l-64.002 -311c28.667 0.666992 54.834 7.66699 78.501 21s41.834 31 54.501 53
s19 46 19 72c0 48 -28 101.333 -84 160z" />
    <glyph glyph-name="percent" unicode="%" horiz-adv-x="886" 
d="M398 766c19.333 -30.667 28.998 -69.333 28.998 -116c0 -50.667 -10.5 -99 -31.5 -145s-48.833 -83 -83.5 -111s-71 -42 -109 -42c-47.333 0 -85 16 -113 48s-42 75 -42 129c0 79.333 23.167 149.333 69.5 210s99.833 91 160.5 91c20 0 50.333 -8.66699 91 -26
c36.667 -16 65.334 -27 86.001 -33s42.334 -9 65.001 -9c39.333 0 75.5 10.667 108.5 32s58.167 50 75.5 86l28 -20l-628 -897l-23 17l561 798c-37.333 -27.333 -78.333 -41 -123 -41c-36.667 0 -77 9.66699 -121 29zM748.998 283.001
c0 -50.667 -10.334 -99.501 -31.001 -146.501s-48.667 -84.5 -84 -112.5s-71.666 -42 -108.999 -42c-47.333 0 -85 15.833 -113 47.5s-42 74.834 -42 129.501c0 52 10.667 100.833 32 146.5s50 82.667 86 111s73.667 42.5 113 42.5c45.333 0 81.333 -15.667 108 -47
s40 -74.333 40 -129zM354.997 697c0 33.333 -6.5 59.833 -19.5 79.5s-31.167 29.5 -54.5 29.5c-41.333 0 -75.333 -27 -102 -81c-39.333 -78.667 -59 -155 -59 -229c0 -80.667 26.333 -121 79 -121c26.667 0 52 15.5 76 46.5s43.333 71 58 120s22 100.833 22 155.5z
M677.997 326c0 34.667 -6.33398 61.501 -19.001 80.501s-31 28.5 -55 28.5c-41.333 0 -75.666 -26.667 -102.999 -80c-39.333 -78.667 -59 -155.334 -59 -230.001c0 -80 26.333 -120 79 -120c26.667 0 52 15.333 76 46s43.5 70.5 58.5 119.5s22.5 100.833 22.5 155.5z" />
    <glyph glyph-name="ampersand" unicode="&#x26;" horiz-adv-x="1535" 
d="M825 52c-2 -0.666992 -3.00488 -1.33105 -3.00488 -1.99805l-8 -4c-92.667 -48 -191 -72 -295 -72c-82 0 -154.833 14.667 -218.5 44s-112.667 71 -147 125s-51.5 116.667 -51.5 188c0 162 107.333 304 322 426l7 4v4v2c0 72 11 142.5 33 211.5s51 125.5 87 169.5
c65.333 79.333 137 119 215 119c42 0 76.167 -12.167 102.5 -36.5s39.5 -54.5 39.5 -90.5c0 -80.667 -60.333 -159.667 -181 -237c-20 -13.333 -57.333 -35.333 -112 -66c-59.333 -32.667 -98.333 -53.667 -117 -63c2.66699 -60 18.167 -128.667 46.5 -206
s62.833 -145.666 103.5 -204.999c62 -90.667 140 -170.334 234 -239.001c46.667 33.333 88.334 72.166 125.001 116.499s65.5 90 86.5 137s31.5 91.167 31.5 132.5c0 42.667 -11.167 77.167 -33.5 103.5s-51.166 39.5 -86.499 39.5
c-93.333 0 -162.666 -81.667 -207.999 -245l-52 77c12.667 43.333 31.5 82 56.5 116s54 60.333 87 79s67.167 28 102.5 28c32 0 61 -8 87 -24s46.5 -38.333 61.5 -67s22.5 -60.334 22.5 -95.001c0 -34 -6.33301 -69.5 -19 -106.5s-30 -73.5 -52 -109.5s-49.5 -72 -82.5 -108
s-66.5 -66.333 -100.5 -91l5 -3c68 -42.667 136.667 -64 206 -64c53.333 0 98.833 10.333 136.5 31s75.834 55.667 114.501 105l14 -16c-79.333 -120.667 -182.666 -181 -309.999 -181c-85.333 0 -168.333 24.333 -249 73zM793.995 71.0029
c-102 66.667 -185.332 158.167 -249.999 274.5s-102 242.833 -112 379.5l-1 5c-149.333 -95.333 -224 -211.333 -224 -348c0 -102 35.667 -186.833 107 -254.5s160.666 -101.5 267.999 -101.5c74 0 144.667 15 212 45zM497.996 802.003c95.333 50.667 167.333 95 216 133
c36.667 27.333 66 59.5 88 96.5s33 72.167 33 105.5c0 28.667 -8.83301 51 -26.5 67s-41.167 24 -70.5 24c-42.667 0 -82.5 -17.5 -119.5 -52.5s-66.5 -82 -88.5 -141s-33 -122.167 -33 -189.5v-26z" />
    <glyph glyph-name="quotesingle" unicode="'" horiz-adv-x="153" 
d="M68 625h-17l8 130l2 21c2.66699 32.667 13.667 49 33 49s29 -9.66699 29 -29c0 -10.667 -5 -29.667 -15 -57z" />
    <glyph glyph-name="parenleft" unicode="(" horiz-adv-x="683" 
d="M744 1456l-5.99805 -25.001c-54.667 -16 -102.334 -44.167 -143.001 -84.5s-80 -97.833 -118 -172.5c-30 -61.333 -58.167 -132.833 -84.5 -214.5s-49.833 -168.167 -70.5 -259.5s-37.167 -181 -49.5 -269s-18.5 -165.333 -18.5 -232c0 -64.667 5.5 -119 16.5 -163
s28.333 -81 52 -111s54.5 -53.667 92.5 -71l-5 -24c-74 28 -130.667 84.5 -170 169.5s-59 194.833 -59 329.5c0 94.667 11.833 197.5 35.5 308.5s56.667 219.167 99 324.5s90.166 197.333 143.499 276c45.333 65.333 92.5 116.833 141.5 154.5s96.833 58.834 143.5 63.501z
" />
    <glyph glyph-name="parenright" unicode=")" horiz-adv-x="683" 
d="M-78 -170l4.99902 24.9971c54.667 16 102.834 44.333 144.501 85s80.834 98 117.501 172c38 76 74.167 173.5 108.5 292.5s62 240.333 83 364s31.5 229.834 31.5 318.501c0 95.333 -12.833 170.5 -38.5 225.5s-66.5 94.5 -122.5 118.5l5 25
c74 -27.333 130.5 -83.666 169.5 -168.999s58.5 -195.666 58.5 -330.999c0 -94 -11.833 -196.5 -35.5 -307.5s-56.834 -219.667 -99.501 -326s-90 -197.833 -142 -274.5c-44 -64 -90.5 -114.833 -139.5 -152.5s-97.5 -59.5 -145.5 -65.5z" />
    <glyph glyph-name="asterisk" unicode="*" horiz-adv-x="476" 
d="M389 1337l-33 -139l107 97l19 -26l-114 -90l122 5l-8 -38l-126 7l73 -97l-28 -25l-59 100l-28 -145h-33l31 135l-94 -99l-20 34l114 97l-121 -7l8 38l114 -5l-69 90l31 26l54 -97l27 139h33z" />
    <glyph glyph-name="plus" unicode="+" horiz-adv-x="621" 
d="M106 442h170v170h44v-170h170v-44h-170v-170h-44v170h-170v44z" />
    <glyph glyph-name="comma" unicode="," horiz-adv-x="475" 
d="M6 -165l-14.999 22.999c42 26.667 76.5 53.667 103.5 81s44.833 53.333 53.5 78c-18.667 -14.667 -36 -22 -52 -22c-18 0 -32 5.83301 -42 17.5s-15 26.834 -15 45.501c0 27.333 8.66699 50.833 26 70.5s38.666 29.5 63.999 29.5c20.667 0 38 -7.83301 52 -23.5
s21 -35.167 21 -58.5c0 -40 -18.5 -82.667 -55.5 -128s-83.833 -83 -140.5 -113z" />
    <glyph glyph-name="hyphen" unicode="-" horiz-adv-x="485" 
d="M301 327l-9 -45h-244l9 45h244z" />
    <glyph glyph-name="period" unicode="." horiz-adv-x="475" 
d="M202 86c0 -26.667 -8.5 -49.502 -25.5 -68.502s-37.167 -28.5 -60.5 -28.5c-46.667 0 -70 23.333 -70 70c0 18.667 4 35.334 12 50.001s18.5 26.5 31.5 35.5s27.167 13.5 42.5 13.5c21.333 0 38.333 -6.66699 51 -20s19 -30.666 19 -51.999z" />
    <glyph glyph-name="slash" unicode="/" horiz-adv-x="775" 
d="M850 1433l-845 -1590l-25 14l844 1589z" />
    <glyph glyph-name="zero" unicode="0" horiz-adv-x="695" 
d="M600 551c0 -72.667 -14.167 -149.165 -42.5 -229.498s-65.833 -148.833 -112.5 -205.5c-73.333 -88.667 -151 -133 -233 -133c-63.333 0 -114.5 25.5 -153.5 76.5s-58.5 119.167 -58.5 204.5c0 77.333 16.167 157.666 48.5 240.999s75.833 155.666 130.5 216.999
c61.333 68.667 129.333 103 204 103c64 0 116.167 -25.167 156.5 -75.5s60.5 -116.5 60.5 -198.5zM513 606.002c0 62.667 -11.499 111 -34.499 145s-55.167 51 -96.5 51c-86 0 -159.333 -76.667 -220 -230c-24.667 -63.333 -44 -128.166 -58 -194.499
s-21 -124.166 -21 -173.499c0 -62.667 11.667 -111.334 35 -146.001s55.666 -52 96.999 -52c40 0 76.667 16.667 110 50s66 85.666 98 156.999c28 61.333 50 127.5 66 198.5s24 135.833 24 194.5z" />
    <glyph glyph-name="one" unicode="1" horiz-adv-x="394" 
d="M236 0h-303.999l5 26h28c32.667 0 55.334 5.16699 68.001 15.5s22 30.833 28 61.5l8 37l86 418l6 35c4 17.333 6 30.666 6 39.999c0 17.333 -7 26 -21 26c-10.667 0 -26.334 -5.33301 -47.001 -16l-83 -45l-5 22l19 14l112 78
c49.333 34.667 91.666 66.334 126.999 95.001h26c-16.667 -54.667 -35.667 -134.667 -57 -240l-88 -427c-6.66699 -34.667 -10 -59 -10 -73c0 -16.667 4.16699 -27.667 12.5 -33s25.833 -8 52.5 -8h36z" />
    <glyph glyph-name="two" unicode="2" horiz-adv-x="604" 
d="M472 183l-61 -182.001c-30.667 -6 -63.334 -9 -98.001 -9c-33.333 0 -70.666 2.33301 -111.999 7c-74.667 8 -129.334 12 -164.001 12c-46 0 -94.667 -6.33301 -146 -19v28c43.333 29.333 90.333 63.666 141 102.999s104 83.333 160 132c56 50 100.167 94.667 132.5 134
s56 77.5 71 114.5s22.5 75.167 22.5 114.5c0 54 -13.833 97.167 -41.5 129.5s-64.5 48.5 -110.5 48.5c-45.333 0 -85 -15 -119 -45s-51 -65.333 -51 -106c0 -20 5.5 -37.833 16.5 -53.5s25.167 -26.167 42.5 -31.5c-10.667 -18.667 -27.334 -28 -50.001 -28
c-22 0 -40.167 7.66699 -54.5 23s-21.5 34.666 -21.5 57.999c0 52.667 27.667 101.334 83 146.001s115.333 67 180 67c64 0 115.5 -18.667 154.5 -56s58.5 -86.666 58.5 -147.999c0 -47.333 -11.167 -91.666 -33.5 -132.999s-59.833 -87.333 -112.5 -138
c-47.333 -46 -127.333 -110.333 -240 -193l-99 -75c28 4.66699 57 7 87 7c24 0 47 -1 69 -3l81 -6c22.667 -1.33301 39.334 -2 50.001 -2c36.667 0 66.334 8 89.001 24s43 42.667 61 80h15z" />
    <glyph glyph-name="three" unicode="3" horiz-adv-x="631" 
d="M536 780l-237.001 -256.003c38.667 -10 71.667 -26 99 -48s48.5 -49.167 63.5 -81.5s22.5 -67.166 22.5 -104.499c0 -54.667 -14.667 -105.667 -44 -153s-68.833 -85.166 -118.5 -113.499s-102.5 -42.5 -158.5 -42.5c-62 0 -115 16.5 -159 49.5s-66 73.167 -66 120.5
c0 25.333 6.83301 46.666 20.5 63.999s31.834 27 54.501 29c-3.33301 -13.333 -5 -26 -5 -38c0 -35.333 8.33301 -67.833 25 -97.5s39.334 -53.167 68.001 -70.5s60.667 -26 96 -26c37.333 0 73.5 10.333 108.5 31s62.833 48.5 83.5 83.5s31 71.167 31 108.5
s-8.83301 72.333 -26.5 105s-42 60.167 -73 82.5s-66.167 37.5 -105.5 45.5l235 259h-171h-50c-42.667 0 -73 -5.66699 -91 -17s-36.333 -35.666 -55 -72.999h-21l75 187c17.333 -7.33301 36 -11.666 56 -12.999c27.333 -2.66699 62.666 -4 105.999 -4h230z" />
    <glyph glyph-name="four" unicode="4" horiz-adv-x="626" 
d="M335 310l6.00098 -0.998047c34 -6.66699 63 -10 87 -10c18 0 33 1.16699 45 3.5s30 8.83301 54 19.5l-35 -89c-23.333 -6 -48 -9 -74 -9c-30 0 -61.333 3.33301 -94 10l-36 -234h-90l64 247l-5 1c-58.667 12.667 -108.667 19 -150 19
c-56.667 0 -105.667 -11.333 -147 -34l-15 16c42.667 40 91 106.333 145 199c27.333 46 49 93.5 65 142.5s24 93.833 24 134.5c0 19.333 -2.33301 37 -7 53l104 61c1.33301 -18.667 2 -28.334 2 -29.001c0 -41.333 -6.5 -81.333 -19.5 -120s-38.167 -91 -75.5 -157
c-20.667 -35.333 -48.834 -78.5 -84.501 -129.5s-69.5 -94.167 -101.5 -129.5l16 6c86 30.667 154 46 204 46c18.667 0 35.667 -1.33301 51 -4c5.33301 -0.666992 10 -1.33398 14 -2.00098l65 248l31 18z" />
    <glyph glyph-name="five" unicode="5" horiz-adv-x="586" 
d="M52 461l115.999 346.999c22.667 4 45 6 67 6c26.667 0 60 -2 100 -6c36 -2.66699 61.667 -4 77 -4c28 0 50.5 4.5 67.5 13.5s29.833 22.833 38.5 41.5h20l-48 -138c-17.333 -4 -40 -6 -68 -6c-31.333 0 -62 1 -92 3l-77 6c-8.66699 0.666992 -21 1 -37 1
c-14 0 -30 -1.33301 -48 -4l-57 -165c28 9.33301 56.333 14 85 14c47.333 0 90.5 -11.333 129.5 -34s69.667 -53.5 92 -92.5s33.5 -82.5 33.5 -130.5c0 -46 -8.66699 -89.167 -26 -129.5s-41.166 -75.666 -71.499 -105.999s-66 -54.333 -107 -72s-83.833 -26.5 -128.5 -26.5
c-56 0 -101 13.167 -135 39.5s-51 60.833 -51 103.5c0 26 6.83301 47.833 20.5 65.5s31.167 26.5 52.5 26.5c-7.33301 -18 -11 -35.333 -11 -52c0 -42.667 15.5 -78.667 46.5 -108s70.167 -44 117.5 -44c43.333 0 83 11.333 119 34s64.5 53.667 85.5 93s31.5 81 31.5 125
c0 42 -9.33301 79.833 -28 113.5s-44.667 60.5 -78 80.5s-69 30 -107 30c-34 0 -69.333 -10.333 -106 -31z" />
    <glyph glyph-name="six" unicode="6" horiz-adv-x="636" 
d="M105 371c58.667 114 135.337 171.001 230.004 171.001c53.333 0 96 -18.333 128 -55s48 -86 48 -148c0 -45.333 -8.66699 -89.5 -26 -132.5s-40.333 -81 -69 -114s-61.834 -59.667 -99.501 -80s-75.834 -30.5 -114.501 -30.5c-63.333 0 -112.833 23.167 -148.5 69.5
s-53.5 111.166 -53.5 194.499c0 68 12.333 137.167 37 207.5s57.334 133 98.001 188s87 99 139 132s103.667 49.5 155 49.5c36.667 0 66.667 -9.33301 90 -28s35 -42.667 35 -72c0 -20.667 -7.33301 -39.167 -22 -55.5s-32.667 -24.5 -54 -24.5c-6 0 -11.333 0.333008 -16 1
c13.333 23.333 20 46.333 20 69c0 26.667 -7 46.667 -21 60s-34.333 20 -61 20c-42.667 0 -83.834 -17.833 -123.501 -53.5s-74.834 -86.167 -105.501 -151.5c-18 -38 -32.833 -76.667 -44.5 -116s-18.834 -73 -21.501 -101zM81.0029 170.001
c0 -110 39.667 -164.999 119 -164.999c36.667 0 72.167 16.333 106.5 49s61.833 76.667 82.5 132s31 111.666 31 168.999c0 47.333 -9.5 83.5 -28.5 108.5s-46.833 37.5 -83.5 37.5c-58.667 0 -109 -29.667 -151 -89c-20.667 -30 -38.5 -68.833 -53.5 -116.5
s-22.5 -89.5 -22.5 -125.5z" />
    <glyph glyph-name="seven" unicode="7" horiz-adv-x="484" 
d="M140 44l-147 -73.999l10 21c69.333 142 126 252 170 330c96.667 170 184 305.333 262 406h-201h-50c-42 0 -73 -5.83301 -93 -17.5s-39.667 -35.834 -59 -72.501h-18l75 189c21.333 -8 43.5 -13.167 66.5 -15.5s55.5 -3.5 97.5 -3.5h262v-20l-13 -17
c-64 -81.333 -113.833 -150 -149.5 -206s-70.167 -120 -103.5 -192c-28 -59.333 -50.667 -115 -68 -167s-31 -105.667 -41 -161z" />
    <glyph glyph-name="eight" unicode="8" horiz-adv-x="666" 
d="M207 447c-31.333 29.333 -53.167 56.335 -65.5 81.002s-18.5 52 -18.5 82c0 39.333 10.333 75 31 107s49.167 57.333 85.5 76s76.833 28 121.5 28c41.333 0 78.5 -7.83301 111.5 -23.5s58.667 -36.667 77 -63s27.5 -56.5 27.5 -90.5c0 -32 -7.83301 -62.333 -23.5 -91
s-38.167 -54.834 -67.5 -78.501s-63.333 -42.5 -102 -56.5l10 -8c47.333 -37.333 79.5 -69.166 96.5 -95.499s25.5 -57.833 25.5 -94.5c0 -66 -26.5 -121.5 -79.5 -166.5s-118.833 -67.5 -197.5 -67.5c-76.667 0 -139 19.5 -187 58.5s-72 89.5 -72 151.5
c0 53.333 20.333 102.666 61 147.999s96 79.666 166 102.999zM225.999 431.002c-51.333 -15.333 -92.667 -42.335 -124 -81.002s-47 -83 -47 -133c0 -37.333 9.33301 -71.666 28 -102.999s43.834 -56.166 75.501 -74.499s66.5 -27.5 104.5 -27.5c51.333 0 94 16 128 48
s51 72.333 51 121c0 52 -26.333 100.333 -79 145c-40.667 36 -86.334 71 -137.001 105zM362.998 435c26 8.66699 50.332 23.5 72.999 44.5s40.334 45.333 53.001 73s19 55.5 19 83.5c0 46 -15.5 84.167 -46.5 114.5s-68.5 45.5 -112.5 45.5
c-29.333 0 -56.833 -6.33301 -82.5 -19s-46 -30 -61 -52s-22.5 -45.667 -22.5 -71c0 -66.667 60 -139.667 180 -219z" />
    <glyph glyph-name="nine" unicode="9" horiz-adv-x="627" 
d="M52 -39l-15.999 18c92.667 62 170.667 129.5 234 202.5s105 143.833 125 212.5c-48 -57.333 -106.667 -86 -176 -86c-54 0 -98.333 18.833 -133 56.5s-52 86.834 -52 147.501c0 54 13.833 105.167 41.5 153.5s64 86.833 109 115.5s92.833 43 143.5 43
c63.333 0 113 -21 149 -63s54 -100 54 -174c0 -50 -8.33301 -100 -25 -150s-41.334 -99.5 -74.001 -148.5s-71 -94.5 -115 -136.5c-88.667 -84.667 -177 -148.334 -265 -191.001zM125.001 491c0 -48 10.499 -85.834 31.499 -113.501s48.833 -41.5 83.5 -41.5
c35.333 0 69.5 14.167 102.5 42.5s59.333 65.833 79 112.5s29.5 96.334 29.5 149.001c0 33.333 -5 62 -15 86s-24.167 42.333 -42.5 55s-40.166 19 -65.499 19c-34.667 0 -67.667 -14.667 -99 -44s-56.5 -68 -75.5 -116s-28.5 -97.667 -28.5 -149z" />
    <glyph glyph-name="colon" unicode=":" horiz-adv-x="475" 
d="M286 496c0 -26.667 -8.5 -49.502 -25.5 -68.502s-37.167 -28.5 -60.5 -28.5c-20 0 -36.667 6.33301 -50 19s-20 29.667 -20 51c0 18.667 4 35.334 12 50.001s18.5 26.5 31.5 35.5s27.167 13.5 42.5 13.5c21.333 0 38.333 -6.66699 51 -20s19 -30.666 19 -51.999z
M202 85.998c0 -26.667 -8.5 -49.502 -25.5 -68.502s-37.167 -28.5 -60.5 -28.5c-46.667 0 -70 23.333 -70 70c0 18.667 4 35.334 12 50.001s18.5 26.5 31.5 35.5s27.167 13.5 42.5 13.5c21.333 0 38.333 -6.66699 51 -20s19 -30.666 19 -51.999z" />
    <glyph glyph-name="semicolon" unicode=";" horiz-adv-x="475" 
d="M289 496c0 -17.333 -4 -33.6699 -12 -49.0029s-18.667 -27.166 -32 -35.499s-27.666 -12.5 -42.999 -12.5c-20.667 0 -37.334 6.33301 -50.001 19s-19 29.667 -19 51c0 18.667 3.83301 35.334 11.5 50.001s18 26.5 31 35.5s27.167 13.5 42.5 13.5
c22 0 39.333 -6.66699 52 -20s19 -30.666 19 -51.999zM6 -165.004l-14.999 22.999c42 26.667 76.5 53.667 103.5 81s44.833 53.333 53.5 78c-18.667 -14.667 -36 -22 -52 -22c-18 0 -32 5.83301 -42 17.5s-15 26.834 -15 45.501c0 27.333 8.66699 50.833 26 70.5
s38.666 29.5 63.999 29.5c20.667 0 38 -7.83301 52 -23.5s21 -35.167 21 -58.5c0 -40 -18.5 -82.667 -55.5 -128s-83.833 -83 -140.5 -113z" />
    <glyph glyph-name="less" unicode="&#x3c;" horiz-adv-x="449" 
d="M364 71l-258 233l256 255h17l-180 -255l183 -233h-18z" />
    <glyph glyph-name="equal" unicode="=" horiz-adv-x="621" 
d="M106 502h384v-44h-384v44zM107 372h384v-44h-384v44z" />
    <glyph glyph-name="greater" unicode="&#x3e;" horiz-adv-x="449" 
d="M106 71l183 233l-180 255h17l256 -255l-258 -233h-18z" />
    <glyph glyph-name="question" unicode="?" horiz-adv-x="687" 
d="M349 290l-27 -67.001h-11c-42.667 0 -77.334 13.667 -104.001 41s-40 62.666 -40 105.999c0 54 20.667 114 62 180c12 18.667 26.833 39.834 44.5 63.501l106.5 136.5c64 78.667 107.333 133.334 130 164.001c38 51.333 65 93 81 125s24 60.333 24 85
c0 20 -4.66699 38 -14 54s-22 28.333 -38 37s-33.667 13 -53 13c-50 0 -106.667 -25.833 -170 -77.5s-116 -115.167 -158 -190.5l-29 104c43.333 59.333 95.333 107.333 156 144s119 55 175 55c51.333 0 92.333 -15.333 123 -46s46 -71.667 46 -123
c0 -34 -7.66699 -71.167 -23 -111.5s-39.166 -85.5 -71.499 -135.5s-72.5 -103.667 -120.5 -161l-89 -108c-56.667 -68.667 -95.167 -119.667 -115.5 -153s-30.5 -62.333 -30.5 -87c0 -20.667 6.5 -36.667 19.5 -48s30.833 -17 53.5 -17c16.667 0 41 5.66699 73 17z
M211 150.999c23.333 0 42.666 -7.66699 57.999 -23s23 -34.666 23 -57.999s-7.66699 -42.666 -23 -57.999s-34.666 -23 -57.999 -23c-14.667 0 -28.167 3.66699 -40.5 11s-22.166 17.166 -29.499 29.499s-11 25.833 -11 40.5c0 23.333 7.66699 42.666 23 57.999
s34.666 23 57.999 23z" />
    <glyph glyph-name="at" unicode="@" horiz-adv-x="1456" 
d="M1302 726c-0.666992 -28.667 -7.1709 -58.6641 -19.5039 -89.9971s-27.833 -61.833 -46.5 -91.5s-39.334 -57.834 -62.001 -84.501s-45 -50 -67 -70c-58 -53.333 -97.5 -85.166 -118.5 -95.499s-38.5 -15.5 -52.5 -15.5c-21.333 0 -39.833 11.167 -55.5 33.5
s-23.5 48.166 -23.5 77.499c0 21.333 8 69.666 24 144.999l8 38c-24.667 -57.333 -57.667 -112.333 -99 -165c-69.333 -88 -135.666 -132 -198.999 -132c-38 0 -68 13.667 -90 41s-33 64 -33 110c0 62.667 17.833 128.334 53.5 197.001s80 125.167 133 169.5
s104.5 66.5 154.5 66.5c52.667 0 92 -19.333 118 -58l11 38l94 39l-94 -366c-10 -40 -15 -71.333 -15 -94c0 -20 4.33301 -37.333 13 -52s20.334 -23.334 35.001 -26.001c18.667 0 43.667 12.667 75 38c20.667 16.667 41 40 61 70s37.833 62.5 53.5 97.5
s28.167 70.333 37.5 106s13.666 67.5 12.999 95.5c-1.33301 58.667 -13.666 111.667 -36.999 159s-55.166 87.5 -95.499 120.5s-88 57.833 -143 74.5s-115.167 23.667 -180.5 21c-35.333 -1.33301 -71.333 -6.16602 -108 -14.499s-72.167 -21.166 -106.5 -38.499
s-67.166 -39.666 -98.499 -66.999s-59.833 -60.666 -85.5 -99.999s-47.5 -85 -65.5 -137s-31 -111.667 -39 -179c-4 -33.333 -5.33301 -70.166 -4 -110.499s7.66602 -81.166 18.999 -122.499s28.666 -81.333 51.999 -120s55.333 -73.334 96 -104.001
s90.834 -55.834 150.501 -75.501s131.5 -30.5 215.5 -32.5c43.333 1.33301 88.166 7.33301 134.499 18s91 26 134 46s83.167 44.5 120.5 73.5s68.333 62.167 93 99.5c0.666992 0 2.5 -2 5.5 -6s6 -8.5 9 -13.5l8.5 -14c2.66699 -4.33301 4.33398 -6.5 5.00098 -6.5
c-28.667 -40 -62.834 -73.833 -102.501 -101.5s-82.334 -50 -128.001 -67s-92.667 -29.667 -141 -38s-95.833 -13.5 -142.5 -15.5c-50 -2 -101.667 1 -155 9s-105.166 21.833 -155.499 41.5s-97.5 45.667 -141.5 78s-81.5 71.666 -112.5 117.999
s-53.833 100.166 -68.5 161.499s-17.667 130.666 -9 207.999c6.66699 59.333 20.5 113.666 41.5 162.999s47 93.833 78 133.5s66.167 74.5 105.5 104.5s80.166 55.167 122.499 75.5s85.333 36 129 47s85.834 17.167 126.501 18.5
c78.667 2.66699 147.334 -1.16602 206.001 -11.499s109 -25.5 151 -45.5s76.667 -44.167 104 -72.5s48.833 -58.833 64.5 -91.5s26.334 -66.834 32.001 -102.501s7.83398 -70.834 6.50098 -105.501zM916.996 751.003c-8 25.333 -21.501 45.165 -40.501 59.498
s-40.833 21.5 -65.5 21.5c-29.333 0 -60.333 -13.5 -93 -40.5s-62.667 -64.5 -90 -112.5c-21.333 -38 -39.166 -80 -53.499 -126s-21.5 -84 -21.5 -114c0 -34 6.5 -60.667 19.5 -80s31.5 -29 55.5 -29c30.667 0 62.667 14.333 96 43s66.333 69.667 99 123
c20 30.667 35.667 61.334 47 92.001s24 73.334 38 128.001z" />
    <glyph glyph-name="A" unicode="A" horiz-adv-x="1336" 
d="M1165 443l-95.001 -442.999h-64c-24.667 78.667 -64.167 155 -118.5 229s-115.833 135 -184.5 183c-45.333 -70.667 -96 -134 -152 -190s-115.5 -104 -178.5 -144s-128.5 -71 -196.5 -93s-134.667 -33 -200 -33c-18 0 -37.333 1.66699 -58 5l32 76c35.333 -4 62 -6 80 -6
c182.667 0 345.334 71.333 488.001 214c29.333 29.333 59.166 63.166 89.499 101.499s61.833 83.166 94.5 134.499c72.667 114 134.667 220.667 186 320l94 181c74 142 131 238.167 171 288.5s79.667 75.5 119 75.5c12.667 0 23.834 -2.66699 33.501 -8
s17.167 -13.166 22.5 -23.499s8 -21.833 8 -34.5c0 -9.33301 -1.66699 -23 -5 -41c-3.33301 -24 -5.33301 -37 -6 -39l-153 -719h71l-7 -34h-71zM1071 443.001h-349.001l4 -3c59.333 -45.333 110.333 -92 153 -140s84.334 -105.333 125.001 -172zM748.998 477.001
l329 0.000976562l142 680c4.66699 22 7 33.333 7 34c4 13.333 6 25.333 6 36c0 16.667 -7.33301 25 -22 25c-18 0 -39.667 -19 -65 -57s-69.333 -116 -132 -234l-57 -109c-24 -43.333 -37 -67.333 -39 -72l-96 -175c-40 -72.667 -64.333 -115.334 -73 -128.001z" />
    <glyph glyph-name="B" unicode="B" horiz-adv-x="1021" 
d="M385 1245l102.997 48l-3 -26l-5 -49.5c-1.33301 -13 -2.66602 -23.167 -3.99902 -30.5l-12 -80c0 -0.666992 -1.33301 -9.33398 -4 -26.001c55.333 55.333 110.5 104.333 165.5 147s104.833 74.334 149.5 95.001s85.667 31 123 31c39.333 0 70.5 -13.333 93.5 -40
s34.5 -63.334 34.5 -110.001c0 -52.667 -17.833 -111.834 -53.5 -177.501s-86.5 -133.167 -152.5 -202.5c-71.333 -75.333 -136.333 -132.666 -195 -171.999c21.333 1.33301 33.333 2 36 2c72 0 131 -21.333 177 -64s69 -98 69 -166s-19.667 -135 -59 -201
s-93.666 -122.667 -162.999 -170c-76.667 -52.667 -166 -79 -268 -79c-85.333 0 -145.666 16.667 -180.999 50l49 64c21.333 -22.667 48 -41.167 80 -55.5s65 -21.5 99 -21.5c60 0 115.833 18.167 167.5 54.5s93 84.666 124 144.999s46.5 124.833 46.5 193.5
c0 43.333 -7.83301 80.5 -23.5 111.5s-37.834 55 -66.501 72s-62.334 25.5 -101.001 25.5c-18.667 0 -41 -3.33301 -67 -10l10 49c59.333 34 117.333 77.833 174 131.5s104.334 109.834 143.001 168.501c51.333 77.333 77 148 77 212c0 38.667 -10.167 69.667 -30.5 93
s-47.166 35 -80.499 35c-60 0 -137.333 -39 -232 -117c-64.667 -54 -116 -105 -154 -153l-3 -18c-10.667 -72.667 -25.834 -151.5 -45.501 -236.5s-43.334 -174.333 -71.001 -268s-55.167 -178.834 -82.5 -255.501c-32 -89.333 -63 -155.5 -93 -198.5
s-59.667 -64.5 -89 -64.5c-45.333 0 -68 38 -68 114c0 50.667 9.5 115.834 28.5 195.501s42.833 155.834 71.5 228.501c68.667 175.333 153.334 321 254.001 437c6 39.333 12 86 18 140c6.66699 65.333 11.334 115 14.001 149zM342.997 895
c-50.667 -62 -99.1689 -137.67 -145.502 -227.003s-83.833 -180.333 -112.5 -273c-17.333 -56 -31.5 -111.333 -42.5 -166s-16.5 -96.667 -16.5 -126c0 -42 10.333 -63 31 -63c14.667 0.666992 28.667 11.167 42 31.5s30 55.5 50 105.5c10.667 26.667 23 60.334 37 101.001
s26.833 79.834 38.5 117.501s24.334 81.834 38.001 132.501s23.834 90 30.501 118c24 99.333 40.667 182.333 50 249z" />
    <glyph glyph-name="C" unicode="C" horiz-adv-x="986" 
d="M577 787l-27.9961 75.999c62 18 120.667 45.667 176 83s98.833 78.666 130.5 123.999s47.5 90 47.5 134c0 32.667 -10.5 58.334 -31.5 77.001s-49.167 28 -84.5 28c-42 0 -88 -11 -138 -33s-99.5 -52.667 -148.5 -92s-95.833 -86.666 -140.5 -141.999
c-48.667 -60.667 -89.334 -124 -122.001 -190s-57.334 -133.167 -74.001 -201.5s-25 -139.166 -25 -212.499c0 -124.667 28.667 -223.5 86 -296.5s135.666 -109.5 234.999 -109.5c64 0 126.167 14.333 186.5 43s129.5 76.667 207.5 144l16 13l12 -22
c-79.333 -78.667 -159 -137.667 -239 -177s-160.667 -59 -242 -59c-73.333 0 -138.5 17.5 -195.5 52.5s-101 84 -132 147s-46.5 136.833 -46.5 221.5c0 61.333 9 125.333 27 192s44.833 134.167 80.5 202.5s77.834 134.5 126.501 198.5c51.333 68 108.333 128.833 171 182.5
s125.5 95.167 188.5 124.5s119.5 44 169.5 44c47.333 0 85.166 -13.5 113.499 -40.5s42.5 -63.5 42.5 -109.5c0 -51.333 -17 -104.833 -51 -160.5s-79.333 -105.334 -136 -149.001s-117.334 -74.5 -182.001 -92.5z" />
    <glyph glyph-name="D" unicode="D" horiz-adv-x="1451" 
d="M891 1289l109.004 48c-8 -57.333 -16.333 -104.333 -25 -141l-20 -85l-7 -31c59.333 -44 111.666 -91 156.999 -141s84.666 -103 117.999 -159s58.166 -111.333 74.499 -166s24.5 -108.667 24.5 -162c0 -69.333 -12.333 -133 -37 -191s-60.167 -108.667 -106.5 -152
s-101 -77 -164 -101s-130.5 -36 -202.5 -36c-111.333 0 -232 22.667 -362 68l-25 9c-49.333 -28 -97 -48.667 -143 -62s-93 -20 -141 -20c-50 0 -90.5 9.5 -121.5 28.5s-46.5 43.833 -46.5 74.5c0 24 8.5 44.833 25.5 62.5s40.833 31.5 71.5 41.5s66.334 15 107.001 15
c57.333 0 150 -17.667 278 -53l23 -7c42.667 41.333 84 99 124 173c58.667 108.667 117 266.667 175 474c30 103.333 53 193.333 69 270c-48.667 38 -103.334 72.333 -164.001 103s-120.667 54.667 -180 72s-112.333 26 -159 26c-55.333 0 -99.5 -12.833 -132.5 -38.5
s-49.5 -60.167 -49.5 -103.5c0 -27.333 8.5 -54.833 25.5 -82.5s40.833 -53.834 71.5 -78.501s69 -47.334 115 -68.001l-62 -61c-58.667 30.667 -104.5 69.667 -137.5 117s-49.5 97.333 -49.5 150c0 44 11.667 82.833 35 116.5s56 59.834 98 78.501s89.333 28 142 28
c135.333 0 290.666 -55 465.999 -165c14 50.667 22.667 100.334 26 149.001zM518.004 115l27.001 -8.99902c83.333 -25.333 152 -43.333 206 -54s105.667 -16 155 -16c69.333 0 132.166 16.667 188.499 50s101 79.666 134 138.999s49.5 124.333 49.5 195
c0 184 -117.333 373.333 -352 568c-6 -28 -20.667 -82.667 -44 -164c-38 -128 -70 -224 -96 -288c-76.667 -192 -166 -332.333 -268 -421zM389.005 62.001c-119.333 36.667 -213.668 55 -283.001 55c-29.333 0 -52.166 -4.83301 -68.499 -14.5s-24.5 -23.167 -24.5 -40.5
c0 -18.667 13 -34.667 39 -48s58.333 -20 97 -20c78 0 158 22.667 240 68z" />
    <glyph glyph-name="E" unicode="E" horiz-adv-x="1025" 
d="M855 218l-23.999 -119.002c-84.667 -40 -167.834 -70.667 -249.501 -92s-155.834 -32 -222.501 -32c-73.333 0 -137 10.5 -191 31.5s-95.5 51.5 -124.5 91.5s-43.5 87 -43.5 141c0 90 40.667 179.5 122 268.5s197.333 171.167 348 246.5c-72 12 -108 49.333 -108 112
c0 89.333 77.333 189.666 232 300.999c48 34.667 96.833 65.167 146.5 91.5s96.334 46.5 140.001 60.5s82.167 21 115.5 21c34.667 0 61.834 -9.5 81.501 -28.5s29.5 -44.833 29.5 -77.5c0 -30 -7.5 -64.333 -22.5 -103s-36.833 -79 -65.5 -121s-60.667 -80 -96 -114l-53 58
c104 114.667 156 206 156 274c0 46 -27.333 69 -82 69c-34.667 0 -77.334 -10.333 -128.001 -31s-101 -48.334 -151 -83.001c-66.667 -45.333 -119.5 -93.666 -158.5 -144.999s-58.5 -97 -58.5 -137c0 -19.333 6.16699 -37.666 18.5 -54.999s27.5 -29.666 45.5 -36.999
c18.667 -6.66699 51 -11 97 -13h17l-13 -64c-100.667 -43.333 -201.667 -102.333 -303 -177c-168 -124 -252 -240.667 -252 -350c0 -54.667 21.167 -99.167 63.5 -133.5s96.5 -51.5 162.5 -51.5c46 0 96.833 7 152.5 21s117.5 35.333 185.5 64s145.667 66.334 233 113.001z
" />
    <glyph glyph-name="F" unicode="F" horiz-adv-x="1117" 
d="M994 443l-249.005 -0.000976562l-2 -5c-42 -100.667 -95.5 -187 -160.5 -259s-138.667 -126.167 -221 -162.5s-171.833 -54.5 -268.5 -54.5c-66 0 -124.333 8.33301 -175 25l32 77c78 -39.333 153.667 -59 227 -59c114.667 0 217.334 44 308.001 132
c38 37.333 69.833 77.5 95.5 120.5s53.5 103.167 83.5 180.5l2 5h-101l7 34h106l2 6l7 17c22.667 63.333 43 125.333 61 186s40 143 66 247c24.667 97.333 42.334 176 53.001 236l104 47c-5.33301 1.33301 -9.66602 2.16602 -12.999 2.49902s-7.33301 0.833008 -12 1.5
c-168 18.667 -312 28 -432 28c-76 0 -138.5 -4.83301 -187.5 -14.5s-89.167 -24.5 -120.5 -44.5c-46.667 -30 -70 -67.667 -70 -113c0 -94 117.333 -147.333 352 -160l-67 -71c-95.333 6 -171.833 28.833 -229.5 68.5s-86.5 90.5 -86.5 152.5c0 82 51.667 148 155 198
c87.333 42 216 63 386 63c45.333 0 103.833 -2.66699 175.5 -8s145.834 -12.166 222.501 -20.499s140.334 -17.166 191.001 -26.499l18 -3l-45 -90l-18 3c-59.333 10.667 -128.666 21.667 -207.999 33l-7 1l-1 -6c-3.33301 -16.667 -12.5 -56.5 -27.5 -119.5
s-28.167 -115.167 -39.5 -156.5l-36 -128.5c-12.667 -44.333 -26.334 -88.5 -41.001 -132.5c-25.333 -78 -49 -143.333 -71 -196h242z" />
    <glyph glyph-name="G" unicode="G" horiz-adv-x="969" 
d="M712 169l-2.00195 -2.00195c-56.667 -59.333 -116 -104.333 -178 -135s-124.667 -46 -188 -46c-60 0 -114.333 15.667 -163 47s-86.5 75 -113.5 131s-40.5 120 -40.5 192c0 71.333 10.833 144.5 32.5 219.5s53.334 150.5 95.001 226.5s92.167 149.667 151.5 221
c80.667 97.333 167.167 174.833 259.5 232.5s174.833 86.5 247.5 86.5c30.667 0 58.167 -6.16699 82.5 -18.5s42.833 -30.333 55.5 -54s19 -51.167 19 -82.5c0 -82 -34.667 -161.167 -104 -237.5s-155.666 -130.5 -258.999 -162.5l-33 76c102 32 186.667 80.667 254 146
s101 131 101 197c0 18.667 -5.33301 36.667 -16 54s-25 30.333 -43 39s-38.667 13 -62 13c-62.667 0 -132 -23.667 -208 -71s-146.667 -110 -212 -188c-50 -60 -94 -126.333 -132 -199s-67.333 -147.667 -88 -225s-31 -150.333 -31 -219c0 -53.333 6 -102.166 18 -146.499
s30.333 -83 55 -116s54 -57.833 88 -74.5s71 -25 111 -25c95.333 0 198.333 55 309 165l4 5l36 171l104 59l-62 -299c-14.667 -72.667 -27.167 -125.167 -37.5 -157.5s-25.5 -66.833 -45.5 -103.5c-32 -58.667 -73.167 -110.167 -123.5 -154.5s-107.333 -78.5 -171 -102.5
s-127.834 -36 -192.501 -36c-76 0 -139 11.667 -189 35l32 71c72.667 -41.333 148.334 -62 227.001 -62c39.333 0 76.333 5.16699 111 15.5s66.5 25.5 95.5 45.5s53.833 44 74.5 72c18 24.667 33 49.667 45 75s23.333 56.833 34 94.5s22.667 87.834 36 150.501z" />
    <glyph glyph-name="H" unicode="H" horiz-adv-x="1410" 
d="M738 477h420l171 818l105 52l-284 -1347h-62c-15.333 46 -35.5 91 -60.5 135s-54.5 86.833 -88.5 128.5s-69.167 78.5 -105.5 110.5s-72.5 56.667 -108.5 74l-3 -5c-38 -87.333 -84.167 -165.166 -138.5 -233.499s-110.166 -120.166 -167.499 -155.499
c-33.333 -20.667 -71.5 -38.667 -114.5 -54s-88 -27 -135 -35s-94.5 -12 -142.5 -12c-32.667 0 -68 3.33301 -106 10l32 79c76.667 -24.667 144.334 -37 203.001 -37c73.333 0 143.333 19 210 57s121.667 89.667 165 155c60.667 91.333 116.334 215.666 167.001 372.999
c8.66699 26 21.667 70 39 132s33.166 121.667 47.499 179s25.5 105 33.5 143l35 178l3 19l113 56c-6.66699 -53.333 -18.334 -116.333 -35.001 -189s-35.834 -147.667 -57.501 -225s-44.5 -152.833 -68.5 -226.5s-45.667 -131.834 -65 -174.501zM1150 443h-342
c46.667 -36 97 -83.5 151 -142.5s96.667 -113.5 128 -163.5z" />
    <glyph glyph-name="I" unicode="I" horiz-adv-x="873" 
d="M-68 -24l30.002 76.999c59.333 -26 124.333 -39 195 -39c86 0 164.333 28.667 235 86c41.333 32.667 76.166 69.334 104.499 110.001s58.5 96 90.5 166l8 16c-55.333 35.333 -96.166 83.5 -122.499 144.5s-39.5 136.833 -39.5 227.5c0 62.667 9.66699 130.167 29 202.5
s46 139.833 80 202.5c28.667 56 59.667 99.833 93 131.5s64.666 47.5 93.999 47.5c40 0 70.667 -24 92 -72s32 -116.333 32 -205c0 -67.333 -7.5 -142.166 -22.5 -224.499s-36.167 -164.833 -63.5 -247.5s-56 -151.667 -86 -207c19.333 -7.33301 39.666 -11 60.999 -11
s43.666 3.66699 66.999 11l-9 -27c-17.333 -5.33301 -38.666 -8 -63.999 -8c-26 0 -50 2.66699 -72 8c-54 -92 -112.5 -167.833 -175.5 -227.5s-131.667 -103.834 -206 -132.501s-155.833 -43 -244.5 -43c-42.667 0 -78 4.66699 -106 14zM610.002 423.999
c25.333 57.333 50.002 132.668 74.002 226.001c25.333 95.333 46.666 193.166 63.999 293.499s26 177.166 26 230.499c0 45.333 -5.33301 80.333 -16 105s-26.667 37 -48 37c-30.667 0 -61.834 -30.167 -93.501 -90.5s-57.667 -137.833 -78 -232.5s-30.5 -187 -30.5 -277
c0 -147.333 34 -244.666 102 -291.999z" />
    <glyph glyph-name="J" unicode="J" horiz-adv-x="884" 
d="M591 647l-71.9951 -59.9971c-21.333 32.667 -36.5 65.667 -45.5 99s-13.5 74.333 -13.5 123c0 117.333 31 238.666 93 363.999c26.667 54.667 56.667 97 90 127s65.666 45 96.999 45c41.333 0 72.333 -24.167 93 -72.5s31 -119.166 31 -212.499
c0 -83.333 -11 -178.333 -33 -285s-51.667 -208.667 -89 -306c38 4.66699 67.333 7 88 7c5.33301 0 10.333 -0.333008 15 -1l-6 -29c-34 0 -70 -2.66699 -108 -8c-54 -135.333 -119.333 -260.666 -196 -375.999s-154.834 -205.333 -234.501 -270s-152.5 -97 -218.5 -97
c-46.667 0 -83.334 14 -110.001 42s-40 66.333 -40 115c0 37.333 10 78.166 30 122.499s48 88.666 84 132.999s78 85.5 126 123.5c43.333 35.333 88.666 66.5 135.999 93.5s98.166 51 152.499 72s111.5 39.167 171.5 54.5l7 19c56 169.333 94.667 320 116 452
c14 92.667 21 168 21 226c0 47.333 -5.66699 84.166 -17 110.499s-27 39.5 -47 39.5c-28.667 0 -57.667 -20.5 -87 -61.5s-53.333 -93.333 -72 -157s-28 -126.167 -28 -187.5c0 -98.667 22 -180.334 66 -245.001zM617.005 416.003
c-79.333 -19.333 -155.833 -47.6699 -229.5 -85.0029s-137.167 -79.666 -190.5 -126.999c-61.333 -55.333 -109.833 -115.166 -145.5 -179.499s-53.5 -124.5 -53.5 -180.5c0 -35.333 9 -64.333 27 -87s41 -34 69 -34c85.333 0 182.333 74.667 291 224
c26 34.667 52.833 77.834 80.5 129.501s59.167 117.167 94.5 196.5c20 46 39 93.667 57 143z" />
    <glyph glyph-name="K" unicode="K" horiz-adv-x="1436" 
d="M1600 1303l-732 -799c22 -51.333 51.667 -105.833 89 -163.5s76.833 -110.667 118.5 -159s86.167 -91.833 133.5 -130.5l-71 -67c-142.667 128.667 -258.667 290 -348 484l703 835h107zM877 1297l108.999 51.002c-10 -63.333 -23.833 -135.833 -41.5 -217.5
s-38.167 -165.834 -61.5 -252.501s-45 -159 -65 -217c-22 -67.333 -45.5 -130.833 -70.5 -190.5s-50.5 -111.334 -76.5 -155.001s-54.333 -83.667 -85 -120s-63 -68.166 -97 -95.499c-118.667 -98 -269.334 -147 -452.001 -147c-45.333 0 -80.333 4 -105 12l30 74
c76.667 -22 147.334 -33 212.001 -33c148.667 0 276.334 78.333 383.001 235c30.667 45.333 58.5 97.666 83.5 156.999s52.833 142.333 83.5 249c14.667 50.667 29.167 103.5 43.5 158.5l40 160c12.333 51.667 25 107.667 38 168s22.167 106.5 27.5 138.5z" />
    <glyph glyph-name="L" unicode="L" horiz-adv-x="1189" 
d="M1100 77l-43.001 -97.0039c-19.333 -3.33301 -36.333 -5 -51 -5c-29.333 0 -69 4.33301 -119 13c-36 6.66699 -71.833 14.834 -107.5 24.501s-81.834 23.5 -138.501 41.5c-46 14.667 -91.667 28.334 -137 41.001c-41.333 -39.333 -90 -69.833 -146 -91.5
s-112 -32.5 -168 -32.5c-65.333 0 -117.833 11.833 -157.5 35.5s-59.5 54.834 -59.5 93.501c0 41.333 22.333 73.666 67 96.999s105 35 181 35c86.667 0 183.667 -15.667 291 -47c20 34.667 36.167 71 48.5 109s25.5 90.667 39.5 158l71 334
c20.667 96.667 39.834 172 57.501 226s38.167 100.667 61.5 140c22 37.333 47.333 70.333 76 99s58.334 50.667 89.001 66s60.667 23 90 23c32 0 60 -7.5 84 -22.5s42.167 -36.667 54.5 -65s18.5 -61.166 18.5 -98.499c0 -34 -6.33301 -77 -19 -129s-29 -100 -49 -144
l-93 -14c28 52 51.333 108.167 70 168.5s28 111.5 28 153.5c0 39.333 -8.33301 69.666 -25 90.999s-41 32 -73 32c-68.667 0 -126 -45.333 -172 -136c-14.667 -29.333 -26.667 -59.166 -36 -89.499s-21.666 -80.5 -36.999 -150.5l-89 -417
c-19.333 -89.333 -39.333 -160.333 -60 -213s-47 -99 -79 -139l25 -8c100.667 -33.333 181.5 -57.166 242.5 -71.499s113.833 -21.5 158.5 -21.5c31.333 0 66.666 3.66699 105.999 11zM456.999 109.996l-24.0029 7c-119.333 36 -210.666 54 -273.999 54
c-100.667 0 -151 -26.333 -151 -79c0 -26.667 17.333 -49.167 52 -67.5s78.334 -27.5 131.001 -27.5c50.667 0 99.334 10 146.001 30s86.667 47.667 120 83z" />
    <glyph glyph-name="M" unicode="M" horiz-adv-x="1421" 
d="M1163 0h-95.998l211 1009l7 35c4.66699 24.667 7 41.667 7 51c0 12.667 -3.33301 23.167 -10 31.5s-16 12.5 -28 12.5c-18.667 0 -39.667 -11.333 -63 -34s-52.666 -60.667 -87.999 -114c-54.667 -81.333 -114.334 -194.333 -179.001 -339
c-50.667 -114 -93.834 -224.833 -129.501 -332.5s-64.834 -214.167 -87.501 -319.5h-83l232 1086c7.33301 34 11 60.667 11 80c0 8.66699 -1.66699 17 -5 25s-7.83301 14 -13.5 18s-12.167 6 -19.5 6c-31.333 0 -69.666 -30.5 -114.999 -91.5s-99 -155.833 -161 -284.5
c-29.333 -58 -57.666 -118.667 -84.999 -182s-51.666 -122.333 -72.999 -177s-45.333 -121.334 -72 -200.001c-38.667 -114.667 -66.667 -208 -84 -280h-84l3 14l43 171l40 174c52.667 238.667 91.334 433.667 116.001 585c20.667 118.667 31 204.334 31 257.001
c0 38.667 -5.83301 68.5 -17.5 89.5s-27.834 31.5 -48.501 31.5c-50.667 0 -95.667 -67.333 -135 -202c-24.667 -84.667 -43.667 -176 -57 -274l-75 49c11.333 86 30.166 163.667 56.499 233s57.666 124.166 93.999 164.499s73.166 60.5 110.499 60.5
c42.667 0 76.167 -22.667 100.5 -68s36.5 -107.333 36.5 -186c0 -66 -6 -141 -18 -225c-3.33301 -24.667 -14 -87.334 -32 -188.001l-40 -218l6 19c48 130.667 117.667 284.667 209 462c57.333 110 110.5 193.167 159.5 249.5s93.5 84.5 133.5 84.5
c25.333 0 46.333 -9.83301 63 -29.5s25 -44.834 25 -75.501c0 -31.333 -6.33301 -76.666 -19 -135.999l-116 -554c8.66699 24.667 28.667 72 60 142c91.333 202.667 169.333 348.834 234 438.501s124.334 134.5 179.001 134.5c27.333 0 49.166 -9.5 65.499 -28.5
s24.5 -44.167 24.5 -75.5c0 -25.333 -5.66699 -63.666 -17 -114.999z" />
    <glyph glyph-name="N" unicode="N" horiz-adv-x="1051" 
d="M782 0h-96.002l229 1040c9.33301 41.333 14 72 14 92c0 22.667 -5.5 40.667 -16.5 54s-26.167 20 -45.5 20c-59.333 0 -129.666 -66 -210.999 -198c-32 -51.333 -66.167 -112.666 -102.5 -183.999s-68.833 -138.833 -97.5 -202.5s-57.667 -133.834 -87 -210.501
s-55.333 -151 -78 -223l-53 -169l-6 -19h-85l6 20c44 152 93.667 363.667 149 635c21.333 102 40 198 56 288c22 120.667 33 204.667 33 252c0 24.667 -2.66699 46.834 -8 66.501s-12.833 34.5 -22.5 44.5s-21.167 15 -34.5 15c-54 0 -99.333 -66.667 -136 -200
c-28.667 -102 -47.667 -194.333 -57 -277l-78 54c13.333 83.333 34 160.166 62 230.499s59.667 125 95 164s71 58.5 107 58.5c42.667 0 76.167 -23 100.5 -69s36.5 -109.667 36.5 -191c0 -66.667 -6.33301 -140 -19 -220c-8.66699 -54.667 -18 -109 -28 -163l-51 -246l9 22
c58 141.333 113.5 263.666 166.5 366.999s102.5 187 148.5 251c82.667 112.667 159.334 169 230.001 169c32.667 0 59.5 -11.5 80.5 -34.5s31.5 -52.833 31.5 -89.5c0 -31.333 -5.66699 -72.666 -17 -123.999z" />
    <glyph glyph-name="O" unicode="O" horiz-adv-x="1224" 
d="M1183 858c0 -92 -15.335 -184.834 -46.002 -278.501s-73.667 -181.5 -129 -263.5c-47.333 -70 -100.833 -130.167 -160.5 -180.5s-122.834 -88.166 -189.501 -113.499s-135.334 -38 -206.001 -38c-62 0 -119.5 11 -172.5 33s-98.333 53.5 -136 94.5
s-66.5 90.667 -86.5 149s-30 121.833 -30 190.5c0 111.333 20.333 220.666 61 327.999s95.334 202.833 164.001 286.5s146.834 149.834 234.501 198.501s177.167 73 268.5 73c84.667 0 159.334 -20 224.001 -60s114.834 -96.333 150.501 -169s53.5 -156 53.5 -250z
M1068 899.999c0 62 -7.66504 117.834 -22.998 167.501s-37.333 91.667 -66 126s-63.334 60.666 -104.001 78.999s-87.667 27.5 -141 27.5c-55.333 0 -110.166 -12.167 -164.499 -36.5s-105.333 -60 -153 -107s-90.5 -104.167 -128.5 -171.5
c-42.667 -74.667 -77.667 -164.167 -105 -268.5s-41 -200.833 -41 -289.5c0 -83.333 13.5 -155.666 40.5 -216.999s65.833 -108.666 116.5 -141.999s109 -50 175 -50c62 0 123.5 15.667 184.5 47s117.167 75.666 168.5 132.999s94.666 124 129.999 200
c31.333 67.333 57.666 148.166 78.999 242.499s32 180.833 32 259.5z" />
    <glyph glyph-name="P" unicode="P" horiz-adv-x="974" 
d="M68 0l124.996 577.002c21.333 98 38.5 200.167 51.5 306.5s19.5 204.5 19.5 294.5c0 20.667 -0.333008 39 -1 55l110 50v-28c0 -44 -4 -115 -12 -213s-16.333 -173.333 -25 -226c40.667 95.333 91.334 183.833 152.001 265.5s122.834 146.167 186.501 193.5
s121.5 71 173.5 71s93.833 -20.833 125.5 -62.5s47.5 -97.5 47.5 -167.5c0 -88 -19 -176.333 -57 -265s-89.833 -170.334 -155.5 -245.001s-137.667 -133.5 -216 -176.5s-155.833 -64.5 -232.5 -64.5c-17.333 0 -37.666 2.33301 -60.999 7l53 71
c32.667 -10.667 66 -16 100 -16c55.333 0 110.833 18.5 166.5 55.5s105.5 89.167 149.5 156.5c40.667 62 75.334 139.167 104.001 231.5s43 172.166 43 239.499c0 56 -9.5 99.667 -28.5 131s-45.5 47 -79.5 47c-48 0 -103.333 -27.5 -166 -82.5s-124 -129.5 -184 -223.5
c-43.333 -66.667 -79.5 -138.667 -108.5 -216s-54.833 -167 -77.5 -269l-108 -497h-95z" />
    <glyph glyph-name="Q" unicode="Q" horiz-adv-x="1224" 
d="M644 17l-5.00195 -1.00293c-62.667 -21.333 -126.334 -32 -191.001 -32c-60.667 0 -117.5 11 -170.5 33s-98.167 53.833 -135.5 95.5s-65.833 91.5 -85.5 149.5s-29.5 121 -29.5 189c0 111.333 20.333 220.666 61 327.999s95.334 202.833 164.001 286.5
s146.834 149.834 234.501 198.501s177.167 73 268.5 73c84.667 0 159.334 -19.833 224.001 -59.5s115 -96.167 151 -169.5s54 -157.666 54 -252.999c0 -106 -20.5 -212.667 -61.5 -320s-97 -204.166 -168 -290.499s-149.833 -151.5 -236.5 -195.5l14 -9l14 -9
c54 -35.333 101 -63.166 141 -83.499s76 -35 108 -44s65.333 -14.5 100 -16.5l-74 -75c-25.333 2 -52.333 8.83301 -81 20.5s-62.667 29.5 -102 53.5s-84.333 54 -135 90l-29 20zM608.998 41.9971c-66.667 48.667 -124.667 73 -174 73c-48.667 0 -83.334 -22 -104.001 -66
c44.667 -20.667 93.334 -31 146.001 -31c47.333 0 91.333 8 132 24zM310.998 59.9971c19.333 34 41.832 59.498 67.499 76.498s53.5 25.5 83.5 25.5c56 0 123.333 -26 202 -78l7 -4c0.666992 -0.666992 1.5 -1.16699 2.5 -1.5s2.5 -1.5 4.5 -3.5
c60 37.333 113.5 82.833 160.5 136.5s86.5 115.834 118.5 186.501c22.667 49.333 42.167 102.666 58.5 159.999s29.166 115.666 38.499 174.999s14 114 14 164c0 62.667 -7.66699 119.334 -23 170.001s-37 92.834 -65 126.501s-62.667 59.834 -104 78.501
s-88.666 28 -141.999 28c-55.333 0 -110.166 -12.167 -164.499 -36.5s-105.333 -60 -153 -107s-90.5 -104.167 -128.5 -171.5c-43.333 -76.667 -78.5 -166.667 -105.5 -270s-40.5 -199.333 -40.5 -288c0 -56 6.83301 -108.167 20.5 -156.5s33.167 -90.5 58.5 -126.5
s55.333 -64 90 -84z" />
    <glyph glyph-name="R" unicode="R" horiz-adv-x="952" 
d="M68 -1l118.998 576.002c44.667 217.333 67 409.666 67 576.999c0 12 -0.166992 21.833 -0.5 29.5s-0.5 16.167 -0.5 25.5l-1 24l110 50v-17c0 -46 -1.66699 -95.333 -5 -148c-6 -90.667 -15 -185.334 -27 -284.001l-4 -28c30 83.333 76 169.666 138 258.999
c39.333 56.667 81 106.834 125 150.501s86.833 76.334 128.5 98.001s81.167 32.5 118.5 32.5c52.667 0 94.334 -19 125.001 -57s46 -89.333 46 -154c0 -89.333 -26.5 -182 -79.5 -278s-123.667 -180.333 -212 -253s-182.166 -123.334 -281.499 -152.001
c32 -55.333 66.5 -107 103.5 -155s76.5 -93.667 118.5 -137s85.333 -82.333 130 -117l-73 -71c-53.333 41.333 -107.5 92.166 -162.5 152.499s-103 121.333 -144 183s-70.167 117.5 -87.5 167.5c5.33301 -0.666992 11.333 -1 18 -1c62.667 0 129.167 18.333 199.5 55
s132.833 86 187.5 148c53.333 60.667 96.5 132.334 129.5 215.001s49.5 159.667 49.5 231c0 49.333 -10.333 88 -31 116s-49 42 -85 42c-34.667 0 -71.5 -12.167 -110.5 -36.5s-77.667 -58 -116 -101s-76.833 -96.5 -115.5 -160.5
c-42.667 -72.667 -77.667 -146.667 -105 -222s-52.333 -166 -75 -272l-103 -488h-94z" />
    <glyph glyph-name="S" unicode="S" horiz-adv-x="971" 
d="M-27 26l55 100.001c112.667 -62 222 -93 328 -93c70.667 0 135.167 12.833 193.5 38.5s104.333 60.667 138 105s50.5 92.5 50.5 144.5c0 51.333 -15.333 97 -46 137s-86 86.333 -166 139l-142.5 96c-17 12 -39.167 29 -66.5 51c-48.667 42.667 -73 93 -73 151
c0 104.667 68 205.334 204 302.001c38 27.333 81.5 52 130.5 74s97.167 38.667 144.5 50s91.666 17 132.999 17c60.667 0 108.334 -11.333 143.001 -34s52 -54.334 52 -95.001c0 -50 -21 -103.5 -63 -160.5s-99.333 -109.5 -172 -157.5l-80 45
c49.333 33.333 91 66.666 125 99.999s60.333 65.833 79 97.5s28 60.5 28 86.5c0 18 -5 33.333 -15 46s-24.333 22.334 -43 29.001s-42 10 -70 10c-52 0 -107.833 -10.167 -167.5 -30.5s-115.834 -47.166 -168.501 -80.499c-117.333 -74 -176 -156.333 -176 -247
c0 -25.333 7 -49.166 21 -71.499s38.5 -47.5 73.5 -75.5s86.167 -64 153.5 -108c50 -32.667 87.833 -59.334 113.5 -80.001s46.834 -42.334 63.501 -65.001c37.333 -47.333 56 -100.333 56 -159c0 -45.333 -11.833 -91.333 -35.5 -138s-57.167 -90.334 -100.5 -131.001
c-101.333 -95.333 -242 -143 -422 -143c-117.333 0 -210 16.667 -278 50z" />
    <glyph glyph-name="T" unicode="T" horiz-adv-x="1075" 
d="M-68 -39l36.9922 89.999c62.667 -26.667 131.334 -40 206.001 -40c87.333 0 164.833 23.5 232.5 70.5s128.167 118.833 181.5 215.5c17.333 32 34.333 68.5 51 109.5s37.334 98.5 62.001 172.5c20.667 61.333 40.834 127.5 60.501 198.5s36.334 135.833 50.001 194.5
s26.834 124 39.501 196l107 48l-7 1l-20 3c-151.333 18.667 -296.666 28 -435.999 28c-71.333 0 -131.333 -4.66699 -180 -14s-90 -24.333 -124 -45c-46.667 -29.333 -70 -67 -70 -113c0 -94 117.333 -147.333 352 -160l-68 -71c-64 4 -119.667 15.667 -167 35
s-83.833 45 -109.5 77s-38.5 68.333 -38.5 109c0 82 51.667 148 155 198c87.333 42 215.666 63 384.999 63c46 0 104.833 -2.66699 176.5 -8s145.834 -12.166 222.501 -20.499s140.334 -17.166 191.001 -26.499l18 -3l-45 -90l-18 3c-58.667 10.667 -127 21.667 -205 33
l-7 1l-3 -14l-3 -14c-52.667 -240.667 -107 -438.834 -163 -594.501s-119 -280.167 -189 -373.5s-151.5 -161 -244.5 -203s-202.833 -63 -329.5 -63c-33.333 0 -66.666 2.33301 -99.999 7z" />
    <glyph glyph-name="U" unicode="U" horiz-adv-x="1043" 
d="M789 0l-95.998 0.00292969l4 24c12 84 26 167.833 42 251.5s34.333 166.167 55 247.5l92 365c-4 -8 -7.16699 -14.833 -9.5 -20.5s-3.83301 -9.16699 -4.5 -10.5l-37 -93c-24.667 -60 -57.334 -132.833 -98.001 -218.5s-76.334 -156.834 -107.001 -213.501
c-128.667 -234.667 -245 -352 -349 -352c-34 0 -61.167 11.5 -81.5 34.5s-30.5 53.5 -30.5 91.5c0 23.333 7.33301 67 22 131l160 703l26 115c13.333 62.667 20 111.667 20 147c0 68.667 -20 103 -60 103c-46.667 0 -85.334 -44.333 -116.001 -133
c-36 -102 -63.333 -214.667 -82 -338l-78 54c22 133.333 57.667 240.666 107 321.999s103.333 122 162 122c40.667 0 72.334 -20.167 95.001 -60.5s34 -96.5 34 -168.5c0 -72.667 -16.333 -180 -49 -322l-123 -537l-10 -46c-8 -31.333 -12 -58.333 -12 -81
c0 -22 5.83301 -39.833 17.5 -53.5s26.167 -20.5 43.5 -20.5c30.667 0 65 18 103 54s79.333 90.167 124 162.5s96.667 169.5 156 291.5c74 153.333 140.667 318.333 200 495c34 99.333 57.667 177.666 71 234.999l87 36l-197 -871c-34 -149.333 -61 -298 -81 -446z" />
    <glyph glyph-name="V" unicode="V" horiz-adv-x="1087" 
d="M1071 1255l111.998 48.999c-52 -318.667 -180.333 -637 -385 -955c-83.333 -130 -157 -225.667 -221 -287c-56 -55.333 -108 -83 -156 -83c-32.667 0 -56.167 9.83301 -70.5 29.5s-21.5 51.5 -21.5 95.5c0 14 0.666992 35 2 63l55 920c2.66699 52.667 4 89.334 4 110.001
c0 74.667 -20.333 112 -61 112c-25.333 0 -47 -12 -65 -36s-37.667 -66 -59 -126c-34 -97.333 -59 -201.333 -75 -312l-75 53c18.667 116 53 220.667 103 314c50.667 92 106.334 138 167.001 138c46.667 0 83.5 -20.5 110.5 -61.5s40.5 -97.167 40.5 -168.5
c0 -31.333 -1 -67 -3 -107l-46 -824c-1.33301 -25.333 -2 -43.333 -2 -54c0 -44.667 14.333 -67 43 -67c48.667 0 112.334 51 191.001 153c60 76.667 114.667 158.5 164 245.5s91.333 174.5 126 262.5s62.667 178.667 84 272s34 181.333 38 264z" />
    <glyph glyph-name="W" unicode="W" horiz-adv-x="1553" 
d="M1517 1267l90.002 38.0029c-2 -249.333 -74.667 -525.666 -218 -828.999c-43.333 -91.333 -88.666 -175.5 -135.999 -252.5s-90 -135.167 -128 -174.5c-24.667 -26 -46 -44.333 -64 -55s-35.667 -16 -53 -16c-31.333 0 -52.833 13.333 -64.5 40s-17.5 76 -17.5 148
c0 57.333 0.333008 100 1 128c0 61.333 2.66699 157.666 8 288.999c5.33301 125.333 11 220.666 17 285.999l2 31c-48.667 -190.667 -124.667 -379.667 -228 -567c-65.333 -120 -131 -217.333 -197 -292c-37.333 -43.333 -73 -65 -107 -65c-40 0 -65 20.667 -75 62
c-2.66699 13.333 -4 41.666 -4 84.999v30l36 938c2 37.333 3 67.666 3 90.999c0 84 -21.333 126 -64 126c-26 0 -48 -12.333 -66 -37s-36.333 -67.667 -55 -129c-28.667 -94.667 -51 -197.667 -67 -309l-75 50c14.667 95.333 34.834 177.666 60.501 246.999
s55.667 121.333 90 156s71.5 52 111.5 52c101.333 0 152 -89.667 152 -269c0 -31.333 -0.333008 -56.666 -1 -75.999l-32 -811c-0.666992 -7.33301 -1 -19 -1 -35c0 -31.333 2.5 -53.333 7.5 -66s13.833 -19 26.5 -19c17.333 0 37.666 11.833 60.999 35.5
s52.666 62.5 87.999 116.5c43.333 65.333 87.5 143.5 132.5 234.5s83.5 181.167 115.5 270.5c15.333 42 30.666 90.5 45.999 145.5s27.5 105.5 36.5 151.5s19.5 112 31.5 198l3 24l97 42l-2 -23l-32 -315c-2.66699 -32.667 -6 -80 -10 -142s-6.83301 -118.167 -8.5 -168.5
l-5.5 -162.5c-3.33301 -122 -5 -212.667 -5 -272c0 -54 2.5 -90.5 7.5 -109.5s14.833 -28.5 29.5 -28.5c15.333 0 33.833 10.333 55.5 31s48.167 53.334 79.5 98.001c68.667 98 127.667 202.667 177 314s87.166 226.166 113.499 344.499s39.5 230.5 39.5 336.5
c0 6.66699 -0.666992 34.667 -2 84z" />
    <glyph glyph-name="X" unicode="X" horiz-adv-x="1070" 
d="M627 699l7.99707 -35.002l8 -34c23.333 -98.667 48.666 -184.5 75.999 -257.5s57.666 -136.667 90.999 -191s71 -101.5 113 -141.5l-76 -67c-56 54.667 -107 128.334 -153 221.001c-27.333 56 -50 111.5 -68 166.5s-38.333 130.833 -61 227.5l-2 6l-39 -66
c-64 -108 -120.667 -193.833 -170 -257.5s-100.666 -117.5 -153.999 -161.5c-95.333 -78 -184.666 -121 -267.999 -129l25 127c5.33301 -0.666992 11 -1 17 -1c33.333 0 73.166 9.16699 119.499 27.5s86.833 40.5 121.5 66.5c82.667 62.667 165.334 160 248.001 292l88 141
l3 4l-2 6c-34 156.667 -70.333 283.834 -109 381.501s-80.667 167.167 -126 208.5l76 81c82.667 -92 151 -255 205 -489l9 -40l10 -41l20 35l21 36c87.333 145.333 152.333 246.666 195 303.999c106.667 144.667 213.334 217.667 320.001 219l-24 -114
c-16 1.33301 -25.333 2 -28 2c-62 0 -127 -32 -195 -96c-29.333 -28.667 -62.166 -67.667 -98.499 -117s-81.166 -117.666 -134.499 -204.999l-33 -55z" />
    <glyph glyph-name="Y" unicode="Y" horiz-adv-x="1040" 
d="M41 -18l34 77.0039c65.333 -23.333 131.333 -35 198 -35c57.333 0 110 8.66699 158 26s91.333 43.166 130 77.499s76.334 80.5 113.001 138.5c50 78.667 95.667 177.667 137 297c10.667 31.333 20 60.333 28 87s27.333 95.667 58 207l8 28l-14 -27
c-29.333 -58.667 -58.833 -110.5 -88.5 -155.5s-66.167 -93.833 -109.5 -146.5c-31.333 -36.667 -58.333 -64.834 -81 -84.501s-44.834 -34.5 -66.501 -44.5s-42.5 -15 -62.5 -15c-49.333 0 -84 24.333 -104 73c-8.66699 24 -13 64.333 -13 121v44l18 512
c0.666992 7.33301 1 18.333 1 33c0 80 -21.333 120 -64 120c-26 0 -50.667 -17.667 -74 -53s-44.5 -86.833 -63.5 -154.5s-35.167 -149.834 -48.5 -246.501l-3 -25l-77 49c6.66699 56 20 115.833 40 179.5s41 114.5 63 152.5c50 86 104.333 129 163 129
c49.333 0 87.166 -23.833 113.499 -71.5s39.5 -118.167 39.5 -211.5c0 -26 -0.333008 -45.667 -1 -59l-13 -337c0 -13.333 -0.166992 -23.833 -0.5 -31.5s-0.5 -16.167 -0.5 -25.5c0 -83.333 25.333 -125 76 -125c24 0 49.333 10.167 76 30.5s58.334 53.166 95.001 98.499
c45.333 56 87.333 119.667 126 191s70.667 145.5 96 222.5s44 154.5 56 232.5l111 50l-6 -30c-38.667 -206 -88 -399.333 -148 -580s-120 -316 -180 -406c-73.333 -110 -159.5 -191.333 -258.5 -244s-215.833 -79 -350.5 -79c-44 0 -81 3.66699 -111 11z" />
    <glyph glyph-name="Z" unicode="Z" horiz-adv-x="1169" 
d="M1071 79l-51.9971 -96.999c-30.667 -2.66699 -48.334 -4 -53.001 -4c-78.667 0 -170.667 18.333 -276 55l-155 55l-117 41l-19 7c-64 -50.667 -120.833 -87.667 -170.5 -111s-97.834 -35 -144.501 -35c-36 0 -65.833 9.83301 -89.5 29.5s-35.5 44.5 -35.5 74.5
c0 44.667 22.833 80.5 68.5 107.5s107.5 40.5 185.5 40.5c36 0 71.667 -2.33301 107 -7s72.333 -12.334 111 -23.001l15 13c153.333 138.667 289 291.5 407 458.5s210 336.5 276 508.5l-18 4c-63.333 14.667 -121.5 26.834 -174.5 36.501s-105.167 18.167 -156.5 25.5
s-96.5 12.666 -135.5 15.999s-75.833 5 -110.5 5c-110.667 0 -190.334 -15.667 -239.001 -47c-21.333 -14 -39 -31.833 -53 -53.5s-21 -42.834 -21 -63.501c0 -44.667 28 -81.167 84 -109.5s144 -49.833 264 -64.5l-75 -70c-96 14 -170.333 40.833 -223 80.5
s-79 88.834 -79 147.501c0 65.333 32.333 120.666 97 165.999c40.667 29.333 87 50.333 139 63s115.333 19 190 19c65.333 0 130.5 -3.16699 195.5 -9.5s130 -15.666 195 -27.999s128.167 -27.166 189.5 -44.499l12 -3c-24 -66.667 -59.167 -145.667 -105.5 -237
s-95.5 -177 -147.5 -257c-66 -102 -137.167 -198 -213.5 -288s-160.5 -177.667 -252.5 -263l-17 -16l26 -7c35.333 -10.667 69.333 -21.667 102 -33l141.5 -45.5c24.333 -7.66699 47.5 -13.834 69.5 -18.501c68.667 -15.333 129 -23 181 -23c23.333 0 49 1.66699 77 5z
M351.003 147.001c-76 23.333 -143.667 35 -203 35c-42.667 0 -77 -8.66699 -103 -26s-39 -39.333 -39 -66c0 -18 8 -33 24 -45s35.333 -18 58 -18c34.667 0 70.5 8 107.5 24s82.5 43.667 136.5 83z" />
    <glyph glyph-name="bracketleft" unicode="[" horiz-adv-x="683" 
d="M138 -157l328 1600h177l-6 -30h-30c-22.667 0 -39.5 -1.5 -50.5 -4.5s-19.333 -9.16699 -25 -18.5s-10.5 -24.333 -14.5 -45l-6 -36l-275 -1336l-7 -34c-2.66699 -14.667 -4 -25 -4 -31c0 -12.667 4.5 -21.667 13.5 -27s25.167 -8 48.5 -8h34l-6 -30h-177z" />
    <glyph glyph-name="backslash" unicode="\" horiz-adv-x="775" 
d="M239 1441l28 5l310 -1597l-28 -6z" />
    <glyph glyph-name="bracketright" unicode="]" horiz-adv-x="683" 
d="M534 1443l-328 -1600h-177l6 30h30c34 0 56.167 4.16699 66.5 12.5s17.833 26.833 22.5 55.5l7 36l275 1336l7 34c2.66699 14.667 4 25 4 31c0 14.667 -4.33301 24.167 -13 28.5s-25 6.5 -49 6.5h-34l6 30h177z" />
    <glyph glyph-name="asciicircum" unicode="^" horiz-adv-x="481" 
d="M257 884l-135 -47l-7 15l154 98l115 -98l-11 -15z" />
    <glyph glyph-name="underscore" unicode="_" horiz-adv-x="1024" 
d="M0 -273h1024v-44h-1024v44z" />
    <glyph glyph-name="grave" unicode="`" horiz-adv-x="392" 
d="M196 832l59 -167l-19 -5l-99 155z" />
    <glyph glyph-name="a" unicode="a" horiz-adv-x="666" 
d="M537 591l-94.002 -365.999c-10 -40 -15 -71.333 -15 -94c0 -20 4.33301 -37.333 13 -52s19.334 -22 32.001 -22c19.333 0 51.333 23.667 96 71l14 -14l-11 -13c-35.333 -40.667 -62.5 -69.167 -81.5 -85.5s-35.5 -24.5 -49.5 -24.5c-21.333 0 -39.833 11.167 -55.5 33.5
s-23.5 48.166 -23.5 77.499c0 21.333 8 69.666 24 144.999l8 38c-24.667 -57.333 -57.667 -112.333 -99 -165c-69.333 -88 -135.666 -132 -198.999 -132c-38 0 -68 13.667 -90 41s-33 64 -33 110c0 62.667 17.833 128.334 53.5 197.001s80 125.167 133 169.5
s104.5 66.5 154.5 66.5c52.667 0 92 -19.333 118 -58l11 38zM421.998 463.001c-8 25.333 -21.501 45.165 -40.501 59.498s-40.833 21.5 -65.5 21.5c-29.333 0 -60.333 -13.5 -93 -40.5s-62.667 -64.5 -90 -112.5c-21.333 -38 -39.166 -80 -53.499 -126s-21.5 -84 -21.5 -114
c0 -34 6.5 -60.667 19.5 -80s31.5 -29 55.5 -29c30.667 0 62.667 14.333 96 43s66.333 69.667 99 123c20 30.667 35.667 61.334 47 92.001s24 73.334 38 128.001z" />
    <glyph glyph-name="b" unicode="b" horiz-adv-x="638" 
d="M237 1358l106.003 51.002l-288 -1233c120 268 237.667 402 353 402c23.333 0 44.166 -6.16699 62.499 -18.5s32.666 -30.5 42.999 -54.5s15.5 -49.333 15.5 -76c0 -50.667 -12 -106.834 -36 -168.501s-54.333 -114.5 -91 -158.5c-65.333 -79.333 -137.333 -119 -216 -119
c-24.667 0 -48.334 4.16699 -71.001 12.5s-48 22.166 -76 41.499l-70 -42zM55.0029 102.002c30 -62.667 72.999 -94.001 128.999 -94.001c40 0 77.167 17.333 111.5 52s64.833 85 91.5 151c15.333 37.333 28 77.833 38 121.5s15 78.5 15 104.5c0 62.667 -22 94 -66 94
c-29.333 0 -62.666 -18 -99.999 -54s-74.833 -86.167 -112.5 -150.5s-73.167 -139.166 -106.5 -224.499z" />
    <glyph glyph-name="c" unicode="c" horiz-adv-x="489" 
d="M393 150c-40.667 -57.333 -80.1689 -99.1689 -118.502 -125.502s-80.833 -39.5 -127.5 -39.5c-51.333 0 -93.166 18 -125.499 54s-48.5 82.667 -48.5 140c0 60 15.667 121 47 183s71.5 113.333 120.5 154s96.167 61 141.5 61c30.667 0 55.334 -8.5 74.001 -25.5
s28 -39.833 28 -68.5c0 -26 -9.83301 -50.833 -29.5 -74.5s-40.834 -35.5 -63.501 -35.5c-10 0 -19 4 -27 12c43.333 19.333 65 55.333 65 108c0 18.667 -4.83301 33.167 -14.5 43.5s-22.5 15.5 -38.5 15.5c-24.667 0 -49.5 -10 -74.5 -30s-48.5 -47.833 -70.5 -83.5
s-39.167 -73.667 -51.5 -114s-18.5 -81.166 -18.5 -122.499c0 -49.333 11.667 -89.333 35 -120s54 -46 92 -46c32.667 0 64.334 10.333 95.001 31s62.667 52.334 96 95.001z" />
    <glyph glyph-name="d" unicode="d" horiz-adv-x="651" 
d="M699 1409l-265.002 -1153c-14 -61.333 -21 -104 -21 -128c0 -21.333 3.83301 -38.666 11.5 -51.999s18.167 -20 31.5 -20c17.333 0 38.333 13 63 39l29 29l2 2c0.666992 0.666992 1.66699 1.33398 3 2.00098l15 -14l-8 -9c-25.333 -28 -38.333 -42.333 -39 -43l-33 -33
c-16.667 -16.667 -28.834 -27.167 -36.501 -31.5s-16.167 -6.5 -25.5 -6.5c-22 0 -40.333 11.333 -55 34s-22 48.667 -22 78c0 17.333 4.66699 49 14 95l11 57c-17.333 -42 -44.666 -87.667 -81.999 -137c-67.333 -86.667 -132.666 -130 -195.999 -130
c-38 0 -68 13.833 -90 41.5s-33 65.167 -33 112.5c0 66 17.333 132.833 52 200.5s78.834 123.5 132.501 167.5s107.167 66 160.5 66c39.333 0 76 -11.667 110 -35l163 817zM418.998 490.998c-6 18 -18.333 32.499 -37 43.499s-38.667 16.5 -60 16.5
c-31.333 0 -63.5 -14 -96.5 -42s-64.167 -67.667 -93.5 -119c-21.333 -38 -38.833 -79.5 -52.5 -124.5s-20.5 -85.833 -20.5 -122.5c0 -32 6.83301 -57.667 20.5 -77s32.5 -29 56.5 -29c28 0 58.167 14.333 90.5 43s64.833 70 97.5 124c22 36.667 39.333 74.667 52 114
c15.333 50.667 26.333 91.334 33 122.001z" />
    <glyph glyph-name="e" unicode="e" horiz-adv-x="496" 
d="M382 155l17.998 -15.001c-41.333 -54.667 -81.666 -94.167 -120.999 -118.5s-81.666 -36.5 -126.999 -36.5c-54 0 -97.333 18 -130 54s-49 83.667 -49 143c0 60 15.833 120.833 47.5 182.5s71.334 112.667 119.001 153s94.834 60.5 141.501 60.5
c27.333 0 49.833 -8 67.5 -24s26.5 -36.667 26.5 -62c0 -51.333 -28 -102.666 -84 -153.999s-132.333 -95 -229 -131c-0.666992 -5.33301 -1 -11.333 -1 -18c0 -46 12.667 -83.5 38 -112.5s58 -43.5 98 -43.5c31.333 0 61.666 9.83301 90.999 29.5s60.666 50.5 93.999 92.5z
M61.998 230.999c72 32 127.332 67.665 165.999 106.998c26 26.667 47 55.334 63 86.001s24 58.334 24 83.001c0 31.333 -14.333 47 -43 47c-43.333 0 -87.166 -34.167 -131.499 -102.5s-70.5 -141.833 -78.5 -220.5z" />
    <glyph glyph-name="f" unicode="f" horiz-adv-x="328" 
d="M97 534l-98 0.000976562l7 34h99l94 439c16 72.667 32.333 130.667 49 174s36.667 80.666 60 111.999c57.333 76.667 128.666 115 213.999 115c28.667 0 55 -4.66699 79 -14l-36 -91c-26.667 37.333 -60.667 56 -102 56c-31.333 0 -56.833 -12.167 -76.5 -36.5
s-36.5 -64.5 -50.5 -120.5l-153 -634h161l-7 -34h-162l-137 -568c-18 -76 -35.5 -132.667 -52.5 -170s-40.167 -72 -69.5 -104c-53.333 -58 -111.666 -87 -174.999 -87c-30.667 0 -58 5.33301 -82 16l49 72c28 -22.667 58.333 -34 91 -34c49.333 0 86.333 26 111 78
c18 38.667 37 102.667 57 192z" />
    <glyph glyph-name="g" unicode="g" horiz-adv-x="620" 
d="M532 591l-152.999 -609c-15.333 -65.333 -28.833 -113.333 -40.5 -144s-25.834 -58.667 -42.501 -84c-31.333 -48 -69.5 -84.833 -114.5 -110.5s-93.5 -38.5 -145.5 -38.5c-47.333 0 -89 13.333 -125 40l51 66c43.333 -41.333 86.333 -62 129 -62
c27.333 0 55 8.66699 83 26s48.667 38.666 62 63.999c17.333 30.667 35.333 86.334 54 167.001l77 330c-89.333 -166.667 -180 -250 -272 -250c-37.333 0 -67.5 14.167 -90.5 42.5s-34.5 64.5 -34.5 108.5c0 62.667 17.667 128 53 196s79.833 124.5 133.5 169.5
s105.834 67.5 156.501 67.5c47.333 0 86.666 -17.667 117.999 -53l9 35zM420.001 467c-26 50 -60.333 74.999 -103 74.999c-44.667 0 -88.667 -24.667 -132 -74c-35.333 -41.333 -65.5 -93.166 -90.5 -155.499s-37.5 -118.166 -37.5 -167.499
c0 -33.333 7.16699 -59.5 21.5 -78.5s34.5 -28.5 60.5 -28.5c26.667 0 56.167 14.667 88.5 44s64.5 70.666 96.5 123.999c36.667 60.667 65 132.667 85 216z" />
    <glyph glyph-name="h" unicode="h" horiz-adv-x="638" 
d="M-31 -10l266.003 1368l105 51l-277 -1218c2.66699 4.66699 4 7.66699 4 9l23 52c39.333 89.333 88.666 166.666 147.999 231.999c56 60.667 107.667 91 155 91c25.333 0 45.666 -8.16699 60.999 -24.5s23 -38.166 23 -65.499c0 -15.333 -3.66699 -37 -11 -65l-10 -42
l-31 -122l-9 -39c-10 -40 -15 -70.667 -15 -92s3.66699 -38.5 11 -51.5s17 -19.5 29 -19.5c20.667 0 53.667 24.667 99 74l15 -14l-9 -11c-38 -44.667 -66.167 -74.834 -84.5 -90.501s-34.833 -23.5 -49.5 -23.5c-20.667 0 -38.334 11 -53.001 33s-22 47.667 -22 77
c0 18 4.33301 49.667 13 95l38 212c6 31.333 9 54.666 9 69.999c0 14 -3.66699 24.667 -11 32s-17.333 11 -30 11c-24.667 0 -53 -14.5 -85 -43.5s-64.167 -69.167 -96.5 -120.5s-60.5 -106.166 -84.5 -164.499s-42 -118.166 -54 -179.499z" />
    <glyph glyph-name="i" unicode="i" horiz-adv-x="295" 
d="M202 977c17.333 0 31.333 -5.33301 42 -16s16 -24.667 16 -42c0 -16.667 -5.66699 -30.667 -17 -42s-25 -17 -41 -17c-15.333 0 -29 6 -41 18s-18 25.667 -18 41c0 16 5.66699 29.667 17 41s25.333 17 42 17zM173 585l-88 -329c-14.667 -54 -22 -97.333 -22 -130
c0 -21.333 3.66699 -38.666 11 -51.999s17 -20 29 -20c20.667 0 53.667 24.667 99 74l16 -14l-10 -11c-38 -44.667 -66 -74.834 -84 -90.501s-34.667 -23.5 -50 -23.5c-20.667 0 -38.167 10.5 -52.5 31.5s-21.5 47.167 -21.5 78.5c0 20 4 51.667 12 95l63 350z" />
    <glyph glyph-name="j" unicode="j" horiz-adv-x="273" 
d="M172 585l-157.999 -671.001c-12.667 -55.333 -24.334 -96.833 -35.001 -124.5s-25 -53.5 -43 -77.5c-24.667 -33.333 -55.167 -59.166 -91.5 -77.499s-74.833 -27.5 -115.5 -27.5c-26.667 0 -49 4 -67 12l48 70c27.333 -20.667 56 -31 86 -31
c24.667 0 48 7.83301 70 23.5s39.333 37.5 52 65.5c9.33301 20 19 57.667 29 113l128 684zM201.001 976.999c17.333 0 31.333 -5.33301 42 -16s16 -24.667 16 -42c0 -16.667 -5.66699 -30.667 -17 -42s-25 -17 -41 -17c-15.333 0 -29 6 -41 18s-18 25.667 -18 41
c0 16 5.66699 29.667 17 41s25.333 17 42 17z" />
    <glyph glyph-name="k" unicode="k" horiz-adv-x="593" 
d="M345 1409l-271.997 -1183c15.333 36 33.666 70.667 54.999 104s45.666 65.833 72.999 97.5s53.666 57.5 78.999 77.5c32.667 26 65.5 45.333 98.5 58s70.167 20 111.5 22l-18 -80c-20 4 -35 6 -45 6c-78.667 0 -152 -39.667 -220 -119
c27.333 -73.333 56.333 -139.333 87 -198c17.333 -34 32.5 -61.167 45.5 -81.5s25 -35.166 36 -44.499s21.833 -14 32.5 -14c25.333 0 57.333 20.333 96 61l8 9l13 -15c-67.333 -81.333 -116.333 -122 -147 -122c-20.667 0 -40 9 -58 27s-39 49 -63 93
c-42 76.667 -76.333 149.334 -103 218.001c-62.667 -103.333 -102.667 -207.666 -120 -312.999l-65 -21l268 1367z" />
    <glyph glyph-name="l" unicode="l" horiz-adv-x="295" 
d="M348 1409l-263 -1153l-9 -39c-8.66699 -36.667 -13 -67.667 -13 -93c0 -20.667 3.83301 -37.5 11.5 -50.5s17.167 -19.5 28.5 -19.5c20.667 0 53.667 24.667 99 74l16 -14l-10 -11c-38 -44.667 -66 -74.834 -84 -90.501s-34.667 -23.5 -50 -23.5
c-20 0 -37.5 11.167 -52.5 33.5s-22.5 47.833 -22.5 76.5c0 20 4.33301 51.667 13 95l231 1164z" />
    <glyph glyph-name="m" unicode="m" horiz-adv-x="969" 
d="M376 11l-65.999 -21l79 407l7 35c4 19.333 6 35.333 6 48c0 29.333 -11.667 44 -35 44c-22 0 -48.667 -14.833 -80 -44.5s-64.333 -72.5 -99 -128.5c-22.667 -36 -42.167 -70.667 -58.5 -104s-31.333 -68.833 -45 -106.5s-26.834 -80.834 -39.501 -129.501l-62 -21
l103 554l96 41l-87 -363c44.667 103.333 95.834 188.166 153.501 254.499s109.5 99.5 155.5 99.5c50 0 75 -28.333 75 -85c0 -19.333 -5 -53.666 -15 -102.999l-33 -149c64.667 124 119.334 211.5 164.001 262.5s89 76.5 133 76.5c24.667 0 44 -7.33301 58 -22
s21 -35.667 21 -63c0 -22 -6.66699 -60 -20 -114l-31 -123l-10 -39c-9.33301 -41.333 -14 -72 -14 -92c0 -21.333 3.66699 -38.5 11 -51.5s16.666 -19.5 27.999 -19.5c21.333 0 54.666 24.667 99.999 74l15 -14l-9 -11c-38 -44.667 -66.167 -74.834 -84.5 -90.501
s-35.166 -23.5 -50.499 -23.5c-20.667 0 -38.167 10.5 -52.5 31.5s-21.5 47.167 -21.5 78.5c0 19.333 4.33301 51 13 95l37 207l6 36c4 20 6 36 6 48s-3.66699 21.667 -11 29s-17.333 11 -30 11c-14.667 0 -30.834 -6.16699 -48.501 -18.5s-36.5 -31.166 -56.5 -56.499
s-42.333 -58.666 -67 -99.999c-33.333 -56.667 -60.333 -109.5 -81 -158.5s-40.667 -109.167 -60 -180.5z" />
    <glyph glyph-name="n" unicode="n" horiz-adv-x="664" 
d="M-17 -10l106 553.999l95 41l-86 -367c55.333 116.667 110.333 205.334 165 266.001s107 91 157 91c24.667 0 44.667 -8.16699 60 -24.5s23 -38.166 23 -65.499c0 -15.333 -3.66699 -37 -11 -65l-10 -42l-30 -122l-10 -39c-10 -40 -15 -70.667 -15 -92
s3.66699 -38.5 11 -51.5s17 -19.5 29 -19.5c20.667 0 53.667 24.667 99 74l16 -14l-10 -11c-38 -44.667 -66 -74.834 -84 -90.501s-34.667 -23.5 -50 -23.5c-20.667 0 -38.167 10.5 -52.5 31.5s-21.5 47.167 -21.5 78.5c0 21.333 4 53 12 95l39 212
c5.33301 33.333 8 56.666 8 69.999c0 14 -3.66699 24.667 -11 32s-17.333 11 -30 11c-46 0 -102.667 -49.333 -170 -148c-32.667 -47.333 -59.667 -94.166 -81 -140.499s-45.333 -110.5 -72 -192.5l-9 -27z" />
    <glyph glyph-name="o" unicode="o" horiz-adv-x="600" 
d="M-27 192c0 60 16.1719 119.833 48.5049 179.5s74.166 108.167 125.499 145.5s103.666 56 156.999 56c56 0 101.167 -18.5 135.5 -55.5s51.5 -84.833 51.5 -143.5c0 -64 -15.833 -126 -47.5 -186s-73.334 -109.167 -125.001 -147.5s-103.834 -57.5 -156.501 -57.5
c-56.667 0 -102.334 19.167 -137.001 57.5s-52 88.833 -52 151.5zM401.005 412c0 40 -9.83203 73 -29.499 99s-44.834 39 -75.501 39c-28 0 -54.833 -9 -80.5 -27s-49.167 -44.333 -70.5 -79c-24 -40 -43.833 -86.667 -59.5 -140s-23.5 -100.666 -23.5 -141.999
c0 -49.333 9.66699 -87.333 29 -114s47 -40 83 -40c58 0 109 40.333 153 121c22.667 41.333 40.667 87.666 54 138.999s20 99.333 20 144z" />
    <glyph glyph-name="p" unicode="p" horiz-adv-x="646" 
d="M-96 -397l189.001 941l96 41l-66 -287c49.333 99.333 95.833 170.833 139.5 214.5s91.5 65.5 143.5 65.5c40 0 71.667 -14.667 95 -44s35 -69.666 35 -120.999c0 -52 -10.5 -105.333 -31.5 -160s-50.5 -104.334 -88.5 -149.001
c-68.667 -82.667 -144.334 -124 -227.001 -124c-52 0 -94.667 13.667 -128 41l-103 -418h-54zM76.001 87c28 -54.667 67.334 -81.999 118.001 -81.999c73.333 0 137.333 59.667 192 179c44.667 96 67 176.667 67 242c0 35.333 -6.66699 62.666 -20 81.999s-32.333 29 -57 29
c-40 0 -82 -26.333 -126 -79c-42 -52 -77.667 -110 -107 -174c-11.333 -25.333 -21.833 -52.333 -31.5 -81s-18.834 -58 -27.501 -88z" />
    <glyph glyph-name="q" unicode="q" horiz-adv-x="617" 
d="M535 591l-249 -988h-53l139 635c-24.667 -51.333 -59 -103 -103 -155c-55.333 -66 -110.333 -99 -165 -99c-40 0 -71.833 14.5 -95.5 43.5s-35.5 66.5 -35.5 112.5c0 92 35.667 185.333 107 280c38 50 76.5 87.167 115.5 111.5s78.833 36.5 119.5 36.5
c49.333 0 89.333 -17 120 -51l8 35zM423 467c-20 48.667 -54.0029 73 -102.003 73c-28 0 -57.167 -11.167 -87.5 -33.5s-56.166 -50.833 -77.499 -85.5c-28.667 -46 -51.834 -95.333 -69.501 -148s-26.5 -98.334 -26.5 -137.001c0 -31.333 7.33301 -56.166 22 -74.499
s34.334 -27.5 59.001 -27.5c31.333 0 65.833 19 103.5 57s72.334 88 104.001 150s53.834 124.667 66.501 188z" />
    <glyph glyph-name="r" unicode="r" horiz-adv-x="443" 
d="M-27 284c57.333 69.333 95.667 133.995 115 193.995c-54 30 -81 73 -81 129c0 26.667 6.33301 48.334 19 65.001s28.667 25 48 25c20 0 36.333 -9.16699 49 -27.5s19 -42.166 19 -71.499c0 -20.667 -3.66699 -43.667 -11 -69c18 -4.66699 34.333 -7 49 -7
c41.333 0 75.333 12 102 36h48l-7 -14c-48 -88 -87.5 -174.5 -118.5 -259.5s-46.5 -148.5 -46.5 -190.5c0 -15.333 4 -28.166 12 -38.499s17.667 -15.5 29 -15.5c27.333 0 71.333 29 132 87l16 -18c-18.667 -20.667 -47.667 -46.334 -87 -77.001
c-35.333 -28 -68.333 -42 -99 -42c-26 0 -46.5 8.66699 -61.5 26s-22.5 41 -22.5 71c0 50 19.333 113.333 58 190c14 28.667 32 61.334 54 98.001s49.667 80.334 83 131.001l10 14c-22 -20 -43.167 -34.167 -63.5 -42.5s-43.5 -12.5 -69.5 -12.5
c-12 0 -24.667 1.66699 -38 5c-21.333 -65.333 -61.333 -132.666 -120 -201.999zM110.001 537.995c2.66699 16.667 4 30.667 4 42c0 23.333 -3.83301 41.666 -11.5 54.999s-17.5 20 -29.5 20c-6.66699 0 -12.5 -3.16699 -17.5 -9.5s-7.5 -14.166 -7.5 -23.499
c0 -31.333 20.667 -59.333 62 -84z" />
    <glyph glyph-name="s" unicode="s" horiz-adv-x="436" 
d="M-82 64l56.001 65.999c29.333 -69.333 76 -104 140 -104c33.333 0 61.833 10.833 85.5 32.5s35.5 46.834 35.5 75.501c0 20.667 -5.66699 38.334 -17 53.001s-38.333 39.334 -81 74.001c-39.333 32 -65.833 57.167 -79.5 75.5s-20.5 39.5 -20.5 63.5
c0 31.333 9.16699 60.333 27.5 87s42.833 48.167 73.5 64.5s63 24.5 97 24.5c30 0 55.167 -7.5 75.5 -22.5s30.5 -34.167 30.5 -57.5c0 -30.667 -13 -51.667 -39 -63c-4 31.333 -15.833 55.833 -35.5 73.5s-44.834 26.5 -75.501 26.5
c-27.333 0 -51.166 -8.83301 -71.499 -26.5s-30.5 -37.834 -30.5 -60.501c0 -28 17.333 -55.667 52 -83l58 -47c56.667 -44.667 85 -90.334 85 -137.001c0 -34.667 -9.83301 -67.167 -29.5 -97.5s-46.334 -54.5 -80.001 -72.5s-69.167 -27 -106.5 -27
c-59.333 0 -109.333 27.333 -150 82z" />
    <glyph glyph-name="t" unicode="t" horiz-adv-x="367" 
d="M164 534l-76.002 -333c-8 -36.667 -12 -62.667 -12 -78c0 -24 5.66699 -43.333 17 -58s26.333 -22 45 -22c18 0 34.5 5.16699 49.5 15.5s37.833 31.833 68.5 64.5l12 12l15 -15c-39.333 -48 -72.166 -81.833 -98.499 -101.5s-52.166 -29.5 -77.499 -29.5
c-32 0 -57.5 10.5 -76.5 31.5s-28.5 48.5 -28.5 82.5c0 25.333 5 62 15 110l65 321h-96l7 34h96l56 270l96 38l-70 -308h162l-7 -34h-162z" />
    <glyph glyph-name="u" unicode="u" horiz-adv-x="617" 
d="M176 585l-97 -387.001c-8.66699 -34.667 -13 -64 -13 -88c0 -23.333 7.33301 -42 22 -56s33.667 -21 57 -21c56.667 0 115.667 46.333 177 139l4 6c1.33301 6.66699 2.33301 12 3 16l63 350l98 41l-88 -329c-14.667 -54 -22 -97.333 -22 -130
c0 -21.333 3.66699 -38.666 11 -51.999s17 -20 29 -20c20.667 0 53.667 24.667 99 74l16 -14l-10 -11c-38 -44.667 -66 -74.834 -84 -90.501s-34.667 -23.5 -50 -23.5c-20.667 0 -38.167 10.5 -52.5 31.5s-21.5 47.167 -21.5 78.5c0 10 0.333008 19.333 1 28
c-69.333 -92 -138 -138 -206 -138c-34 0 -61.167 9.83301 -81.5 29.5s-30.5 45.834 -30.5 78.501c0 25.333 3.66699 56.333 11 93l68 354z" />
    <glyph glyph-name="v" unicode="v" horiz-adv-x="523" 
d="M0 544l90.001 40.998v-26c2 -97.333 7.66699 -199.666 17 -306.999c5.33301 -56 10 -97.5 14 -124.5s8.66699 -45.167 14 -54.5s12.666 -14 21.999 -14c24.667 0 68.667 47 132 141c56.667 82.667 85 159 85 229c0 24.667 -3 45.167 -9 61.5s-17.333 32.833 -34 49.5
l75 70c23.333 -30.667 35 -68 35 -112c0 -88.667 -52.667 -205.667 -158 -351c-32 -44 -66 -83.333 -102 -118c-16.667 -15.333 -30.167 -26.166 -40.5 -32.499s-20.5 -9.5 -30.5 -9.5c-16 0 -27.667 6.33301 -35 19s-13 36.667 -17 72z" />
    <glyph glyph-name="w" unicode="w" horiz-adv-x="798" 
d="M0 544l90 40.999v-18v-8c0 -47.333 1.33301 -91.333 4 -132s7.66699 -98.667 15 -174c9.33301 -88 16.333 -141.667 21 -161s12.667 -29 24 -29c14.667 0 38.667 23.5 72 70.5s66 103.833 98 170.5l-31 240l91 41l1 -25c5.33301 -142.667 11 -245 17 -307l6 -50.5
c2 -17.667 3.5 -31.5 4.5 -41.5s2.5 -21.5 4.5 -34.5s3.33301 -21.5 4 -25.5c5.33301 -22 14 -33 26 -33c24 0 65.333 47.667 124 143c55.333 88 83 162.333 83 223c0 48.667 -16 84 -48 106l76 70c23.333 -26.667 35 -61.334 35 -104.001c0 -46.667 -13 -99.667 -39 -159
s-64.667 -125.666 -116 -198.999c-32 -44.667 -61.333 -81.667 -88 -111c-29.333 -33.333 -53.333 -50 -72 -50c-14.667 0 -25.667 6.83301 -33 20.5s-13 36.834 -17 69.501l-22 179c-29.333 -59.333 -63 -114.666 -101 -165.999c-50 -68.667 -90 -103 -120 -103
c-14 0 -24.333 6.16699 -31 18.5s-12.667 35.166 -18 68.499z" />
    <glyph glyph-name="x" unicode="x" horiz-adv-x="488" 
d="M211 336l18 21.002l18 21l80 95l67 83l10 13h70l-10 -11l-131 -141l-102 -112l-3 -4l142 -302h-91l-109 236l-3 -4c-10 -10.667 -29 -33.334 -57 -68.001l-61 -74c-38 -47.333 -63 -77.333 -75 -90h-70l16 16c56.667 57.333 121.667 127.666 195 210.999l39 44l-131 284
l71 29z" />
    <glyph glyph-name="y" unicode="y" horiz-adv-x="598" 
d="M-116 -355l48.998 65.999c38.667 -41.333 82.334 -62 131.001 -62c51.333 0 92.666 20.333 123.999 61s57 107.334 77 200.001l46 207c-73.333 -86 -139.666 -129 -198.999 -129c-34.667 0 -61.834 10.667 -81.501 32s-29.5 50 -29.5 86c0 24 3 50.333 9 79l68 359l97 41
l-97 -403c-8 -32.667 -12 -57 -12 -73c0 -22.667 6.83301 -41.167 20.5 -55.5s31.834 -21.5 54.501 -21.5c24.667 0 51.834 10.833 81.501 32.5s62.834 54.167 99.501 97.5l86 382l94 41l-146 -588c-17.333 -70.667 -33.833 -126 -49.5 -166s-33.834 -73.333 -54.501 -100
c-65.333 -84 -145 -126 -239 -126c-54.667 0 -97.667 13.333 -129 40z" />
    <glyph glyph-name="z" unicode="z" horiz-adv-x="473" 
d="M70 568h326.999l8 -24l-15 -18l-114 -137l-168 -205.5c-27.333 -34.333 -53.333 -69.5 -78 -105.5c33.333 -3.33301 75.333 -5 126 -5c44 0 88 0.666992 132 2c12.667 0 33.334 1 62.001 3l-10 -79h-396l-12 26l14 16l40 46l59 69.5l56.5 67.5l33.5 41l92 117l87 113
h-259z" />
    <glyph glyph-name="bar" unicode="|" horiz-adv-x="479" 
d="M229 1389h29v-1488h-29v1488z" />
    <glyph glyph-name="asciitilde" unicode="~" horiz-adv-x="571" 
d="M436 1269c-46 -44.667 -83.668 -67 -113.001 -67c-13.333 0 -26.666 5.33301 -39.999 16l-23 18c-14.667 12 -27 18 -37 18c-18 0 -42 -14.667 -72 -44l-14 13c18.667 20.667 38.167 37.167 58.5 49.5s37.833 18.5 52.5 18.5c14 0 35.333 -10.667 64 -32
c17.333 -12 30.333 -18 39 -18c20 0 43.667 14.333 71 43z" />
    <glyph glyph-name="nonbreakingspace" unicode="&#xa0;" horiz-adv-x="355" 
 />
    <glyph glyph-name="exclamdown" unicode="&#xa1;" horiz-adv-x="540" 
d="M61 -11l253 1020l28 12l-147 -973zM356 1104c-14.667 0 -28.167 3.66699 -40.5 11s-22.166 17.166 -29.499 29.499s-11 25.833 -11 40.5c0 23.333 7.66699 42.666 23 57.999s34.666 23 57.999 23s42.666 -7.66699 57.999 -23s23 -34.666 23 -57.999
s-7.66699 -42.666 -23 -57.999s-34.666 -23 -57.999 -23z" />
    <glyph glyph-name="cent" unicode="&#xa2;" horiz-adv-x="521" 
d="M312 712l18.999 94.998h24l-19 -96c28 -4 50 -14.333 66 -31s24 -37 24 -61c0 -22.667 -5.66699 -40.5 -17 -53.5s-27.666 -20.167 -48.999 -21.5c17.333 22.667 26 45 26 67c0 40 -18.667 64.333 -56 73l-108 -525c4 -0.666992 8.33301 -1 13 -1
c24.667 0 51 8.5 79 25.5s51 38.5 69 64.5l17 -13c-52.667 -80.667 -115.334 -122.667 -188.001 -126l-22 -109h-24l22 110c-9.33301 0.666992 -20.666 2.66699 -33.999 6l-23 -116h-24l25 124l-3 1c-72.667 36.667 -109 102.334 -109 197.001c0 48 10.667 98.333 32 151
s49.833 99.334 85.5 140.001s73.167 69 112.5 85l22 109h24l-20 -100c14.667 3.33301 26.667 5 36 5zM305.999 684.998c-10.667 -0.666992 -23 -3.66699 -37 -9l-102 -498c11.333 -6.66699 22 -11.667 32 -15zM242.999 661.998c-38 -23.333 -71.167 -67.333 -99.5 -132
s-42.5 -130 -42.5 -196c0 -62.667 15.333 -109 46 -139z" />
    <glyph glyph-name="sterling" unicode="&#xa3;" horiz-adv-x="606" 
d="M186 375c0 -3.33301 -0.331055 -7.49902 -0.998047 -12.499s-1.33398 -10.5 -2.00098 -16.5l-1 -5h202l-4 -23h-203c-20 -78 -68.667 -155.667 -146 -233c32 4 61.333 6 88 6c19.333 0 33.333 -0.333008 42 -1l77 -7c28 -1.33301 49 -2 63 -2c38 0 68.833 8 92.5 24
s42.834 42 57.501 78h19l-62 -183c-30.667 -6 -65 -9 -103 -9c-30.667 0 -75.667 3.33301 -135 10c-60 6 -102.667 9 -128 9c-34 0 -59.333 -1.66699 -76 -5l-35 -7c-2.66699 -0.666992 -4.83398 -1.16699 -6.50098 -1.5l-12.5 -2.5l-8 17
c67.333 46 117.166 93.167 149.499 141.5s50.5 103.5 54.5 165.5h-106l4 23h103v4c0 4.66699 -0.333008 12 -1 22v8h-95l5 23h88l-1 10c-4.66699 50 -7 86.333 -7 109c0 93.333 35 171.666 105 234.999c48.667 44.667 102.667 67 162 67c41.333 0 75.5 -11.5 102.5 -34.5
s40.5 -51.833 40.5 -86.5c0 -22 -6.83301 -41.5 -20.5 -58.5s-29.834 -25.5 -48.501 -25.5c-1.33301 0 -6.66602 0.666992 -15.999 2c12 20.667 18 41 18 61c0 34.667 -9.33301 62.5 -28 83.5s-44 31.5 -76 31.5c-50.667 0 -90.5 -20.167 -119.5 -60.5
s-43.5 -94.5 -43.5 -162.5c0 -18.667 1.66699 -45.667 5 -81c4 -32 6.66699 -62 8 -90h209l-5 -23h-205z" />
    <glyph glyph-name="currency" unicode="&#xa4;" horiz-adv-x="1024" 
d="M481 950c-74 0 -137.167 -26.5 -189.5 -79.5s-78.5 -116.5 -78.5 -190.5s26.167 -137.167 78.5 -189.5s115.5 -78.5 189.5 -78.5s137.167 26.167 189.5 78.5s78.5 115.5 78.5 189.5s-26.167 137.5 -78.5 190.5s-115.5 79.5 -189.5 79.5zM127 828
c11.333 26 30.332 57.999 56.999 95.999l-118 118l52 53l121 -114c28.667 21.333 57 38 85 50c50 22 103 33 159 33c54.667 0 103.334 -9.66699 146.001 -29c26 -11.333 57 -31 93 -59l119 119l57 -53l-121 -118c26.667 -34 45.334 -63.667 56.001 -89
c21.333 -44.667 32 -98.667 32 -162c0 -41.333 -6.33301 -80.333 -19 -117s-35.667 -76 -69 -118l121 -119l-57 -56l-119 118c-36 -28 -72.833 -48.833 -110.5 -62.5s-81.167 -20.5 -130.5 -20.5c-62 0 -116.333 10.667 -163 32c-26 12.667 -52.333 30.334 -79 53.001
l-121 -120l-52 56l118 119c-28.667 36.667 -50.334 74.667 -65.001 114s-22 80.333 -22 123c0 56 10 107 30 153z" />
    <glyph glyph-name="yen" unicode="&#xa5;" horiz-adv-x="652" 
d="M314 396h149.001l-5 -24h-163l-7 -33h163l-5 -26h-163l-64 -312h-77l64 312h-165l5 26h165l7 33h-165l5 24h152l-73 231c-21.333 67.333 -46.333 121.333 -75 162l99 28l125 -414c68 84.667 127.167 163.667 177.5 237s84.166 128 101.499 164h74z" />
    <glyph glyph-name="brokenbar" unicode="&#xa6;" horiz-adv-x="479" 
d="M229 1389h29v-638h-29v638zM229 539h29v-638h-29v638z" />
    <glyph glyph-name="dieresis" unicode="&#xa8;" horiz-adv-x="523" 
d="M183 793c9.33301 0 17.5 -2 24.5 -6s12.5 -9.5 16.5 -16.5s6 -15.167 6 -24.5c0 -12.667 -4.66699 -23.667 -14 -33s-20.333 -14 -33 -14c-12 0 -22.667 4.66699 -32 14s-14 20.333 -14 33c0 14 4.33301 25.333 13 34s19.667 13 33 13zM340 793
c8.66699 0 16.5 -2 23.5 -6s12.5 -9.5 16.5 -16.5s6 -15.167 6 -24.5c0 -12.667 -4.66699 -23.667 -14 -33s-20 -14 -32 -14c-12.667 0 -23.667 4.66699 -33 14s-14 20.333 -14 33c0 14 4.33301 25.333 13 34s20 13 34 13z" />
    <glyph glyph-name="ordfeminine" unicode="&#xaa;" horiz-adv-x="666" 
d="M537 1491l-94.002 -365.999c-10 -40 -15 -71.333 -15 -94c0 -20 4.33301 -37.333 13 -52s19.334 -22 32.001 -22c19.333 0 51.333 23.667 96 71l14 -14l-11 -13c-35.333 -40.667 -62.5 -69.167 -81.5 -85.5s-35.5 -24.5 -49.5 -24.5c-21.333 0 -39.833 11.167 -55.5 33.5
s-23.5 48.166 -23.5 77.499c0 21.333 8 69.666 24 144.999l8 38c-24.667 -57.333 -57.667 -112.333 -99 -165c-69.333 -88 -135.666 -132 -198.999 -132c-38 0 -68 13.667 -90 41s-33 64 -33 110c0 62.667 17.833 128.334 53.5 197.001s80 125.167 133 169.5
s104.5 66.5 154.5 66.5c52.667 0 92 -19.333 118 -58l11 38zM421.998 1363c-8 25.333 -21.501 45.165 -40.501 59.498s-40.833 21.5 -65.5 21.5c-29.333 0 -60.333 -13.5 -93 -40.5s-62.667 -64.5 -90 -112.5c-21.333 -38 -39.166 -80 -53.499 -126s-21.5 -84 -21.5 -114
c0 -34 6.5 -60.667 19.5 -80s31.5 -29 55.5 -29c30.667 0 62.667 14.333 96 43s66.333 69.667 99 123c20 30.667 35.667 61.334 47 92.001s24 73.334 38 128.001zM500.997 727l-9 -45h-544l9 45h544z" />
    <glyph glyph-name="guillemotleft" unicode="&#xab;" horiz-adv-x="538" 
d="M237 508l-123 -203l32 -204h-18c-18.667 78 -54.667 146 -108 204c74.667 63.333 141 131 199 203h18zM381 508l-123 -203l32 -204h-17c-20 78 -56 146 -108 204c72.667 61.333 138.667 129 198 203h18z" />
    <glyph glyph-name="logicalnot" unicode="&#xac;" horiz-adv-x="1460" 
d="M1163 270h-139v287h-811v139h950v-426z" />
    <glyph glyph-name="softhyphen" unicode="&#xad;" horiz-adv-x="250" 
d="M68 625h-17l8 130l2 21c2.66699 32.667 13.667 49 33 49s29 -9.66699 29 -29c0 -10.667 -5 -29.667 -15 -57zM165 625h-16l8 130l2 21c2.66699 32.667 13.334 49 32.001 49c9.33301 0 16.666 -2.66699 21.999 -8s8 -12.333 8 -21c0 -8 -5 -27 -15 -57z" />
    <glyph glyph-name="macron" unicode="&#xaf;" horiz-adv-x="428" 
d="M340 1350l-9 -45h-244l9 45h244z" />
    <glyph glyph-name="degree" unicode="&#xb0;" horiz-adv-x="864" 
d="M432 1240c42.667 0 80 -16 112 -48s48 -69.333 48 -112c0 -44 -16 -81.333 -48 -112s-69.333 -46 -112 -46c-44 0 -81.333 15.333 -112 46s-46 68 -46 112c0 42.667 15.333 80 46 112s68 48 112 48zM432 1178c-28 0 -51.333 -10 -70 -30s-28 -42.667 -28 -68
s10 -48 30 -68s42.667 -30 68 -30s48 9.33301 68 28s30 42 30 70s-9.33301 51.333 -28 70s-42 28 -70 28z" />
    <glyph glyph-name="plusminus" unicode="&#xb1;" horiz-adv-x="621" 
d="M106 172h384v-44h-384v44zM106 442h170v170h44v-170h170v-44h-170v-170h-44v170h-170v44z" />
    <glyph glyph-name="twosuperior" unicode="&#xb2;" horiz-adv-x="302" 
d="M236 992l-30 -91.0039c-15.333 -3.33301 -31.666 -5 -48.999 -5c-16.667 0 -35.334 1 -56.001 3c-37.333 4.66699 -64.666 7 -81.999 7c-23.333 0 -48 -3.33301 -74 -10v14c22 14.667 45.667 31.834 71 51.501s52 41.834 80 66.501s50.167 46.834 66.5 66.501
s28.166 38.834 35.499 57.501s11 37.667 11 57c0 27.333 -6.83301 49 -20.5 65s-32.167 24 -55.5 24c-22.667 0 -42.5 -7.5 -59.5 -22.5s-25.5 -32.5 -25.5 -52.5c0 -10 2.83301 -19 8.5 -27s12.834 -13.333 21.501 -16c-5.33301 -9.33301 -13.666 -14 -24.999 -14
s-20.5 3.83301 -27.5 11.5s-10.5 17.5 -10.5 29.5c0 26 13.833 50.167 41.5 72.5s57.5 33.5 89.5 33.5s57.833 -9.33301 77.5 -28s29.5 -43.334 29.5 -74.001c0 -23.333 -5.66699 -45.333 -17 -66s-30 -43.667 -56 -69c-24 -23.333 -64 -55.666 -120 -96.999l-50 -37
c14 2 28.667 3 44 3c12 0 23.333 -0.333008 34 -1l41 -3c11.333 -0.666992 19.666 -1 24.999 -1c18 0 32.667 4 44 12s21.666 21.333 30.999 40h7z" />
    <glyph glyph-name="threesuperior" unicode="&#xb3;" horiz-adv-x="316" 
d="M268 1290l-117.996 -128.002c19.333 -4.66699 35.833 -12.5 49.5 -23.5s24.167 -24.667 31.5 -41s11 -33.833 11 -52.5c0 -27.333 -7.33301 -52.833 -22 -76.5s-34.334 -42.667 -59.001 -57s-51 -21.5 -79 -21.5c-31.333 0 -58 8.33301 -80 25s-33 37 -33 61
c0 12.667 3.33301 23.334 10 32.001s16 13.334 28 14.001c-2 -6.66699 -3 -13 -3 -19c0 -17.333 4.16699 -33.5 12.5 -48.5s19.666 -26.833 33.999 -35.5s30.5 -13 48.5 -13c18.667 0 36.667 5.16699 54 15.5s31.166 24.333 41.499 42s15.5 35.834 15.5 54.501
s-4.33301 36.167 -13 52.5s-20.834 30 -36.501 41s-33.167 18.5 -52.5 22.5l117 130h-85h-25c-21.333 0 -36.5 -2.83301 -45.5 -8.5s-18.167 -17.834 -27.5 -36.501h-11l38 93c8.66699 -3.33301 18 -5.33301 28 -6c13.333 -1.33301 31 -2 53 -2h115z" />
    <glyph glyph-name="acute" unicode="&#xb4;" horiz-adv-x="502" 
d="M366 814l-209 -154l-20 7l164 165z" />
    <glyph glyph-name="micro" unicode="&#xb5;" horiz-adv-x="617" 
d="M176 585l-97 -387.001c-3.33301 -12 -5.5 -25 -6.5 -39s-1.5 -27 -1.5 -39c0.666992 -30 7.33398 -52 20.001 -66s30.667 -21 54 -21c28.667 0 58.5 11.667 89.5 35s61.5 60 91.5 110l66 366l98 41l-88 -329c-14.667 -52.667 -22 -96 -22 -130
c0 -21.333 3.66699 -38.666 11 -51.999s17 -20 29 -20c20.667 0 53.667 24.667 99 74l16 -14l-10 -11l-49.5 -56.5c-13.667 -15 -25.167 -26.5 -34.5 -34.5c-18.667 -15.333 -35.334 -23 -50.001 -23c-20.667 0 -38.167 10.333 -52.5 31s-21.5 47 -21.5 79v14.5
c0 4.33301 0.333008 8.83301 1 13.5c-69.333 -92 -138 -138 -206 -138c-34 0 -58.333 9 -73 27s-24 44 -28 78l-86 -493l-95 -16l131 430.5c30 100.333 46.667 158.5 50 174.5l68 354z" />
    <glyph glyph-name="periodcentered" unicode="&#xb7;" horiz-adv-x="333" 
d="M197 433c0 -26.667 -8.5 -49.502 -25.5 -68.502s-37.167 -28.5 -60.5 -28.5c-46.667 0 -70 23.333 -70 70c0 18.667 4 35.334 12 50.001s18.5 26.5 31.5 35.5s27.167 13.5 42.5 13.5c21.333 0 38.333 -6.66699 51 -20s19 -30.666 19 -51.999z" />
    <glyph glyph-name="cedilla" unicode="&#xb8;" horiz-adv-x="309" 
d="M167 -14l25.002 -1l-36 -66c10 2.66699 18 4 24 4c17.333 0 31.166 -5.83301 41.499 -17.5s15.5 -26.167 15.5 -43.5c0 -26.667 -9.83301 -49 -29.5 -67s-44.834 -27 -75.501 -27c-28 0 -51.667 7.33301 -71 22l11 18c11.333 -11.333 26 -17 44 -17
c18.667 0 35.667 7.33301 51 22s23 31 23 49c0 21.333 -9.33301 32 -28 32c-8 0 -16.667 -2.66699 -26 -8l-19 9z" />
    <glyph glyph-name="onesuperior" unicode="&#xb9;" horiz-adv-x="197" 
d="M118 900l-151.997 0.000976562l2 13h14c16.667 0 28.167 2.66699 34.5 8s11.166 15.666 14.499 30.999l4 18l43 209l3 18c2 8.66699 3 15.334 3 20.001c0 8.66699 -3.66699 13 -11 13c-5.33301 0 -13 -2.66699 -23 -8l-42 -23l-2 11l9 7l56 39
c24.667 17.333 46 33.333 64 48h13c-8.66699 -27.333 -18.334 -67.333 -29.001 -120l-44 -214c-3.33301 -17.333 -5 -29.333 -5 -36c0 -8.66699 2.16699 -14.334 6.5 -17.001s13.166 -4 26.499 -4h18z" />
    <glyph glyph-name="ordmasculine" unicode="&#xba;" horiz-adv-x="600" 
d="M-27 1092c0 60 16.1719 119.833 48.5049 179.5s74.166 108.167 125.499 145.5s103.666 56 156.999 56c56 0 101.167 -18.5 135.5 -55.5s51.5 -84.833 51.5 -143.5c0 -64 -15.833 -126 -47.5 -186s-73.334 -109.167 -125.001 -147.5s-103.834 -57.5 -156.501 -57.5
c-56.667 0 -102.334 19.167 -137.001 57.5s-52 88.833 -52 151.5zM401.005 1312c0 40 -9.83203 73 -29.499 99s-44.834 39 -75.501 39c-28 0 -54.833 -9 -80.5 -27s-49.167 -44.333 -70.5 -79c-24 -40 -43.833 -86.667 -59.5 -140s-23.5 -100.666 -23.5 -141.999
c0 -49.333 9.66699 -87.333 29 -114s47 -40 83 -40c58 0 109 40.333 153 121c22.667 41.333 40.667 87.666 54 138.999s20 99.333 20 144zM401.006 727l-9 -45h-444l9 45h444z" />
    <glyph glyph-name="guillemotright" unicode="&#xbb;" horiz-adv-x="538" 
d="M165 101l123 203l-32 204h17c19.333 -77.333 55.333 -145.333 108 -204c-32.667 -26.667 -66 -57.667 -100 -93s-66.667 -72 -98 -110h-18zM20 101l124 203l-32 204h17c20 -78.667 56 -146.667 108 -204c-32.667 -26.667 -66 -57.667 -100 -93s-66.667 -72 -98 -110h-19z
" />
    <glyph glyph-name="onequarter" unicode="&#xbc;" horiz-adv-x="900" 
d="M878 1433l-845 -1590l-25 14l844 1589zM246 900l-151.997 0.000976562l2 13h14c16.667 0 28.167 2.66699 34.5 8s11.166 15.666 14.499 30.999l4 18l43 209l3 18c2 8.66699 3 15.334 3 20.001c0 8.66699 -3.66699 13 -11 13c-5.33301 0 -13 -2.66699 -23 -8l-42 -23
l-2 11l9 7l56 39c24.667 17.333 46 33.333 64 48h13c-8.66699 -27.333 -18.334 -67.333 -29.001 -120l-44 -214c-3.33301 -17.333 -5 -29.333 -5 -36c0 -8.66699 2.16699 -14.334 6.5 -17.001s13.166 -4 26.499 -4h18zM796.003 146.001l3.00391 0.000976562
c16.667 -3.33301 31 -5 43 -5c9.33301 0 17 0.5 23 1.5s15 4.16699 27 9.5l-18 -44c-11.333 -3.33301 -23.666 -5 -36.999 -5c-14.667 0 -30.334 1.66699 -47.001 5l-18 -117h-45l32 124h-2c-29.333 6.66699 -54.333 10 -75 10c-28.667 0 -53.334 -5.66699 -74.001 -17l-8 8
c22 20 46.333 53 73 99c14 23.333 25 47.166 33 71.499s12 46.833 12 67.5c0 9.33301 -1.33301 18 -4 26l52 31c0.666992 -9.33301 1 -14.333 1 -15c0 -20.667 -3.16699 -40.667 -9.5 -60s-18.833 -45.333 -37.5 -78c-10.667 -18 -24.834 -39.667 -42.501 -65
s-34.834 -47 -51.501 -65l9 3c42.667 15.333 76.667 23 102 23c9.33301 0 17.666 -0.666992 24.999 -2c2.66699 0 5 -0.333008 7 -1l33 124l15 9z" />
    <glyph glyph-name="onehalf" unicode="&#xbd;" horiz-adv-x="900" 
d="M883 1433l-845 -1590l-25 14l844 1589zM251 900l-151.997 0.000976562l2 13h14c16.667 0 28.167 2.66699 34.5 8s11.166 15.666 14.499 30.999l4 18l43 209l3 18c2 8.66699 3 15.334 3 20.001c0 8.66699 -3.66699 13 -11 13c-5.33301 0 -13 -2.66699 -23 -8l-42 -23
l-2 11l9 7l56 39c24.667 17.333 46 33.333 64 48h13c-8.66699 -27.333 -18.334 -67.333 -29.001 -120l-44 -214c-3.33301 -17.333 -5 -29.333 -5 -36c0 -8.66699 2.16699 -14.334 6.5 -17.001s13.166 -4 26.499 -4h18zM869.003 92.001l-30 -91.0039
c-15.333 -3.33301 -31.666 -5 -48.999 -5c-16.667 0 -35.334 1 -56.001 3c-37.333 4.66699 -64.666 7 -81.999 7c-23.333 0 -48 -3.33301 -74 -10v14c22 14.667 45.667 31.834 71 51.501s52 41.834 80 66.501s50.167 46.834 66.5 66.501s28.166 38.834 35.499 57.501
s11 37.667 11 57c0 27.333 -6.83301 49 -20.5 65s-32.167 24 -55.5 24c-22.667 0 -42.5 -7.5 -59.5 -22.5s-25.5 -32.5 -25.5 -52.5c0 -10 2.83301 -19 8.5 -27s12.834 -13.333 21.501 -16c-5.33301 -9.33301 -13.666 -14 -24.999 -14s-20.5 3.83301 -27.5 11.5
s-10.5 17.5 -10.5 29.5c0 26 13.833 50.167 41.5 72.5s57.5 33.5 89.5 33.5s57.833 -9.33301 77.5 -28s29.5 -43.334 29.5 -74.001c0 -23.333 -5.66699 -45.333 -17 -66s-30 -43.667 -56 -69c-24 -23.333 -64 -55.666 -120 -96.999l-50 -37c14 2 28.667 3 44 3
c12 0 23.333 -0.333008 34 -1l41 -3c11.333 -0.666992 19.666 -1 24.999 -1c18 0 32.667 4 44 12s21.666 21.333 30.999 40h7z" />
    <glyph glyph-name="threequarters" unicode="&#xbe;" horiz-adv-x="900" 
d="M878 1433l-845 -1590l-25 14l844 1589zM396 1290l-117.996 -128.002c19.333 -4.66699 35.833 -12.5 49.5 -23.5s24.167 -24.667 31.5 -41s11 -33.833 11 -52.5c0 -27.333 -7.33301 -52.833 -22 -76.5s-34.334 -42.667 -59.001 -57s-51 -21.5 -79 -21.5
c-31.333 0 -58 8.33301 -80 25s-33 37 -33 61c0 12.667 3.33301 23.334 10 32.001s16 13.334 28 14.001c-2 -6.66699 -3 -13 -3 -19c0 -17.333 4.16699 -33.5 12.5 -48.5s19.666 -26.833 33.999 -35.5s30.5 -13 48.5 -13c18.667 0 36.667 5.16699 54 15.5
s31.166 24.333 41.499 42s15.5 35.834 15.5 54.501s-4.33301 36.167 -13 52.5s-20.834 30 -36.501 41s-33.167 18.5 -52.5 22.5l117 130h-85h-25c-21.333 0 -36.5 -2.83301 -45.5 -8.5s-18.167 -17.834 -27.5 -36.501h-11l38 93c8.66699 -3.33301 18 -5.33301 28 -6
c13.333 -1.33301 31 -2 53 -2h115zM796.004 145.998l3.00391 0.000976562c16.667 -3.33301 31 -5 43 -5c9.33301 0 17 0.5 23 1.5s15 4.16699 27 9.5l-18 -44c-11.333 -3.33301 -23.666 -5 -36.999 -5c-14.667 0 -30.334 1.66699 -47.001 5l-18 -117h-45l32 124h-2
c-29.333 6.66699 -54.333 10 -75 10c-28.667 0 -53.334 -5.66699 -74.001 -17l-8 8c22 20 46.333 53 73 99c14 23.333 25 47.166 33 71.499s12 46.833 12 67.5c0 9.33301 -1.33301 18 -4 26l52 31c0.666992 -9.33301 1 -14.333 1 -15c0 -20.667 -3.16699 -40.667 -9.5 -60
s-18.833 -45.333 -37.5 -78c-10.667 -18 -24.834 -39.667 -42.501 -65s-34.834 -47 -51.501 -65l9 3c42.667 15.333 76.667 23 102 23c9.33301 0 17.666 -0.666992 24.999 -2c2.66699 0 5 -0.333008 7 -1l33 124l15 9z" />
    <glyph glyph-name="questiondown" unicode="&#xbf;" horiz-adv-x="728" 
d="M365 961l26.998 68.001h11c28 0 53 -6.16699 75 -18.5s39.167 -30 51.5 -53s18.5 -48.5 18.5 -76.5c0 -52 -21 -111.667 -63 -179c-19.333 -31.333 -69.666 -98 -150.999 -200l-76 -95c-59.333 -75.333 -100.666 -133.5 -123.999 -174.5s-35 -76.167 -35 -105.5
c0 -28.667 10 -53 30 -73s45 -30 75 -30c69.333 0 146 45 230 135c40 42 73 86 99 132l28 -103c-42 -58.667 -93.5 -106.5 -154.5 -143.5s-119.833 -55.5 -176.5 -55.5c-50.667 0 -91.5 15.5 -122.5 46.5s-46.5 71.833 -46.5 122.5c0 49.333 17.167 107 51.5 173
s88.833 144.333 163.5 235l89 108c62 75.333 101.833 127.666 119.5 156.999s26.5 56.666 26.5 81.999c0 20.667 -6.33301 36.834 -19 48.501s-30.667 17.5 -54 17.5c-16 0 -40.333 -6 -73 -18zM503.998 1101c-22.667 0 -42 7.66699 -58 23s-24 34.666 -24 57.999
s8 42.666 24 57.999s35.333 23 58 23c22 0 41 -7.66699 57 -23s24 -34.666 24 -57.999s-8 -42.666 -24 -57.999s-35 -23 -57 -23z" />
    <glyph glyph-name="Agrave" unicode="&#xc0;" horiz-adv-x="1336" 
d="M1168 383l-96.0029 -389.001h-64c-24.667 69.333 -64.167 136.5 -118.5 201.5s-115.833 118.5 -184.5 160.5c-45.333 -62 -96.166 -117.667 -152.499 -167s-116 -91.5 -179 -126.5s-128.667 -62.167 -197 -81.5s-135.166 -29 -200.499 -29c-18 0 -37.333 1.33301 -58 4
l32 67c35.333 -3.33301 62 -5 80 -5c183.333 0 346.333 62.667 489 188c29.333 25.333 59.333 54.833 90 88.5s62.334 73.167 95.001 118.5c72.667 100 134.667 193.667 186 281l94 159c74 124.667 131.167 209.167 171.5 253.5s80.166 66.5 119.499 66.5
c12.667 0 23.834 -2.33301 33.501 -7s17.167 -11.5 22.5 -20.5s8 -19.167 8 -30.5c0 -8 -1.66699 -20 -5 -36c-3.33301 -21.333 -5.33301 -32.666 -6 -33.999l-153 -632h71l-7 -30h-71zM1073 382.999h-349.001l4 -2c59.333 -40 110.333 -81.167 153 -123.5
s84.334 -92.5 125.001 -150.5zM750.996 412.999h328.999l143 597c4.66699 19.333 7 29.333 7 30c4 12 6 22.667 6 32c0 14.667 -7.33301 22 -22 22c-18 0 -39.667 -16.667 -65 -50s-69.666 -102 -132.999 -206l-57 -96c-24 -38 -37 -59 -39 -63l-96 -153
c-40 -64 -64.333 -101.667 -73 -113zM1230 1380l59 -147l-19 -4l-99 136z" />
    <glyph glyph-name="Aacute" unicode="&#xc1;" horiz-adv-x="1336" 
d="M1165 443l-95.001 -442.999h-64c-24.667 78.667 -64.167 155 -118.5 229s-115.833 135 -184.5 183c-45.333 -70.667 -96 -134 -152 -190s-115.5 -104 -178.5 -144s-128.5 -71 -196.5 -93s-134.667 -33 -200 -33c-18 0 -37.333 1.66699 -58 5l32 76c35.333 -4 62 -6 80 -6
c182.667 0 345.334 71.333 488.001 214c29.333 29.333 59.166 63.166 89.499 101.499s61.833 83.166 94.5 134.499c72.667 114 134.667 220.667 186 320l94 181c74 142 131 238.167 171 288.5s79.667 75.5 119 75.5c12.667 0 23.834 -2.66699 33.501 -8
s17.167 -13.166 22.5 -23.499s8 -21.833 8 -34.5c0 -9.33301 -1.66699 -23 -5 -41c-3.33301 -24 -5.33301 -37 -6 -39l-153 -719h71l-7 -34h-71zM1071 443.001h-349.001l4 -3c59.333 -45.333 110.333 -92 153 -140s84.334 -105.333 125.001 -172zM748.998 477.001
l329 0.000976562l142 680c4.66699 22 7 33.333 7 34c4 13.333 6 25.333 6 36c0 16.667 -7.33301 25 -22 25c-18 0 -39.667 -19 -65 -57s-69.333 -116 -132 -234l-57 -109c-24 -43.333 -37 -67.333 -39 -72l-96 -175c-40 -72.667 -64.333 -115.334 -73 -128.001zM1438 1565
l-209 -154l-20 7l164 165z" />
    <glyph glyph-name="Acircumflex" unicode="&#xc2;" horiz-adv-x="1336" 
d="M1165 443l-95.001 -442.999h-64c-24.667 78.667 -64.167 155 -118.5 229s-115.833 135 -184.5 183c-45.333 -70.667 -96 -134 -152 -190s-115.5 -104 -178.5 -144s-128.5 -71 -196.5 -93s-134.667 -33 -200 -33c-18 0 -37.333 1.66699 -58 5l32 76c35.333 -4 62 -6 80 -6
c182.667 0 345.334 71.333 488.001 214c29.333 29.333 59.166 63.166 89.499 101.499s61.833 83.166 94.5 134.499c72.667 114 134.667 220.667 186 320l94 181c74 142 131 238.167 171 288.5s79.667 75.5 119 75.5c12.667 0 23.834 -2.66699 33.501 -8
s17.167 -13.166 22.5 -23.499s8 -21.833 8 -34.5c0 -9.33301 -1.66699 -23 -5 -41c-3.33301 -24 -5.33301 -37 -6 -39l-153 -719h71l-7 -34h-71zM1071 443.001h-349.001l4 -3c59.333 -45.333 110.333 -92 153 -140s84.334 -105.333 125.001 -172zM748.998 477.001
l329 0.000976562l142 680c4.66699 22 7 33.333 7 34c4 13.333 6 25.333 6 36c0 16.667 -7.33301 25 -22 25c-18 0 -39.667 -19 -65 -57s-69.333 -116 -132 -234l-57 -109c-24 -43.333 -37 -67.333 -39 -72l-96 -175c-40 -72.667 -64.333 -115.334 -73 -128.001zM1281 1478
l-135 -47l-7 15l154 98l115 -98l-11 -15z" />
    <glyph glyph-name="Atilde" unicode="&#xc3;" horiz-adv-x="1335" 
d="M1467 1470c-46 -44.667 -83.668 -67 -113.001 -67c-13.333 0 -26.666 5.33301 -39.999 16l-23 18c-14.667 12 -27 18 -37 18c-18 0 -42 -14.667 -72 -44l-14 13c18.667 20.667 38.167 37.167 58.5 49.5s37.833 18.5 52.5 18.5c14 0 35.333 -10.667 64 -32
c17.333 -12 30.333 -18 39 -18c20 0 43.667 14.333 71 43zM1165 443l-95.001 -442.999h-64c-24.667 78.667 -64.167 155 -118.5 229s-115.833 135 -184.5 183c-45.333 -70.667 -96 -134 -152 -190s-115.5 -104 -178.5 -144s-128.5 -71 -196.5 -93s-134.667 -33 -200 -33
c-18 0 -37.333 1.66699 -58 5l32 76c35.333 -4 62 -6 80 -6c182.667 0 345.334 71.333 488.001 214c29.333 29.333 59.166 63.166 89.499 101.499s61.833 83.166 94.5 134.499c72.667 114 134.667 220.667 186 320l94 181c74 142 131 238.167 171 288.5
s79.667 75.5 119 75.5c12.667 0 23.834 -2.66699 33.501 -8s17.167 -13.166 22.5 -23.499s8 -21.833 8 -34.5c0 -9.33301 -1.66699 -23 -5 -41c-3.33301 -24 -5.33301 -37 -6 -39l-153 -719h71l-7 -34h-71zM1071 443.001h-349.001l4 -3c59.333 -45.333 110.333 -92 153 -140
s84.334 -105.333 125.001 -172zM748.997 477.001l329 0.000976562l142 680c4.66699 22 7 33.333 7 34c4 13.333 6 25.333 6 36c0 16.667 -7.33301 25 -22 25c-18 0 -39.667 -19 -65 -57s-69.333 -116 -132 -234l-57 -109c-24 -43.333 -37 -67.333 -39 -72l-96 -175
c-40 -72.667 -64.333 -115.334 -73 -128.001z" />
    <glyph glyph-name="Adieresis" unicode="&#xc4;" horiz-adv-x="1336" 
d="M1165 443l-95.001 -442.999h-64c-24.667 78.667 -64.167 155 -118.5 229s-115.833 135 -184.5 183c-45.333 -70.667 -96 -134 -152 -190s-115.5 -104 -178.5 -144s-128.5 -71 -196.5 -93s-134.667 -33 -200 -33c-18 0 -37.333 1.66699 -58 5l32 76c35.333 -4 62 -6 80 -6
c182.667 0 345.334 71.333 488.001 214c29.333 29.333 59.166 63.166 89.499 101.499s61.833 83.166 94.5 134.499c72.667 114 134.667 220.667 186 320l94 181c74 142 131 238.167 171 288.5s79.667 75.5 119 75.5c12.667 0 23.834 -2.66699 33.501 -8
s17.167 -13.166 22.5 -23.499s8 -21.833 8 -34.5c0 -9.33301 -1.66699 -23 -5 -41c-3.33301 -24 -5.33301 -37 -6 -39l-153 -719h71l-7 -34h-71zM1071 443.001h-349.001l4 -3c59.333 -45.333 110.333 -92 153 -140s84.334 -105.333 125.001 -172zM748.998 477.001
l329 0.000976562l142 680c4.66699 22 7 33.333 7 34c4 13.333 6 25.333 6 36c0 16.667 -7.33301 25 -22 25c-18 0 -39.667 -19 -65 -57s-69.333 -116 -132 -234l-57 -109c-24 -43.333 -37 -67.333 -39 -72l-96 -175c-40 -72.667 -64.333 -115.334 -73 -128.001zM1198 1497
c9.33301 0 17.5 -2 24.5 -6s12.5 -9.5 16.5 -16.5s6 -15.167 6 -24.5c0 -12.667 -4.66699 -23.667 -14 -33s-20.333 -14 -33 -14c-12 0 -22.667 4.66699 -32 14s-14 20.333 -14 33c0 14 4.33301 25.333 13 34s19.667 13 33 13zM1355 1497c8.66699 0 16.5 -2 23.5 -6
s12.5 -9.5 16.5 -16.5s6 -15.167 6 -24.5c0 -12.667 -4.66699 -23.667 -14 -33s-20 -14 -32 -14c-12.667 0 -23.667 4.66699 -33 14s-14 20.333 -14 33c0 14 4.33301 25.333 13 34s20 13 34 13z" />
    <glyph glyph-name="Aring" unicode="&#xc5;" horiz-adv-x="1336" 
d="M1165 443l-95.001 -442.999h-64c-24.667 78.667 -64.167 155 -118.5 229s-115.833 135 -184.5 183c-45.333 -70.667 -96 -134 -152 -190s-115.5 -104 -178.5 -144s-128.5 -71 -196.5 -93s-134.667 -33 -200 -33c-18 0 -37.333 1.66699 -58 5l32 76c35.333 -4 62 -6 80 -6
c182.667 0 345.334 71.333 488.001 214c29.333 29.333 59.166 63.166 89.499 101.499s61.833 83.166 94.5 134.499c72.667 114 134.667 220.667 186 320l94 181c74 142 131 238.167 171 288.5s79.667 75.5 119 75.5c12.667 0 23.834 -2.66699 33.501 -8
s17.167 -13.166 22.5 -23.499s8 -21.833 8 -34.5c0 -9.33301 -1.66699 -23 -5 -41c-3.33301 -24 -5.33301 -37 -6 -39l-153 -719h71l-7 -34h-71zM1071 443.001h-349.001l4 -3c59.333 -45.333 110.333 -92 153 -140s84.334 -105.333 125.001 -172zM748.998 477.001
l329 0.000976562l142 680c4.66699 22 7 33.333 7 34c4 13.333 6 25.333 6 36c0 16.667 -7.33301 25 -22 25c-18 0 -39.667 -19 -65 -57s-69.333 -116 -132 -234l-57 -109c-24 -43.333 -37 -67.333 -39 -72l-96 -175c-40 -72.667 -64.333 -115.334 -73 -128.001zM1284 1565
c21.333 0 40 -8 56 -24s24 -34.667 24 -56c0 -22 -8 -40.667 -24 -56s-34.667 -23 -56 -23c-22 0 -40.667 7.66699 -56 23s-23 34 -23 56c0 21.333 7.66699 40 23 56s34 24 56 24zM1284 1534c-14 0 -25.667 -5 -35 -15s-14 -21.333 -14 -34s5 -24 15 -34s21.333 -15 34 -15
s24 4.66699 34 14s15 21 15 35s-4.66699 25.667 -14 35s-21 14 -35 14z" />
    <glyph glyph-name="AE" unicode="&#xc6;" horiz-adv-x="2083" 
d="M1899 201l-24.0049 -119.004c-85.333 -40 -168.666 -70.667 -249.999 -92s-155.333 -32 -222 -32c-55.333 0 -105.166 6 -149.499 18s-82.166 29.333 -113.499 52c-20.667 16 -38.334 33.667 -53.001 53l-17 -81h-64c-25.333 80 -65 156.333 -119 229
c-54.667 74.667 -116 135.667 -184 183c-44.667 -70 -95.334 -133.333 -152.001 -190s-116.5 -105 -179.5 -145s-128.167 -70.833 -195.5 -92.5s-134 -32.5 -200 -32.5c-9.33301 0 -18.666 0.5 -27.999 1.5s-19.333 2.16699 -30 3.5l32 76c35.333 -4 62 -6 80 -6
c182.667 0 345.334 71.333 488.001 214c30 30 60 63.833 90 101.5s61.333 82.5 94 134.5l101.5 165.5c31 53 59.167 104.5 84.5 154.5l94 181c38 72.667 70.667 132.5 98 179.5s52 84.167 74 111.5s42.167 46.333 60.5 57s37.5 16 57.5 16c19.333 0 34.833 -6 46.5 -18
s17.5 -28 17.5 -48c0 -4.66699 -0.666992 -11.667 -2 -21l-4 -27l-3.5 -23c-1 -6.66699 -1.5 -9.66699 -1.5 -9l-148 -693c38 39.333 83.333 77.666 136 114.999c58.667 41.333 125.667 81 201 119c-72 12 -108 49.333 -108 112c0 90 77.333 190.333 232 301
c36 26 72.667 49.667 110 71s73.5 39.5 108.5 54.5s68.167 26.667 99.5 35s59.333 12.5 84 12.5c36 0 63.5 -10 82.5 -30s28.5 -47 28.5 -81c0 -21.333 -4.66699 -46 -14 -74s-22.166 -57 -38.499 -87s-35.833 -59.833 -58.5 -89.5s-47 -57.167 -73 -82.5l-53 58
c104 115.333 156 206.666 156 273.999c0 46 -27.333 69 -82 69c-26.667 0 -57.5 -6 -92.5 -18s-70.833 -28.167 -107.5 -48.5s-72.667 -43.666 -108 -69.999s-67 -54.166 -95 -83.499s-50.5 -59.166 -67.5 -89.499s-25.5 -59.166 -25.5 -86.499
c0 -19.333 6.16699 -37.666 18.5 -54.999s27.5 -29.666 45.5 -36.999c9.33301 -3.33301 22 -6 38 -8s35.667 -3.66699 59 -5h17l-13 -64c-100.667 -42.667 -201.667 -101.667 -303 -177c-105.333 -78 -177.666 -153 -216.999 -225l-33 -154
c2.66699 -16.667 7.66699 -32 15 -46c11.333 -22.667 27 -42.167 47 -58.5s43.833 -29 71.5 -38s57.834 -13.5 90.501 -13.5c35.333 0 72.666 3.83301 111.999 11.5s82.166 19.5 128.499 35.5s96.833 36.5 151.5 61.5s114.334 54.833 179.001 89.5zM748.995 476.996h329
l142 680c3.33301 14 5.66602 24.333 6.99902 31l4 16c1.33301 4 2 7.33301 2 10v13c0 16.667 -7.33301 25 -22 25c-10.667 0 -21.5 -5 -32.5 -15s-25.5 -29.333 -43.5 -58s-41 -69.167 -69 -121.5l-109 -205.5c-11.333 -21.333 -20.5 -37.833 -27.5 -49.5
s-10.833 -19.167 -11.5 -22.5l-96 -175c-39.333 -72 -63.666 -114.667 -72.999 -128zM1071 442.996h-349.001l4 -3c58 -44 109 -90.667 153 -140c21.333 -24 42.333 -50.167 63 -78.5s41.334 -59.5 62.001 -93.5z" />
    <glyph glyph-name="Ccedilla" unicode="&#xc7;" horiz-adv-x="986" 
d="M379 -25l-35.9951 -67.001c10 2.66699 18 4 24 4c17.333 0 31.166 -5.83301 41.499 -17.5s15.5 -26.167 15.5 -43.5c0 -27.333 -9.83301 -49.833 -29.5 -67.5s-44.834 -26.5 -75.501 -26.5c-27.333 0 -51 7 -71 21l10 19c11.333 -11.333 26.333 -17 45 -17
s35.667 7.33301 51 22s23 31 23 49c0 20.667 -9.66699 31 -29 31c-7.33301 0 -15.666 -2.33301 -24.999 -7l-19 9l51 93c-100.667 12 -180.5 55.5 -239.5 130.5s-88.5 170.833 -88.5 287.5c0 61.333 9 125.333 27 192s44.833 134.167 80.5 202.5s77.834 134.5 126.501 198.5
c51.333 68 108.333 128.833 171 182.5s125.5 95.167 188.5 124.5s119.5 44 169.5 44c47.333 0 85.166 -13.5 113.499 -40.5s42.5 -63.5 42.5 -109.5c0 -51.333 -17 -104.833 -51 -160.5s-79.333 -105.334 -136 -149.001s-117.334 -74.5 -182.001 -92.5l-28 76
c62 18 120.667 45.667 176 83s98.833 78.666 130.5 123.999s47.5 90 47.5 134c0 32.667 -10.5 58.334 -31.5 77.001s-49.167 28 -84.5 28c-42 0 -88 -11 -138 -33s-99.5 -52.667 -148.5 -92s-95.833 -86.666 -140.5 -141.999c-48.667 -60.667 -89.334 -124 -122.001 -190
s-57.334 -133.167 -74.001 -201.5s-25 -139.166 -25 -212.499c0 -124.667 28.667 -223.5 86 -296.5s135.666 -109.5 234.999 -109.5c64 0 126.167 14.333 186.5 43s129.5 76.667 207.5 144l16 13l12 -22c-159.333 -157.333 -319 -236 -479 -236
c-8.66699 0 -16.667 0.333008 -24 1z" />
    <glyph glyph-name="Egrave" unicode="&#xc8;" horiz-adv-x="1025" 
d="M855 218l-23.999 -119.002c-84.667 -40 -167.834 -70.667 -249.501 -92s-155.834 -32 -222.501 -32c-73.333 0 -137 10.5 -191 31.5s-95.5 51.5 -124.5 91.5s-43.5 87 -43.5 141c0 90 40.667 179.5 122 268.5s197.333 171.167 348 246.5c-72 12 -108 49.333 -108 112
c0 89.333 77.333 189.666 232 300.999c48 34.667 96.833 65.167 146.5 91.5s96.334 46.5 140.001 60.5s82.167 21 115.5 21c34.667 0 61.834 -9.5 81.501 -28.5s29.5 -44.833 29.5 -77.5c0 -30 -7.5 -64.333 -22.5 -103s-36.833 -79 -65.5 -121s-60.667 -80 -96 -114l-53 58
c104 114.667 156 206 156 274c0 46 -27.333 69 -82 69c-34.667 0 -77.334 -10.333 -128.001 -31s-101 -48.334 -151 -83.001c-66.667 -45.333 -119.5 -93.666 -158.5 -144.999s-58.5 -97 -58.5 -137c0 -19.333 6.16699 -37.666 18.5 -54.999s27.5 -29.666 45.5 -36.999
c18.667 -6.66699 51 -11 97 -13h17l-13 -64c-100.667 -43.333 -201.667 -102.333 -303 -177c-168 -124 -252 -240.667 -252 -350c0 -54.667 21.167 -99.167 63.5 -133.5s96.5 -51.5 162.5 -51.5c46 0 96.833 7 152.5 21s117.5 35.333 185.5 64s145.667 66.334 233 113.001z
M921.001 1564l59 -167l-19 -5l-99 155z" />
    <glyph glyph-name="Eacute" unicode="&#xc9;" horiz-adv-x="1025" 
d="M855 218l-23.999 -119.002c-84.667 -40 -167.834 -70.667 -249.501 -92s-155.834 -32 -222.501 -32c-73.333 0 -137 10.5 -191 31.5s-95.5 51.5 -124.5 91.5s-43.5 87 -43.5 141c0 90 40.667 179.5 122 268.5s197.333 171.167 348 246.5c-72 12 -108 49.333 -108 112
c0 89.333 77.333 189.666 232 300.999c48 34.667 96.833 65.167 146.5 91.5s96.334 46.5 140.001 60.5s82.167 21 115.5 21c34.667 0 61.834 -9.5 81.501 -28.5s29.5 -44.833 29.5 -77.5c0 -30 -7.5 -64.333 -22.5 -103s-36.833 -79 -65.5 -121s-60.667 -80 -96 -114l-53 58
c104 114.667 156 206 156 274c0 46 -27.333 69 -82 69c-34.667 0 -77.334 -10.333 -128.001 -31s-101 -48.334 -151 -83.001c-66.667 -45.333 -119.5 -93.666 -158.5 -144.999s-58.5 -97 -58.5 -137c0 -19.333 6.16699 -37.666 18.5 -54.999s27.5 -29.666 45.5 -36.999
c18.667 -6.66699 51 -11 97 -13h17l-13 -64c-100.667 -43.333 -201.667 -102.333 -303 -177c-168 -124 -252 -240.667 -252 -350c0 -54.667 21.167 -99.167 63.5 -133.5s96.5 -51.5 162.5 -51.5c46 0 96.833 7 152.5 21s117.5 35.333 185.5 64s145.667 66.334 233 113.001z
M1097 1565l-209 -154l-20 7l164 165z" />
    <glyph glyph-name="Ecircumflex" unicode="&#xca;" horiz-adv-x="1025" 
d="M855 218l-23.999 -119.002c-84.667 -40 -167.834 -70.667 -249.501 -92s-155.834 -32 -222.501 -32c-73.333 0 -137 10.5 -191 31.5s-95.5 51.5 -124.5 91.5s-43.5 87 -43.5 141c0 90 40.667 179.5 122 268.5s197.333 171.167 348 246.5c-72 12 -108 49.333 -108 112
c0 89.333 77.333 189.666 232 300.999c48 34.667 96.833 65.167 146.5 91.5s96.334 46.5 140.001 60.5s82.167 21 115.5 21c34.667 0 61.834 -9.5 81.501 -28.5s29.5 -44.833 29.5 -77.5c0 -30 -7.5 -64.333 -22.5 -103s-36.833 -79 -65.5 -121s-60.667 -80 -96 -114l-53 58
c104 114.667 156 206 156 274c0 46 -27.333 69 -82 69c-34.667 0 -77.334 -10.333 -128.001 -31s-101 -48.334 -151 -83.001c-66.667 -45.333 -119.5 -93.666 -158.5 -144.999s-58.5 -97 -58.5 -137c0 -19.333 6.16699 -37.666 18.5 -54.999s27.5 -29.666 45.5 -36.999
c18.667 -6.66699 51 -11 97 -13h17l-13 -64c-100.667 -43.333 -201.667 -102.333 -303 -177c-168 -124 -252 -240.667 -252 -350c0 -54.667 21.167 -99.167 63.5 -133.5s96.5 -51.5 162.5 -51.5c46 0 96.833 7 152.5 21s117.5 35.333 185.5 64s145.667 66.334 233 113.001z
M971.001 1478l-135 -47l-7 15l154 98l115 -98l-11 -15z" />
    <glyph glyph-name="Edieresis" unicode="&#xcb;" horiz-adv-x="1025" 
d="M855 218l-23.999 -119.002c-84.667 -40 -167.834 -70.667 -249.501 -92s-155.834 -32 -222.501 -32c-73.333 0 -137 10.5 -191 31.5s-95.5 51.5 -124.5 91.5s-43.5 87 -43.5 141c0 90 40.667 179.5 122 268.5s197.333 171.167 348 246.5c-72 12 -108 49.333 -108 112
c0 89.333 77.333 189.666 232 300.999c48 34.667 96.833 65.167 146.5 91.5s96.334 46.5 140.001 60.5s82.167 21 115.5 21c34.667 0 61.834 -9.5 81.501 -28.5s29.5 -44.833 29.5 -77.5c0 -30 -7.5 -64.333 -22.5 -103s-36.833 -79 -65.5 -121s-60.667 -80 -96 -114l-53 58
c104 114.667 156 206 156 274c0 46 -27.333 69 -82 69c-34.667 0 -77.334 -10.333 -128.001 -31s-101 -48.334 -151 -83.001c-66.667 -45.333 -119.5 -93.666 -158.5 -144.999s-58.5 -97 -58.5 -137c0 -19.333 6.16699 -37.666 18.5 -54.999s27.5 -29.666 45.5 -36.999
c18.667 -6.66699 51 -11 97 -13h17l-13 -64c-100.667 -43.333 -201.667 -102.333 -303 -177c-168 -124 -252 -240.667 -252 -350c0 -54.667 21.167 -99.167 63.5 -133.5s96.5 -51.5 162.5 -51.5c46 0 96.833 7 152.5 21s117.5 35.333 185.5 64s145.667 66.334 233 113.001z
M866.001 1526c9.33301 0 17.5 -2 24.5 -6s12.5 -9.5 16.5 -16.5s6 -15.167 6 -24.5c0 -12.667 -4.66699 -23.667 -14 -33s-20.333 -14 -33 -14c-12 0 -22.667 4.66699 -32 14s-14 20.333 -14 33c0 14 4.33301 25.333 13 34s19.667 13 33 13zM1023 1526
c8.66699 0 16.5 -2 23.5 -6s12.5 -9.5 16.5 -16.5s6 -15.167 6 -24.5c0 -12.667 -4.66699 -23.667 -14 -33s-20 -14 -32 -14c-12.667 0 -23.667 4.66699 -33 14s-14 20.333 -14 33c0 14 4.33301 25.333 13 34s20 13 34 13z" />
    <glyph glyph-name="Igrave" unicode="&#xcc;" horiz-adv-x="295" 
d="M348 1409l-263 -1153l-9 -39c-8.66699 -36.667 -13 -67.667 -13 -93c0 -20.667 3.83301 -37.5 11.5 -50.5s17.167 -19.5 28.5 -19.5c20.667 0 53.667 24.667 99 74l16 -14l-10 -11c-38 -44.667 -66 -74.834 -84 -90.501s-34.667 -23.5 -50 -23.5
c-20 0 -37.5 11.167 -52.5 33.5s-22.5 47.833 -22.5 76.5c0 20 4.33301 51.667 13 95l231 1164zM317 1641l59 -167l-19 -5l-99 155z" />
    <glyph glyph-name="Iacute" unicode="&#xcd;" horiz-adv-x="295" 
d="M348 1409l-263 -1153l-9 -39c-8.66699 -36.667 -13 -67.667 -13 -93c0 -20.667 3.83301 -37.5 11.5 -50.5s17.167 -19.5 28.5 -19.5c20.667 0 53.667 24.667 99 74l16 -14l-10 -11c-38 -44.667 -66 -74.834 -84 -90.501s-34.667 -23.5 -50 -23.5
c-20 0 -37.5 11.167 -52.5 33.5s-22.5 47.833 -22.5 76.5c0 20 4.33301 51.667 13 95l231 1164zM500 1587l-209 -154l-20 7l164 165z" />
    <glyph glyph-name="Icircumflex" unicode="&#xce;" horiz-adv-x="295" 
d="M348 1409l-263 -1153l-9 -39c-8.66699 -36.667 -13 -67.667 -13 -93c0 -20.667 3.83301 -37.5 11.5 -50.5s17.167 -19.5 28.5 -19.5c20.667 0 53.667 24.667 99 74l16 -14l-10 -11c-38 -44.667 -66 -74.834 -84 -90.501s-34.667 -23.5 -50 -23.5
c-20 0 -37.5 11.167 -52.5 33.5s-22.5 47.833 -22.5 76.5c0 20 4.33301 51.667 13 95l231 1164zM326 1525l-135 -47l-7 15l154 98l115 -98l-11 -15z" />
    <glyph glyph-name="Idieresis" unicode="&#xcf;" horiz-adv-x="295" 
d="M348 1409l-263 -1153l-9 -39c-8.66699 -36.667 -13 -67.667 -13 -93c0 -20.667 3.83301 -37.5 11.5 -50.5s17.167 -19.5 28.5 -19.5c20.667 0 53.667 24.667 99 74l16 -14l-10 -11c-38 -44.667 -66 -74.834 -84 -90.501s-34.667 -23.5 -50 -23.5
c-20 0 -37.5 11.167 -52.5 33.5s-22.5 47.833 -22.5 76.5c0 20 4.33301 51.667 13 95l231 1164zM237 1593c9.33301 0 17.5 -2 24.5 -6s12.5 -9.5 16.5 -16.5s6 -15.167 6 -24.5c0 -12.667 -4.66699 -23.667 -14 -33s-20.333 -14 -33 -14c-12 0 -22.667 4.66699 -32 14
s-14 20.333 -14 33c0 14 4.33301 25.333 13 34s19.667 13 33 13zM394 1593c8.66699 0 16.5 -2 23.5 -6s12.5 -9.5 16.5 -16.5s6 -15.167 6 -24.5c0 -12.667 -4.66699 -23.667 -14 -33s-20 -14 -32 -14c-12.667 0 -23.667 4.66699 -33 14s-14 20.333 -14 33
c0 14 4.33301 25.333 13 34s20 13 34 13z" />
    <glyph glyph-name="Eth" unicode="&#xd0;" horiz-adv-x="1451" 
d="M891 1289l109.003 48c-8 -57.333 -16.333 -104.333 -25 -141l-20 -85l-7 -31c59.333 -44 111.666 -91 156.999 -141s84.666 -103 117.999 -159s58.166 -111.333 74.499 -166s24.5 -108.667 24.5 -162c0 -69.333 -12.333 -133 -37 -191s-60.167 -108.667 -106.5 -152
s-101 -77 -164 -101s-130.5 -36 -202.5 -36c-111.333 0 -232 22.667 -362 68l-25 9c-49.333 -28 -97 -48.667 -143 -62s-93 -20 -141 -20c-50 0 -90.5 9.5 -121.5 28.5s-46.5 43.833 -46.5 74.5c0 24 8.5 44.833 25.5 62.5s40.833 31.5 71.5 41.5s66.334 15 107.001 15
c57.333 0 150 -17.667 278 -53l23 -7c42.667 41.333 84 99 124 173c26.667 49.333 53.334 109.333 80.001 180h-194l9 45h202c26 72.667 52 155.667 78 249c30 103.333 53 193.333 69 270c-48.667 38 -103.334 72.333 -164.001 103s-120.667 54.667 -180 72
s-112.333 26 -159 26c-55.333 0 -99.5 -12.833 -132.5 -38.5s-49.5 -60.167 -49.5 -103.5c0 -27.333 8.5 -54.833 25.5 -82.5s40.833 -53.834 71.5 -78.501s69 -47.334 115 -68.001l-62 -61c-58.667 30.667 -104.5 69.667 -137.5 117s-49.5 97.333 -49.5 150
c0 44 11.667 82.833 35 116.5s56 59.834 98 78.501s89.333 28 142 28c135.333 0 290.666 -55 465.999 -165c14 50.667 22.667 100.334 26 149.001zM941.003 527l-9 -44.999h-169c-71.333 -164.667 -153 -287 -245 -367l27 -9c83.333 -25.333 152 -43.333 206 -54
s105.667 -16 155 -16c69.333 0 132.166 16.667 188.499 50s101 79.666 134 138.999s49.5 124.333 49.5 195c0 184 -117.333 373.333 -352 568c-6 -28 -20.667 -82.667 -44 -164c-38 -128 -70 -224 -96 -288c-1.33301 -3.33301 -2.66602 -6.33301 -3.99902 -9h159z
M389.003 62.001c-119.333 36.667 -213.668 55 -283.001 55c-29.333 0 -52.166 -4.83301 -68.499 -14.5s-24.5 -23.167 -24.5 -40.5c0 -18.667 13 -34.667 39 -48s58.333 -20 97 -20c78 0 158 22.667 240 68z" />
    <glyph glyph-name="Ntilde" unicode="&#xd1;" horiz-adv-x="1051" 
d="M860 1419c-46 -44.667 -83.668 -67 -113.001 -67c-13.333 0 -26.666 5.33301 -39.999 16l-23 18c-14.667 12 -27 18 -37 18c-18 0 -42 -14.667 -72 -44l-14 13c18.667 20.667 38.167 37.167 58.5 49.5s37.833 18.5 52.5 18.5c14 0 35.333 -10.667 64 -32
c17.333 -12 30.333 -18 39 -18c20 0 43.667 14.333 71 43zM781.999 0h-96.002l229 1040c9.33301 41.333 14 72 14 92c0 22.667 -5.5 40.667 -16.5 54s-26.167 20 -45.5 20c-59.333 0 -129.666 -66 -210.999 -198c-32 -51.333 -66.167 -112.666 -102.5 -183.999
s-68.833 -138.833 -97.5 -202.5s-57.667 -133.834 -87 -210.501s-55.333 -151 -78 -223l-53 -169l-6 -19h-85l6 20c44 152 93.667 363.667 149 635c21.333 102 40 198 56 288c22 120.667 33 204.667 33 252c0 24.667 -2.66699 46.834 -8 66.501s-12.833 34.5 -22.5 44.5
s-21.167 15 -34.5 15c-54 0 -99.333 -66.667 -136 -200c-28.667 -102 -47.667 -194.333 -57 -277l-78 54c13.333 83.333 34 160.166 62 230.499s59.667 125 95 164s71 58.5 107 58.5c42.667 0 76.167 -23 100.5 -69s36.5 -109.667 36.5 -191
c0 -66.667 -6.33301 -140 -19 -220c-8.66699 -54.667 -18 -109 -28 -163l-51 -246l9 22c58 141.333 113.5 263.666 166.5 366.999s102.5 187 148.5 251c82.667 112.667 159.334 169 230.001 169c32.667 0 59.5 -11.5 80.5 -34.5s31.5 -52.833 31.5 -89.5
c0 -31.333 -5.66699 -72.666 -17 -123.999z" />
    <glyph glyph-name="Ograve" unicode="&#xd2;" horiz-adv-x="1224" 
d="M1183 858c0 -92 -15.335 -184.834 -46.002 -278.501s-73.667 -181.5 -129 -263.5c-47.333 -70 -100.833 -130.167 -160.5 -180.5s-122.834 -88.166 -189.501 -113.499s-135.334 -38 -206.001 -38c-62 0 -119.5 11 -172.5 33s-98.333 53.5 -136 94.5
s-66.5 90.667 -86.5 149s-30 121.833 -30 190.5c0 111.333 20.333 220.666 61 327.999s95.334 202.833 164.001 286.5s146.834 149.834 234.501 198.501s177.167 73 268.5 73c84.667 0 159.334 -20 224.001 -60s114.834 -96.333 150.501 -169s53.5 -156 53.5 -250z
M1068 899.999c0 62 -7.66504 117.834 -22.998 167.501s-37.333 91.667 -66 126s-63.334 60.666 -104.001 78.999s-87.667 27.5 -141 27.5c-55.333 0 -110.166 -12.167 -164.499 -36.5s-105.333 -60 -153 -107s-90.5 -104.167 -128.5 -171.5
c-42.667 -74.667 -77.667 -164.167 -105 -268.5s-41 -200.833 -41 -289.5c0 -83.333 13.5 -155.666 40.5 -216.999s65.833 -108.666 116.5 -141.999s109 -50 175 -50c62 0 123.5 15.667 184.5 47s117.167 75.666 168.5 132.999s94.666 124 129.999 200
c31.333 67.333 57.666 148.166 78.999 242.499s32 180.833 32 259.5zM751 1561l59 -167l-19 -5l-99 155z" />
    <glyph glyph-name="Oacute" unicode="&#xd3;" horiz-adv-x="1224" 
d="M1183 858c0 -92 -15.335 -184.834 -46.002 -278.501s-73.667 -181.5 -129 -263.5c-47.333 -70 -100.833 -130.167 -160.5 -180.5s-122.834 -88.166 -189.501 -113.499s-135.334 -38 -206.001 -38c-62 0 -119.5 11 -172.5 33s-98.333 53.5 -136 94.5
s-66.5 90.667 -86.5 149s-30 121.833 -30 190.5c0 111.333 20.333 220.666 61 327.999s95.334 202.833 164.001 286.5s146.834 149.834 234.501 198.501s177.167 73 268.5 73c84.667 0 159.334 -20 224.001 -60s114.834 -96.333 150.501 -169s53.5 -156 53.5 -250z
M1068 899.999c0 62 -7.66504 117.834 -22.998 167.501s-37.333 91.667 -66 126s-63.334 60.666 -104.001 78.999s-87.667 27.5 -141 27.5c-55.333 0 -110.166 -12.167 -164.499 -36.5s-105.333 -60 -153 -107s-90.5 -104.167 -128.5 -171.5
c-42.667 -74.667 -77.667 -164.167 -105 -268.5s-41 -200.833 -41 -289.5c0 -83.333 13.5 -155.666 40.5 -216.999s65.833 -108.666 116.5 -141.999s109 -50 175 -50c62 0 123.5 15.667 184.5 47s117.167 75.666 168.5 132.999s94.666 124 129.999 200
c31.333 67.333 57.666 148.166 78.999 242.499s32 180.833 32 259.5zM935 1565l-209 -154l-20 7l164 165z" />
    <glyph glyph-name="Ocircumflex" unicode="&#xd4;" horiz-adv-x="1224" 
d="M1183 858c0 -92 -15.335 -184.834 -46.002 -278.501s-73.667 -181.5 -129 -263.5c-47.333 -70 -100.833 -130.167 -160.5 -180.5s-122.834 -88.166 -189.501 -113.499s-135.334 -38 -206.001 -38c-62 0 -119.5 11 -172.5 33s-98.333 53.5 -136 94.5
s-66.5 90.667 -86.5 149s-30 121.833 -30 190.5c0 111.333 20.333 220.666 61 327.999s95.334 202.833 164.001 286.5s146.834 149.834 234.501 198.501s177.167 73 268.5 73c84.667 0 159.334 -20 224.001 -60s114.834 -96.333 150.501 -169s53.5 -156 53.5 -250z
M1068 899.999c0 62 -7.66504 117.834 -22.998 167.501s-37.333 91.667 -66 126s-63.334 60.666 -104.001 78.999s-87.667 27.5 -141 27.5c-55.333 0 -110.166 -12.167 -164.499 -36.5s-105.333 -60 -153 -107s-90.5 -104.167 -128.5 -171.5
c-42.667 -74.667 -77.667 -164.167 -105 -268.5s-41 -200.833 -41 -289.5c0 -83.333 13.5 -155.666 40.5 -216.999s65.833 -108.666 116.5 -141.999s109 -50 175 -50c62 0 123.5 15.667 184.5 47s117.167 75.666 168.5 132.999s94.666 124 129.999 200
c31.333 67.333 57.666 148.166 78.999 242.499s32 180.833 32 259.5zM832 1509l-135 -47l-7 15l154 98l115 -98l-11 -15z" />
    <glyph glyph-name="Otilde" unicode="&#xd5;" horiz-adv-x="1225" 
d="M1040 1492c-46 -44.667 -83.668 -67 -113.001 -67c-13.333 0 -26.666 5.33301 -39.999 16l-23 18c-14.667 12 -27 18 -37 18c-18 0 -42 -14.667 -72 -44l-14 13c18.667 20.667 38.167 37.167 58.5 49.5s37.833 18.5 52.5 18.5c14 0 35.333 -10.667 64 -32
c17.333 -12 30.333 -18 39 -18c20 0 43.667 14.333 71 43zM1183 858c0 -92 -15.335 -184.834 -46.002 -278.501s-73.667 -181.5 -129 -263.5c-47.333 -70 -100.833 -130.167 -160.5 -180.5s-122.834 -88.166 -189.501 -113.499s-135.334 -38 -206.001 -38
c-62 0 -119.5 11 -172.5 33s-98.333 53.5 -136 94.5s-66.5 90.667 -86.5 149s-30 121.833 -30 190.5c0 111.333 20.333 220.666 61 327.999s95.334 202.833 164.001 286.5s146.834 149.834 234.501 198.501s177.167 73 268.5 73c84.667 0 159.334 -20 224.001 -60
s114.834 -96.333 150.501 -169s53.5 -156 53.5 -250zM1068 899.999c0 62 -7.66504 117.834 -22.998 167.501s-37.333 91.667 -66 126s-63.334 60.666 -104.001 78.999s-87.667 27.5 -141 27.5c-55.333 0 -110.166 -12.167 -164.499 -36.5s-105.333 -60 -153 -107
s-90.5 -104.167 -128.5 -171.5c-42.667 -74.667 -77.667 -164.167 -105 -268.5s-41 -200.833 -41 -289.5c0 -83.333 13.5 -155.666 40.5 -216.999s65.833 -108.666 116.5 -141.999s109 -50 175 -50c62 0 123.5 15.667 184.5 47s117.167 75.666 168.5 132.999
s94.666 124 129.999 200c31.333 67.333 57.666 148.166 78.999 242.499s32 180.833 32 259.5z" />
    <glyph glyph-name="Odieresis" unicode="&#xd6;" horiz-adv-x="1224" 
d="M1183 858c0 -92 -15.335 -184.834 -46.002 -278.501s-73.667 -181.5 -129 -263.5c-47.333 -70 -100.833 -130.167 -160.5 -180.5s-122.834 -88.166 -189.501 -113.499s-135.334 -38 -206.001 -38c-62 0 -119.5 11 -172.5 33s-98.333 53.5 -136 94.5
s-66.5 90.667 -86.5 149s-30 121.833 -30 190.5c0 111.333 20.333 220.666 61 327.999s95.334 202.833 164.001 286.5s146.834 149.834 234.501 198.501s177.167 73 268.5 73c84.667 0 159.334 -20 224.001 -60s114.834 -96.333 150.501 -169s53.5 -156 53.5 -250z
M1068 899.999c0 62 -7.66504 117.834 -22.998 167.501s-37.333 91.667 -66 126s-63.334 60.666 -104.001 78.999s-87.667 27.5 -141 27.5c-55.333 0 -110.166 -12.167 -164.499 -36.5s-105.333 -60 -153 -107s-90.5 -104.167 -128.5 -171.5
c-42.667 -74.667 -77.667 -164.167 -105 -268.5s-41 -200.833 -41 -289.5c0 -83.333 13.5 -155.666 40.5 -216.999s65.833 -108.666 116.5 -141.999s109 -50 175 -50c62 0 123.5 15.667 184.5 47s117.167 75.666 168.5 132.999s94.666 124 129.999 200
c31.333 67.333 57.666 148.166 78.999 242.499s32 180.833 32 259.5zM718 1542c9.33301 0 17.5 -2 24.5 -6s12.5 -9.5 16.5 -16.5s6 -15.167 6 -24.5c0 -12.667 -4.66699 -23.667 -14 -33s-20.333 -14 -33 -14c-12 0 -22.667 4.66699 -32 14s-14 20.333 -14 33
c0 14 4.33301 25.333 13 34s19.667 13 33 13zM875 1542c8.66699 0 16.5 -2 23.5 -6s12.5 -9.5 16.5 -16.5s6 -15.167 6 -24.5c0 -12.667 -4.66699 -23.667 -14 -33s-20 -14 -32 -14c-12.667 0 -23.667 4.66699 -33 14s-14 20.333 -14 33c0 14 4.33301 25.333 13 34
s20 13 34 13z" />
    <glyph glyph-name="multiply" unicode="&#xd7;" horiz-adv-x="621" 
d="M178 571l120 -120l120 120l31 -31l-120 -120l120 -120l-31 -31l-120 120l-120 -120l-31 31l120 120l-120 120z" />
    <glyph glyph-name="Oslash" unicode="&#xd8;" horiz-adv-x="1225" 
d="M1183 858c0 -92 -15.335 -184.834 -46.002 -278.501s-73.667 -181.5 -129 -263.5c-47.333 -70 -100.833 -130.167 -160.5 -180.5s-122.834 -88.166 -189.501 -113.499s-135.334 -38 -206.001 -38c-62 0 -119.5 11 -172.5 33s-98.333 53.5 -136 94.5
s-66.5 90.667 -86.5 149s-30 121.833 -30 190.5c0 111.333 20.333 220.666 61 327.999s95.334 202.833 164.001 286.5s146.834 149.834 234.501 198.501s177.167 73 268.5 73c84.667 0 159.334 -20 224.001 -60s114.834 -96.333 150.501 -169s53.5 -156 53.5 -250z
M1068 899.999c0 62 -7.66504 117.834 -22.998 167.501s-37.333 91.667 -66 126s-63.334 60.666 -104.001 78.999s-87.667 27.5 -141 27.5c-55.333 0 -110.166 -12.167 -164.499 -36.5s-105.333 -60 -153 -107s-90.5 -104.167 -128.5 -171.5
c-42.667 -74.667 -77.667 -164.167 -105 -268.5s-41 -200.833 -41 -289.5c0 -83.333 13.5 -155.666 40.5 -216.999s65.833 -108.666 116.5 -141.999s109 -50 175 -50c62 0 123.5 15.667 184.5 47s117.167 75.666 168.5 132.999s94.666 124 129.999 200
c31.333 67.333 57.666 148.166 78.999 242.499s32 180.833 32 259.5zM1106 1427l-845 -1590l-25 14l844 1589z" />
    <glyph glyph-name="Ugrave" unicode="&#xd9;" horiz-adv-x="1043" 
d="M789 0l-95.998 0.00292969l4 24c12 84 26 167.833 42 251.5s34.333 166.167 55 247.5l92 365c-4 -8 -7.16699 -14.833 -9.5 -20.5s-3.83301 -9.16699 -4.5 -10.5l-37 -93c-24.667 -60 -57.334 -132.833 -98.001 -218.5s-76.334 -156.834 -107.001 -213.501
c-128.667 -234.667 -245 -352 -349 -352c-34 0 -61.167 11.5 -81.5 34.5s-30.5 53.5 -30.5 91.5c0 23.333 7.33301 67 22 131l160 703l26 115c13.333 62.667 20 111.667 20 147c0 68.667 -20 103 -60 103c-46.667 0 -85.334 -44.333 -116.001 -133
c-36 -102 -63.333 -214.667 -82 -338l-78 54c22 133.333 57.667 240.666 107 321.999s103.333 122 162 122c40.667 0 72.334 -20.167 95.001 -60.5s34 -96.5 34 -168.5c0 -72.667 -16.333 -180 -49 -322l-123 -537l-10 -46c-8 -31.333 -12 -58.333 -12 -81
c0 -22 5.83301 -39.833 17.5 -53.5s26.167 -20.5 43.5 -20.5c30.667 0 65 18 103 54s79.333 90.167 124 162.5s96.667 169.5 156 291.5c74 153.333 140.667 318.333 200 495c34 99.333 57.667 177.666 71 234.999l87 36l-197 -871c-34 -149.333 -61 -298 -81 -446z
M696.002 1561l59 -167l-19 -5l-99 155z" />
    <glyph glyph-name="Uacute" unicode="&#xda;" horiz-adv-x="1043" 
d="M789 0l-95.998 0.00292969l4 24c12 84 26 167.833 42 251.5s34.333 166.167 55 247.5l92 365c-4 -8 -7.16699 -14.833 -9.5 -20.5s-3.83301 -9.16699 -4.5 -10.5l-37 -93c-24.667 -60 -57.334 -132.833 -98.001 -218.5s-76.334 -156.834 -107.001 -213.501
c-128.667 -234.667 -245 -352 -349 -352c-34 0 -61.167 11.5 -81.5 34.5s-30.5 53.5 -30.5 91.5c0 23.333 7.33301 67 22 131l160 703l26 115c13.333 62.667 20 111.667 20 147c0 68.667 -20 103 -60 103c-46.667 0 -85.334 -44.333 -116.001 -133
c-36 -102 -63.333 -214.667 -82 -338l-78 54c22 133.333 57.667 240.666 107 321.999s103.333 122 162 122c40.667 0 72.334 -20.167 95.001 -60.5s34 -96.5 34 -168.5c0 -72.667 -16.333 -180 -49 -322l-123 -537l-10 -46c-8 -31.333 -12 -58.333 -12 -81
c0 -22 5.83301 -39.833 17.5 -53.5s26.167 -20.5 43.5 -20.5c30.667 0 65 18 103 54s79.333 90.167 124 162.5s96.667 169.5 156 291.5c74 153.333 140.667 318.333 200 495c34 99.333 57.667 177.666 71 234.999l87 36l-197 -871c-34 -149.333 -61 -298 -81 -446z
M932.002 1565l-209 -154l-20 7l164 165z" />
    <glyph glyph-name="Ucircumflex" unicode="&#xdb;" horiz-adv-x="1043" 
d="M789 0l-95.998 0.00292969l4 24c12 84 26 167.833 42 251.5s34.333 166.167 55 247.5l92 365c-4 -8 -7.16699 -14.833 -9.5 -20.5s-3.83301 -9.16699 -4.5 -10.5l-37 -93c-24.667 -60 -57.334 -132.833 -98.001 -218.5s-76.334 -156.834 -107.001 -213.501
c-128.667 -234.667 -245 -352 -349 -352c-34 0 -61.167 11.5 -81.5 34.5s-30.5 53.5 -30.5 91.5c0 23.333 7.33301 67 22 131l160 703l26 115c13.333 62.667 20 111.667 20 147c0 68.667 -20 103 -60 103c-46.667 0 -85.334 -44.333 -116.001 -133
c-36 -102 -63.333 -214.667 -82 -338l-78 54c22 133.333 57.667 240.666 107 321.999s103.333 122 162 122c40.667 0 72.334 -20.167 95.001 -60.5s34 -96.5 34 -168.5c0 -72.667 -16.333 -180 -49 -322l-123 -537l-10 -46c-8 -31.333 -12 -58.333 -12 -81
c0 -22 5.83301 -39.833 17.5 -53.5s26.167 -20.5 43.5 -20.5c30.667 0 65 18 103 54s79.333 90.167 124 162.5s96.667 169.5 156 291.5c74 153.333 140.667 318.333 200 495c34 99.333 57.667 177.666 71 234.999l87 36l-197 -871c-34 -149.333 -61 -298 -81 -446z
M746.002 1478l-135 -47l-7 15l154 98l115 -98l-11 -15z" />
    <glyph glyph-name="Udieresis" unicode="&#xdc;" horiz-adv-x="1043" 
d="M789 0l-95.998 0.00292969l4 24c12 84 26 167.833 42 251.5s34.333 166.167 55 247.5l92 365c-4 -8 -7.16699 -14.833 -9.5 -20.5s-3.83301 -9.16699 -4.5 -10.5l-37 -93c-24.667 -60 -57.334 -132.833 -98.001 -218.5s-76.334 -156.834 -107.001 -213.501
c-128.667 -234.667 -245 -352 -349 -352c-34 0 -61.167 11.5 -81.5 34.5s-30.5 53.5 -30.5 91.5c0 23.333 7.33301 67 22 131l160 703l26 115c13.333 62.667 20 111.667 20 147c0 68.667 -20 103 -60 103c-46.667 0 -85.334 -44.333 -116.001 -133
c-36 -102 -63.333 -214.667 -82 -338l-78 54c22 133.333 57.667 240.666 107 321.999s103.333 122 162 122c40.667 0 72.334 -20.167 95.001 -60.5s34 -96.5 34 -168.5c0 -72.667 -16.333 -180 -49 -322l-123 -537l-10 -46c-8 -31.333 -12 -58.333 -12 -81
c0 -22 5.83301 -39.833 17.5 -53.5s26.167 -20.5 43.5 -20.5c30.667 0 65 18 103 54s79.333 90.167 124 162.5s96.667 169.5 156 291.5c74 153.333 140.667 318.333 200 495c34 99.333 57.667 177.666 71 234.999l87 36l-197 -871c-34 -149.333 -61 -298 -81 -446z
M622.002 1497c9.33301 0 17.5 -2 24.5 -6s12.5 -9.5 16.5 -16.5s6 -15.167 6 -24.5c0 -12.667 -4.66699 -23.667 -14 -33s-20.333 -14 -33 -14c-12 0 -22.667 4.66699 -32 14s-14 20.333 -14 33c0 14 4.33301 25.333 13 34s19.667 13 33 13zM779.002 1497
c8.66699 0 16.5 -2 23.5 -6s12.5 -9.5 16.5 -16.5s6 -15.167 6 -24.5c0 -12.667 -4.66699 -23.667 -14 -33s-20 -14 -32 -14c-12.667 0 -23.667 4.66699 -33 14s-14 20.333 -14 33c0 14 4.33301 25.333 13 34s20 13 34 13z" />
    <glyph glyph-name="Yacute" unicode="&#xdd;" horiz-adv-x="1040" 
d="M41 -18l34 77.0039c65.333 -23.333 131.333 -35 198 -35c57.333 0 110 8.66699 158 26s91.333 43.166 130 77.499s76.334 80.5 113.001 138.5c50 78.667 95.667 177.667 137 297c10.667 31.333 20 60.333 28 87s27.333 95.667 58 207l8 28l-14 -27
c-29.333 -58.667 -58.833 -110.5 -88.5 -155.5s-66.167 -93.833 -109.5 -146.5c-31.333 -36.667 -58.333 -64.834 -81 -84.501s-44.834 -34.5 -66.501 -44.5s-42.5 -15 -62.5 -15c-49.333 0 -84 24.333 -104 73c-8.66699 24 -13 64.333 -13 121v44l18 512
c0.666992 7.33301 1 18.333 1 33c0 80 -21.333 120 -64 120c-26 0 -50.667 -17.667 -74 -53s-44.5 -86.833 -63.5 -154.5s-35.167 -149.834 -48.5 -246.501l-3 -25l-77 49c6.66699 56 20 115.833 40 179.5s41 114.5 63 152.5c50 86 104.333 129 163 129
c49.333 0 87.166 -23.833 113.499 -71.5s39.5 -118.167 39.5 -211.5c0 -26 -0.333008 -45.667 -1 -59l-13 -337c0 -13.333 -0.166992 -23.833 -0.5 -31.5s-0.5 -16.167 -0.5 -25.5c0 -83.333 25.333 -125 76 -125c24 0 49.333 10.167 76 30.5s58.334 53.166 95.001 98.499
c45.333 56 87.333 119.667 126 191s70.667 145.5 96 222.5s44 154.5 56 232.5l111 50l-6 -30c-38.667 -206 -88 -399.333 -148 -580s-120 -316 -180 -406c-73.333 -110 -159.5 -191.333 -258.5 -244s-215.833 -79 -350.5 -79c-44 0 -81 3.66699 -111 11zM866 1584l-209 -154
l-20 7l164 165z" />
    <glyph glyph-name="germandbls" unicode="&#xdf;" horiz-adv-x="612" 
d="M-27 -11l199.999 1015c12 58 21.333 99.667 28 125s13.834 47.833 21.501 67.5s17.834 40.5 30.501 62.5c26.667 45.333 58.334 81.666 95.001 108.999s72 41 106 41c38.667 0 70.167 -13.5 94.5 -40.5s36.5 -62.5 36.5 -106.5c0 -33.333 -8.33301 -72.166 -25 -116.499
s-41.334 -91.333 -74.001 -141s-74 -103.167 -124 -160.5c-26 -28.667 -43.667 -51.5 -53 -68.5s-14 -33.833 -14 -50.5c0 -24.667 15.333 -54.667 46 -90c56.667 -64 94 -112.667 112 -146c28.667 -54 43 -109.333 43 -166s-13.333 -111.167 -40 -163.5
s-61.834 -94.833 -105.501 -127.5s-89.167 -49 -136.5 -49c-55.333 0 -98.333 19.667 -129 59l48 60c29.333 -51.333 69 -77 119 -77c32.667 0 63.667 11.5 93 34.5s52.5 53.5 69.5 91.5s25.5 80 25.5 126c0 38 -6.33301 74.333 -19 109s-30.667 65.334 -54 92.001l-72 85
c-33.333 39.333 -50 78 -50 116c0 46.667 18.333 91 55 133l67 77c101.333 116.667 152 231.334 152 344.001c0 42 -8.5 75.667 -25.5 101s-38.833 38 -65.5 38c-33.333 0 -59.5 -13.667 -78.5 -41s-35.833 -75.333 -50.5 -144l-261 -1179z" />
    <glyph glyph-name="agrave" unicode="&#xe0;" horiz-adv-x="666" 
d="M537 591l-94.002 -365.999c-10 -40 -15 -71.333 -15 -94c0 -20 4.33301 -37.333 13 -52s19.334 -22 32.001 -22c19.333 0 51.333 23.667 96 71l14 -14l-11 -13c-35.333 -40.667 -62.5 -69.167 -81.5 -85.5s-35.5 -24.5 -49.5 -24.5c-21.333 0 -39.833 11.167 -55.5 33.5
s-23.5 48.166 -23.5 77.499c0 21.333 8 69.666 24 144.999l8 38c-24.667 -57.333 -57.667 -112.333 -99 -165c-69.333 -88 -135.666 -132 -198.999 -132c-38 0 -68 13.667 -90 41s-33 64 -33 110c0 62.667 17.833 128.334 53.5 197.001s80 125.167 133 169.5
s104.5 66.5 154.5 66.5c52.667 0 92 -19.333 118 -58l11 38zM421.998 463.001c-8 25.333 -21.501 45.165 -40.501 59.498s-40.833 21.5 -65.5 21.5c-29.333 0 -60.333 -13.5 -93 -40.5s-62.667 -64.5 -90 -112.5c-21.333 -38 -39.166 -80 -53.499 -126s-21.5 -84 -21.5 -114
c0 -34 6.5 -60.667 19.5 -80s31.5 -29 55.5 -29c30.667 0 62.667 14.333 96 43s66.333 69.667 99 123c20 30.667 35.667 61.334 47 92.001s24 73.334 38 128.001zM332.997 832l59 -167l-19 -5l-99 155z" />
    <glyph glyph-name="aacute" unicode="&#xe1;" horiz-adv-x="666" 
d="M537 591l-94.002 -365.999c-10 -40 -15 -71.333 -15 -94c0 -20 4.33301 -37.333 13 -52s19.334 -22 32.001 -22c19.333 0 51.333 23.667 96 71l14 -14l-11 -13c-35.333 -40.667 -62.5 -69.167 -81.5 -85.5s-35.5 -24.5 -49.5 -24.5c-21.333 0 -39.833 11.167 -55.5 33.5
s-23.5 48.166 -23.5 77.499c0 21.333 8 69.666 24 144.999l8 38c-24.667 -57.333 -57.667 -112.333 -99 -165c-69.333 -88 -135.666 -132 -198.999 -132c-38 0 -68 13.667 -90 41s-33 64 -33 110c0 62.667 17.833 128.334 53.5 197.001s80 125.167 133 169.5
s104.5 66.5 154.5 66.5c52.667 0 92 -19.333 118 -58l11 38zM421.998 463.001c-8 25.333 -21.501 45.165 -40.501 59.498s-40.833 21.5 -65.5 21.5c-29.333 0 -60.333 -13.5 -93 -40.5s-62.667 -64.5 -90 -112.5c-21.333 -38 -39.166 -80 -53.499 -126s-21.5 -84 -21.5 -114
c0 -34 6.5 -60.667 19.5 -80s31.5 -29 55.5 -29c30.667 0 62.667 14.333 96 43s66.333 69.667 99 123c20 30.667 35.667 61.334 47 92.001s24 73.334 38 128.001zM542.997 814l-209 -154l-20 7l164 165z" />
    <glyph glyph-name="acircumflex" unicode="&#xe2;" horiz-adv-x="666" 
d="M537 591l-94.002 -365.999c-10 -40 -15 -71.333 -15 -94c0 -20 4.33301 -37.333 13 -52s19.334 -22 32.001 -22c19.333 0 51.333 23.667 96 71l14 -14l-11 -13c-35.333 -40.667 -62.5 -69.167 -81.5 -85.5s-35.5 -24.5 -49.5 -24.5c-21.333 0 -39.833 11.167 -55.5 33.5
s-23.5 48.166 -23.5 77.499c0 21.333 8 69.666 24 144.999l8 38c-24.667 -57.333 -57.667 -112.333 -99 -165c-69.333 -88 -135.666 -132 -198.999 -132c-38 0 -68 13.667 -90 41s-33 64 -33 110c0 62.667 17.833 128.334 53.5 197.001s80 125.167 133 169.5
s104.5 66.5 154.5 66.5c52.667 0 92 -19.333 118 -58l11 38zM421.998 463.001c-8 25.333 -21.501 45.165 -40.501 59.498s-40.833 21.5 -65.5 21.5c-29.333 0 -60.333 -13.5 -93 -40.5s-62.667 -64.5 -90 -112.5c-21.333 -38 -39.166 -80 -53.499 -126s-21.5 -84 -21.5 -114
c0 -34 6.5 -60.667 19.5 -80s31.5 -29 55.5 -29c30.667 0 62.667 14.333 96 43s66.333 69.667 99 123c20 30.667 35.667 61.334 47 92.001s24 73.334 38 128.001zM387.997 737l-135 -47l-7 15l154 98l115 -98l-11 -15z" />
    <glyph glyph-name="atilde" unicode="&#xe3;" horiz-adv-x="666" 
d="M537 591l-94.002 -365.999c-10 -40 -15 -71.333 -15 -94c0 -20 4.33301 -37.333 13 -52s19.334 -22 32.001 -22c19.333 0 51.333 23.667 96 71l14 -14l-11 -13c-35.333 -40.667 -62.5 -69.167 -81.5 -85.5s-35.5 -24.5 -49.5 -24.5c-21.333 0 -39.833 11.167 -55.5 33.5
s-23.5 48.166 -23.5 77.499c0 21.333 8 69.666 24 144.999l8 38c-24.667 -57.333 -57.667 -112.333 -99 -165c-69.333 -88 -135.666 -132 -198.999 -132c-38 0 -68 13.667 -90 41s-33 64 -33 110c0 62.667 17.833 128.334 53.5 197.001s80 125.167 133 169.5
s104.5 66.5 154.5 66.5c52.667 0 92 -19.333 118 -58l11 38zM421.998 463.001c-8 25.333 -21.501 45.165 -40.501 59.498s-40.833 21.5 -65.5 21.5c-29.333 0 -60.333 -13.5 -93 -40.5s-62.667 -64.5 -90 -112.5c-21.333 -38 -39.166 -80 -53.499 -126s-21.5 -84 -21.5 -114
c0 -34 6.5 -60.667 19.5 -80s31.5 -29 55.5 -29c30.667 0 62.667 14.333 96 43s66.333 69.667 99 123c20 30.667 35.667 61.334 47 92.001s24 73.334 38 128.001zM531.997 770c-46 -44.667 -83.668 -67 -113.001 -67c-13.333 0 -26.666 5.33301 -39.999 16l-23 18
c-14.667 12 -27 18 -37 18c-18 0 -42 -14.667 -72 -44l-14 13c18.667 20.667 38.167 37.167 58.5 49.5s37.833 18.5 52.5 18.5c14 0 35.333 -10.667 64 -32c17.333 -12 30.333 -18 39 -18c20 0 43.667 14.333 71 43z" />
    <glyph glyph-name="adieresis" unicode="&#xe4;" horiz-adv-x="666" 
d="M537 591l-94.002 -365.999c-10 -40 -15 -71.333 -15 -94c0 -20 4.33301 -37.333 13 -52s19.334 -22 32.001 -22c19.333 0 51.333 23.667 96 71l14 -14l-11 -13c-35.333 -40.667 -62.5 -69.167 -81.5 -85.5s-35.5 -24.5 -49.5 -24.5c-21.333 0 -39.833 11.167 -55.5 33.5
s-23.5 48.166 -23.5 77.499c0 21.333 8 69.666 24 144.999l8 38c-24.667 -57.333 -57.667 -112.333 -99 -165c-69.333 -88 -135.666 -132 -198.999 -132c-38 0 -68 13.667 -90 41s-33 64 -33 110c0 62.667 17.833 128.334 53.5 197.001s80 125.167 133 169.5
s104.5 66.5 154.5 66.5c52.667 0 92 -19.333 118 -58l11 38zM421.998 463.001c-8 25.333 -21.501 45.165 -40.501 59.498s-40.833 21.5 -65.5 21.5c-29.333 0 -60.333 -13.5 -93 -40.5s-62.667 -64.5 -90 -112.5c-21.333 -38 -39.166 -80 -53.499 -126s-21.5 -84 -21.5 -114
c0 -34 6.5 -60.667 19.5 -80s31.5 -29 55.5 -29c30.667 0 62.667 14.333 96 43s66.333 69.667 99 123c20 30.667 35.667 61.334 47 92.001s24 73.334 38 128.001zM319.997 793c9.33301 0 17.5 -2 24.5 -6s12.5 -9.5 16.5 -16.5s6 -15.167 6 -24.5
c0 -12.667 -4.66699 -23.667 -14 -33s-20.333 -14 -33 -14c-12 0 -22.667 4.66699 -32 14s-14 20.333 -14 33c0 14 4.33301 25.333 13 34s19.667 13 33 13zM476.997 793c8.66699 0 16.5 -2 23.5 -6s12.5 -9.5 16.5 -16.5s6 -15.167 6 -24.5
c0 -12.667 -4.66699 -23.667 -14 -33s-20 -14 -32 -14c-12.667 0 -23.667 4.66699 -33 14s-14 20.333 -14 33c0 14 4.33301 25.333 13 34s20 13 34 13z" />
    <glyph glyph-name="aring" unicode="&#xe5;" horiz-adv-x="666" 
d="M537 591l-94.002 -365.999c-10 -40 -15 -71.333 -15 -94c0 -20 4.33301 -37.333 13 -52s19.334 -22 32.001 -22c19.333 0 51.333 23.667 96 71l14 -14l-11 -13c-35.333 -40.667 -62.5 -69.167 -81.5 -85.5s-35.5 -24.5 -49.5 -24.5c-21.333 0 -39.833 11.167 -55.5 33.5
s-23.5 48.166 -23.5 77.499c0 21.333 8 69.666 24 144.999l8 38c-24.667 -57.333 -57.667 -112.333 -99 -165c-69.333 -88 -135.666 -132 -198.999 -132c-38 0 -68 13.667 -90 41s-33 64 -33 110c0 62.667 17.833 128.334 53.5 197.001s80 125.167 133 169.5
s104.5 66.5 154.5 66.5c52.667 0 92 -19.333 118 -58l11 38zM421.998 463.001c-8 25.333 -21.501 45.165 -40.501 59.498s-40.833 21.5 -65.5 21.5c-29.333 0 -60.333 -13.5 -93 -40.5s-62.667 -64.5 -90 -112.5c-21.333 -38 -39.166 -80 -53.499 -126s-21.5 -84 -21.5 -114
c0 -34 6.5 -60.667 19.5 -80s31.5 -29 55.5 -29c30.667 0 62.667 14.333 96 43s66.333 69.667 99 123c20 30.667 35.667 61.334 47 92.001s24 73.334 38 128.001zM379.997 827c21.333 0 40 -8 56 -24s24 -34.667 24 -56c0 -22 -8 -40.667 -24 -56s-34.667 -23 -56 -23
c-22 0 -40.667 7.66699 -56 23s-23 34 -23 56c0 21.333 7.66699 40 23 56s34 24 56 24zM379.997 796c-14 0 -25.667 -5 -35 -15s-14 -21.333 -14 -34s5 -24 15 -34s21.333 -15 34 -15s24 4.66699 34 14s15 21 15 35s-4.66699 25.667 -14 35s-21 14 -35 14z" />
    <glyph glyph-name="ae" unicode="&#xe6;" horiz-adv-x="851" 
d="M736 155l20.001 -15.001c-66.667 -103.333 -148 -155 -244 -155c-50.667 0 -92.667 17 -126 51s-50 77 -50 129v8c-29.333 -58 -65.666 -103.833 -108.999 -137.5s-87.666 -50.5 -132.999 -50.5c-37.333 0 -66.833 10 -88.5 30s-32.5 47 -32.5 81
c0 64 35 120.167 105 168.5s167 83.166 291 104.499l3.5 14c1 4 1.5 6.33301 1.5 7c8 32.667 12 56.334 12 71.001c0 29.333 -7 51.5 -21 66.5s-34.333 22.5 -61 22.5c-36.667 0 -68.5 -13.167 -95.5 -39.5s-40.5 -56.833 -40.5 -91.5c0 -9.33301 1 -18.333 3 -27
c-10 -2 -18 -3 -24 -3c-12.667 0 -23.334 4.33301 -32.001 13s-13 19.334 -13 32.001c0 22.667 9.33301 45 28 67s43.5 39.667 74.5 53s64.167 20 99.5 20c82.667 0 130 -35.667 142 -107c25.333 35.333 54.666 62.666 87.999 81.999s67.666 29 102.999 29
c28.667 0 51.5 -7.33301 68.5 -22s25.5 -35 25.5 -61c0 -34 -14.167 -70 -42.5 -108s-66.5 -73 -114.5 -105s-100.333 -57 -157 -75v-10c0 -47.333 12.667 -86.666 38 -117.999s56.333 -47 93 -47c67.333 0 130 41 188 123zM360.001 339.999
c-56 -5.33301 -115.333 -24.9971 -178 -58.9971c-38.667 -20.667 -69.5 -46.334 -92.5 -77.001s-34.5 -62 -34.5 -94c0 -22 7.5 -40.833 22.5 -56.5s32.833 -23.5 53.5 -23.5c32 0 62.667 12.667 92 38s56 61.666 80 108.999s43 101.666 57 162.999zM417.001 231.002
c39.333 17.333 69.667 33 91 47s44.666 34 69.999 60c61.333 62.667 92 117.667 92 165c0 14 -4.33301 25.167 -13 33.5s-21 12.5 -37 12.5c-20 0 -41 -8.16699 -63 -24.5s-41.667 -39.5 -59 -69.5c-22 -38 -40.167 -76.833 -54.5 -116.5s-23.166 -75.5 -26.499 -107.5z" />
    <glyph glyph-name="ccedilla" unicode="&#xe7;" horiz-adv-x="489" 
d="M152 -15l-35.999 -66.001c10 2.66699 18 4 24 4c17.333 0 31.166 -5.83301 41.499 -17.5s15.5 -26.167 15.5 -43.5c0 -26.667 -9.83301 -49 -29.5 -67s-44.834 -27 -75.501 -27c-28 0 -51.667 7.33301 -71 22l11 18c11.333 -11.333 26 -17 44 -17
c18.667 0 35.667 7.33301 51 22s23 31 23 49c0 21.333 -9.33301 32 -28 32c-8 0 -16.667 -2.66699 -26 -8l-19 9l50 91c-47.333 6 -84.833 26.167 -112.5 60.5s-41.5 78.5 -41.5 132.5c0 60 15.667 121 47 183s71.5 113.333 120.5 154s96.167 61 141.5 61
c30.667 0 55.334 -8.5 74.001 -25.5s28 -39.833 28 -68.5c0 -26 -9.83301 -50.833 -29.5 -74.5s-40.834 -35.5 -63.501 -35.5c-10 0 -19 4 -27 12c43.333 19.333 65 55.333 65 108c0 18.667 -4.83301 33.167 -14.5 43.5s-22.5 15.5 -38.5 15.5
c-24.667 0 -49.5 -10 -74.5 -30s-48.5 -47.833 -70.5 -83.5s-39.167 -73.667 -51.5 -114s-18.5 -81.166 -18.5 -122.499c0 -49.333 11.667 -89.333 35 -120s54 -46 92 -46c32.667 0 64.334 10.333 95.001 31s62.667 52.334 96 95.001l14 -12
c-41.333 -58.667 -80.333 -100.334 -117 -125.001s-78 -38 -124 -40z" />
    <glyph glyph-name="egrave" unicode="&#xe8;" horiz-adv-x="496" 
d="M382 155l17.998 -15.001c-41.333 -54.667 -81.666 -94.167 -120.999 -118.5s-81.666 -36.5 -126.999 -36.5c-54 0 -97.333 18 -130 54s-49 83.667 -49 143c0 60 15.833 120.833 47.5 182.5s71.334 112.667 119.001 153s94.834 60.5 141.501 60.5
c27.333 0 49.833 -8 67.5 -24s26.5 -36.667 26.5 -62c0 -51.333 -28 -102.666 -84 -153.999s-132.333 -95 -229 -131c-0.666992 -5.33301 -1 -11.333 -1 -18c0 -46 12.667 -83.5 38 -112.5s58 -43.5 98 -43.5c31.333 0 61.666 9.83301 90.999 29.5s60.666 50.5 93.999 92.5z
M61.998 230.999c72 32 127.332 67.665 165.999 106.998c26 26.667 47 55.334 63 86.001s24 58.334 24 83.001c0 31.333 -14.333 47 -43 47c-43.333 0 -87.166 -34.167 -131.499 -102.5s-70.5 -141.833 -78.5 -220.5zM236.997 831.997l59 -167l-19 -5l-99 155z" />
    <glyph glyph-name="eacute" unicode="&#xe9;" horiz-adv-x="496" 
d="M382 155l17.998 -15.001c-41.333 -54.667 -81.666 -94.167 -120.999 -118.5s-81.666 -36.5 -126.999 -36.5c-54 0 -97.333 18 -130 54s-49 83.667 -49 143c0 60 15.833 120.833 47.5 182.5s71.334 112.667 119.001 153s94.834 60.5 141.501 60.5
c27.333 0 49.833 -8 67.5 -24s26.5 -36.667 26.5 -62c0 -51.333 -28 -102.666 -84 -153.999s-132.333 -95 -229 -131c-0.666992 -5.33301 -1 -11.333 -1 -18c0 -46 12.667 -83.5 38 -112.5s58 -43.5 98 -43.5c31.333 0 61.666 9.83301 90.999 29.5s60.666 50.5 93.999 92.5z
M61.998 230.999c72 32 127.332 67.665 165.999 106.998c26 26.667 47 55.334 63 86.001s24 58.334 24 83.001c0 31.333 -14.333 47 -43 47c-43.333 0 -87.166 -34.167 -131.499 -102.5s-70.5 -141.833 -78.5 -220.5zM433.997 813.997l-209 -154l-20 7l164 165z" />
    <glyph glyph-name="ecircumflex" unicode="&#xea;" horiz-adv-x="496" 
d="M382 155l17.998 -15.001c-41.333 -54.667 -81.666 -94.167 -120.999 -118.5s-81.666 -36.5 -126.999 -36.5c-54 0 -97.333 18 -130 54s-49 83.667 -49 143c0 60 15.833 120.833 47.5 182.5s71.334 112.667 119.001 153s94.834 60.5 141.501 60.5
c27.333 0 49.833 -8 67.5 -24s26.5 -36.667 26.5 -62c0 -51.333 -28 -102.666 -84 -153.999s-132.333 -95 -229 -131c-0.666992 -5.33301 -1 -11.333 -1 -18c0 -46 12.667 -83.5 38 -112.5s58 -43.5 98 -43.5c31.333 0 61.666 9.83301 90.999 29.5s60.666 50.5 93.999 92.5z
M61.998 230.999c72 32 127.332 67.665 165.999 106.998c26 26.667 47 55.334 63 86.001s24 58.334 24 83.001c0 31.333 -14.333 47 -43 47c-43.333 0 -87.166 -34.167 -131.499 -102.5s-70.5 -141.833 -78.5 -220.5zM305.997 736.997l-135 -47l-7 15l154 98l115 -98l-11 -15
z" />
    <glyph glyph-name="edieresis" unicode="&#xeb;" horiz-adv-x="496" 
d="M382 155l17.998 -15.001c-41.333 -54.667 -81.666 -94.167 -120.999 -118.5s-81.666 -36.5 -126.999 -36.5c-54 0 -97.333 18 -130 54s-49 83.667 -49 143c0 60 15.833 120.833 47.5 182.5s71.334 112.667 119.001 153s94.834 60.5 141.501 60.5
c27.333 0 49.833 -8 67.5 -24s26.5 -36.667 26.5 -62c0 -51.333 -28 -102.666 -84 -153.999s-132.333 -95 -229 -131c-0.666992 -5.33301 -1 -11.333 -1 -18c0 -46 12.667 -83.5 38 -112.5s58 -43.5 98 -43.5c31.333 0 61.666 9.83301 90.999 29.5s60.666 50.5 93.999 92.5z
M61.998 230.999c72 32 127.332 67.665 165.999 106.998c26 26.667 47 55.334 63 86.001s24 58.334 24 83.001c0 31.333 -14.333 47 -43 47c-43.333 0 -87.166 -34.167 -131.499 -102.5s-70.5 -141.833 -78.5 -220.5zM223.997 792.997c9.33301 0 17.5 -2 24.5 -6
s12.5 -9.5 16.5 -16.5s6 -15.167 6 -24.5c0 -12.667 -4.66699 -23.667 -14 -33s-20.333 -14 -33 -14c-12 0 -22.667 4.66699 -32 14s-14 20.333 -14 33c0 14 4.33301 25.333 13 34s19.667 13 33 13zM380.997 792.997c8.66699 0 16.5 -2 23.5 -6s12.5 -9.5 16.5 -16.5
s6 -15.167 6 -24.5c0 -12.667 -4.66699 -23.667 -14 -33s-20 -14 -32 -14c-12.667 0 -23.667 4.66699 -33 14s-14 20.333 -14 33c0 14 4.33301 25.333 13 34s20 13 34 13z" />
    <glyph glyph-name="igrave" unicode="&#xec;" horiz-adv-x="295" 
d="M173 585l-88 -329c-14.667 -54 -22 -97.333 -22 -130c0 -21.333 3.66699 -38.666 11 -51.999s17 -20 29 -20c20.667 0 53.667 24.667 99 74l16 -14l-10 -11c-38 -44.667 -66 -74.834 -84 -90.501s-34.667 -23.5 -50 -23.5c-20.667 0 -38.167 10.5 -52.5 31.5
s-21.5 47.167 -21.5 78.5c0 20 4 51.667 12 95l63 350zM128 832l59 -167l-19 -5l-99 155z" />
    <glyph glyph-name="iacute" unicode="&#xed;" horiz-adv-x="295" 
d="M173 585l-88 -329c-14.667 -54 -22 -97.333 -22 -130c0 -21.333 3.66699 -38.666 11 -51.999s17 -20 29 -20c20.667 0 53.667 24.667 99 74l16 -14l-10 -11c-38 -44.667 -66 -74.834 -84 -90.501s-34.667 -23.5 -50 -23.5c-20.667 0 -38.167 10.5 -52.5 31.5
s-21.5 47.167 -21.5 78.5c0 20 4 51.667 12 95l63 350zM298 814l-209 -154l-20 7l164 165z" />
    <glyph glyph-name="icircumflex" unicode="&#xee;" horiz-adv-x="295" 
d="M173 585l-88 -329c-14.667 -54 -22 -97.333 -22 -130c0 -21.333 3.66699 -38.666 11 -51.999s17 -20 29 -20c20.667 0 53.667 24.667 99 74l16 -14l-10 -11c-38 -44.667 -66 -74.834 -84 -90.501s-34.667 -23.5 -50 -23.5c-20.667 0 -38.167 10.5 -52.5 31.5
s-21.5 47.167 -21.5 78.5c0 20 4 51.667 12 95l63 350zM170 737l-135 -47l-7 15l154 98l115 -98l-11 -15z" />
    <glyph glyph-name="idieresis" unicode="&#xef;" horiz-adv-x="295" 
d="M173 585l-88 -329c-14.667 -54 -22 -97.333 -22 -130c0 -21.333 3.66699 -38.666 11 -51.999s17 -20 29 -20c20.667 0 53.667 24.667 99 74l16 -14l-10 -11c-38 -44.667 -66 -74.834 -84 -90.501s-34.667 -23.5 -50 -23.5c-20.667 0 -38.167 10.5 -52.5 31.5
s-21.5 47.167 -21.5 78.5c0 20 4 51.667 12 95l63 350zM87 793c9.33301 0 17.5 -2 24.5 -6s12.5 -9.5 16.5 -16.5s6 -15.167 6 -24.5c0 -12.667 -4.66699 -23.667 -14 -33s-20.333 -14 -33 -14c-12 0 -22.667 4.66699 -32 14s-14 20.333 -14 33c0 14 4.33301 25.333 13 34
s19.667 13 33 13zM244 793c8.66699 0 16.5 -2 23.5 -6s12.5 -9.5 16.5 -16.5s6 -15.167 6 -24.5c0 -12.667 -4.66699 -23.667 -14 -33s-20 -14 -32 -14c-12.667 0 -23.667 4.66699 -33 14s-14 20.333 -14 33c0 14 4.33301 25.333 13 34s20 13 34 13z" />
    <glyph glyph-name="ntilde" unicode="&#xf1;" horiz-adv-x="664" 
d="M-17 -10l106 553.999l95 41l-86 -367c55.333 116.667 110.333 205.334 165 266.001s107 91 157 91c24.667 0 44.667 -8.16699 60 -24.5s23 -38.166 23 -65.499c0 -15.333 -3.66699 -37 -11 -65l-10 -42l-30 -122l-10 -39c-10 -40 -15 -70.667 -15 -92
s3.66699 -38.5 11 -51.5s17 -19.5 29 -19.5c20.667 0 53.667 24.667 99 74l16 -14l-10 -11c-38 -44.667 -66 -74.834 -84 -90.501s-34.667 -23.5 -50 -23.5c-20.667 0 -38.167 10.5 -52.5 31.5s-21.5 47.167 -21.5 78.5c0 21.333 4 53 12 95l39 212
c5.33301 33.333 8 56.666 8 69.999c0 14 -3.66699 24.667 -11 32s-17.333 11 -30 11c-46 0 -102.667 -49.333 -170 -148c-32.667 -47.333 -59.667 -94.166 -81 -140.499s-45.333 -110.5 -72 -192.5l-9 -27zM491 769.999c-46 -44.667 -83.668 -67 -113.001 -67
c-13.333 0 -26.666 5.33301 -39.999 16l-23 18c-14.667 12 -27 18 -37 18c-18 0 -42 -14.667 -72 -44l-14 13c18.667 20.667 38.167 37.167 58.5 49.5s37.833 18.5 52.5 18.5c14 0 35.333 -10.667 64 -32c17.333 -12 30.333 -18 39 -18c20 0 43.667 14.333 71 43z" />
    <glyph glyph-name="ograve" unicode="&#xf2;" horiz-adv-x="600" 
d="M-27 192c0 60 16.1719 119.833 48.5049 179.5s74.166 108.167 125.499 145.5s103.666 56 156.999 56c56 0 101.167 -18.5 135.5 -55.5s51.5 -84.833 51.5 -143.5c0 -64 -15.833 -126 -47.5 -186s-73.334 -109.167 -125.001 -147.5s-103.834 -57.5 -156.501 -57.5
c-56.667 0 -102.334 19.167 -137.001 57.5s-52 88.833 -52 151.5zM401.005 412c0 40 -9.83203 73 -29.499 99s-44.834 39 -75.501 39c-28 0 -54.833 -9 -80.5 -27s-49.167 -44.333 -70.5 -79c-24 -40 -43.833 -86.667 -59.5 -140s-23.5 -100.666 -23.5 -141.999
c0 -49.333 9.66699 -87.333 29 -114s47 -40 83 -40c58 0 109 40.333 153 121c22.667 41.333 40.667 87.666 54 138.999s20 99.333 20 144zM292.006 832l59 -167l-19 -5l-99 155z" />
    <glyph glyph-name="oacute" unicode="&#xf3;" horiz-adv-x="600" 
d="M-27 192c0 60 16.1719 119.833 48.5049 179.5s74.166 108.167 125.499 145.5s103.666 56 156.999 56c56 0 101.167 -18.5 135.5 -55.5s51.5 -84.833 51.5 -143.5c0 -64 -15.833 -126 -47.5 -186s-73.334 -109.167 -125.001 -147.5s-103.834 -57.5 -156.501 -57.5
c-56.667 0 -102.334 19.167 -137.001 57.5s-52 88.833 -52 151.5zM401.005 412c0 40 -9.83203 73 -29.499 99s-44.834 39 -75.501 39c-28 0 -54.833 -9 -80.5 -27s-49.167 -44.333 -70.5 -79c-24 -40 -43.833 -86.667 -59.5 -140s-23.5 -100.666 -23.5 -141.999
c0 -49.333 9.66699 -87.333 29 -114s47 -40 83 -40c58 0 109 40.333 153 121c22.667 41.333 40.667 87.666 54 138.999s20 99.333 20 144zM489.006 814l-209 -154l-20 7l164 165z" />
    <glyph glyph-name="ocircumflex" unicode="&#xf4;" horiz-adv-x="600" 
d="M-27 192c0 60 16.1719 119.833 48.5049 179.5s74.166 108.167 125.499 145.5s103.666 56 156.999 56c56 0 101.167 -18.5 135.5 -55.5s51.5 -84.833 51.5 -143.5c0 -64 -15.833 -126 -47.5 -186s-73.334 -109.167 -125.001 -147.5s-103.834 -57.5 -156.501 -57.5
c-56.667 0 -102.334 19.167 -137.001 57.5s-52 88.833 -52 151.5zM401.005 412c0 40 -9.83203 73 -29.499 99s-44.834 39 -75.501 39c-28 0 -54.833 -9 -80.5 -27s-49.167 -44.333 -70.5 -79c-24 -40 -43.833 -86.667 -59.5 -140s-23.5 -100.666 -23.5 -141.999
c0 -49.333 9.66699 -87.333 29 -114s47 -40 83 -40c58 0 109 40.333 153 121c22.667 41.333 40.667 87.666 54 138.999s20 99.333 20 144zM347.006 737l-135 -47l-7 15l154 98l115 -98l-11 -15z" />
    <glyph glyph-name="otilde" unicode="&#xf5;" horiz-adv-x="600" 
d="M-27 192c0 60 16.1719 119.833 48.5049 179.5s74.166 108.167 125.499 145.5s103.666 56 156.999 56c56 0 101.167 -18.5 135.5 -55.5s51.5 -84.833 51.5 -143.5c0 -64 -15.833 -126 -47.5 -186s-73.334 -109.167 -125.001 -147.5s-103.834 -57.5 -156.501 -57.5
c-56.667 0 -102.334 19.167 -137.001 57.5s-52 88.833 -52 151.5zM401.005 412c0 40 -9.83203 73 -29.499 99s-44.834 39 -75.501 39c-28 0 -54.833 -9 -80.5 -27s-49.167 -44.333 -70.5 -79c-24 -40 -43.833 -86.667 -59.5 -140s-23.5 -100.666 -23.5 -141.999
c0 -49.333 9.66699 -87.333 29 -114s47 -40 83 -40c58 0 109 40.333 153 121c22.667 41.333 40.667 87.666 54 138.999s20 99.333 20 144zM504.006 770c-46 -44.667 -83.668 -67 -113.001 -67c-13.333 0 -26.666 5.33301 -39.999 16l-23 18c-14.667 12 -27 18 -37 18
c-18 0 -42 -14.667 -72 -44l-14 13c18.667 20.667 38.167 37.167 58.5 49.5s37.833 18.5 52.5 18.5c14 0 35.333 -10.667 64 -32c17.333 -12 30.333 -18 39 -18c20 0 43.667 14.333 71 43z" />
    <glyph glyph-name="odieresis" unicode="&#xf6;" horiz-adv-x="600" 
d="M-27 192c0 60 16.1719 119.833 48.5049 179.5s74.166 108.167 125.499 145.5s103.666 56 156.999 56c56 0 101.167 -18.5 135.5 -55.5s51.5 -84.833 51.5 -143.5c0 -64 -15.833 -126 -47.5 -186s-73.334 -109.167 -125.001 -147.5s-103.834 -57.5 -156.501 -57.5
c-56.667 0 -102.334 19.167 -137.001 57.5s-52 88.833 -52 151.5zM401.005 412c0 40 -9.83203 73 -29.499 99s-44.834 39 -75.501 39c-28 0 -54.833 -9 -80.5 -27s-49.167 -44.333 -70.5 -79c-24 -40 -43.833 -86.667 -59.5 -140s-23.5 -100.666 -23.5 -141.999
c0 -49.333 9.66699 -87.333 29 -114s47 -40 83 -40c58 0 109 40.333 153 121c22.667 41.333 40.667 87.666 54 138.999s20 99.333 20 144zM265.006 793c9.33301 0 17.5 -2 24.5 -6s12.5 -9.5 16.5 -16.5s6 -15.167 6 -24.5c0 -12.667 -4.66699 -23.667 -14 -33
s-20.333 -14 -33 -14c-12 0 -22.667 4.66699 -32 14s-14 20.333 -14 33c0 14 4.33301 25.333 13 34s19.667 13 33 13zM422.006 793c8.66699 0 16.5 -2 23.5 -6s12.5 -9.5 16.5 -16.5s6 -15.167 6 -24.5c0 -12.667 -4.66699 -23.667 -14 -33s-20 -14 -32 -14
c-12.667 0 -23.667 4.66699 -33 14s-14 20.333 -14 33c0 14 4.33301 25.333 13 34s20 13 34 13z" />
    <glyph glyph-name="divide" unicode="&#xf7;" horiz-adv-x="621" 
d="M106 502h384v-44h-384v44zM301 664c9.33301 0 17.5 -2 24.5 -6s12.5 -9.5 16.5 -16.5s6 -15.167 6 -24.5c0 -12.667 -4.66699 -23.667 -14 -33s-20.333 -14 -33 -14c-12 0 -22.667 4.66699 -32 14s-14 20.333 -14 33c0 14 4.33301 25.333 13 34s19.667 13 33 13zM305 393
c8.66699 0 16.5 -2 23.5 -6s12.5 -9.5 16.5 -16.5s6 -15.167 6 -24.5c0 -12.667 -4.66699 -23.667 -14 -33s-20 -14 -32 -14c-12.667 0 -23.667 4.66699 -33 14s-14 20.333 -14 33c0 14 4.33301 25.333 13 34s20 13 34 13z" />
    <glyph glyph-name="oslash" unicode="&#xf8;" horiz-adv-x="600" 
d="M447 508l91 86l21 -21l-94 -90c17.333 -30 26 -66.667 26 -110c0 -63.333 -16 -125.166 -48 -185.499s-73.5 -109.5 -124.5 -147.5s-103.167 -57 -156.5 -57c-29.333 0 -56.833 6 -82.5 18s-47.5 29.667 -65.5 53l-89 -84l-20 22l92 88c-16 31.333 -24 68.333 -24 111
c0 45.333 9.33301 91 28 137s44.334 87.667 77.001 125s68.667 66.666 108 87.999s78.666 32 117.999 32c58 0 105.667 -21.667 143 -65zM66 105c14.667 -64.667 50.667 -97 108 -97c58 0 109 40.333 153 121c21.333 38.667 39 85 53 139s21 101.667 21 143v12zM62 141
l333.999 317.999c-16 60.667 -49.667 91 -101 91c-32.667 0 -64.167 -13.167 -94.5 -39.5s-57.166 -64.166 -80.499 -113.499c-39.333 -82 -59 -160.667 -59 -236c0 -8 0.333008 -14.667 1 -20z" />
    <glyph glyph-name="ugrave" unicode="&#xf9;" horiz-adv-x="617" 
d="M176 585l-97 -387.001c-8.66699 -34.667 -13 -64 -13 -88c0 -23.333 7.33301 -42 22 -56s33.667 -21 57 -21c56.667 0 115.667 46.333 177 139l4 6c1.33301 6.66699 2.33301 12 3 16l63 350l98 41l-88 -329c-14.667 -54 -22 -97.333 -22 -130
c0 -21.333 3.66699 -38.666 11 -51.999s17 -20 29 -20c20.667 0 53.667 24.667 99 74l16 -14l-10 -11c-38 -44.667 -66 -74.834 -84 -90.501s-34.667 -23.5 -50 -23.5c-20.667 0 -38.167 10.5 -52.5 31.5s-21.5 47.167 -21.5 78.5c0 10 0.333008 19.333 1 28
c-69.333 -92 -138 -138 -206 -138c-34 0 -61.167 9.83301 -81.5 29.5s-30.5 45.834 -30.5 78.501c0 25.333 3.66699 56.333 11 93l68 354zM264 831.999l59 -167l-19 -5l-99 155z" />
    <glyph glyph-name="uacute" unicode="&#xfa;" horiz-adv-x="617" 
d="M176 585l-97 -387.001c-8.66699 -34.667 -13 -64 -13 -88c0 -23.333 7.33301 -42 22 -56s33.667 -21 57 -21c56.667 0 115.667 46.333 177 139l4 6c1.33301 6.66699 2.33301 12 3 16l63 350l98 41l-88 -329c-14.667 -54 -22 -97.333 -22 -130
c0 -21.333 3.66699 -38.666 11 -51.999s17 -20 29 -20c20.667 0 53.667 24.667 99 74l16 -14l-10 -11c-38 -44.667 -66 -74.834 -84 -90.501s-34.667 -23.5 -50 -23.5c-20.667 0 -38.167 10.5 -52.5 31.5s-21.5 47.167 -21.5 78.5c0 10 0.333008 19.333 1 28
c-69.333 -92 -138 -138 -206 -138c-34 0 -61.167 9.83301 -81.5 29.5s-30.5 45.834 -30.5 78.501c0 25.333 3.66699 56.333 11 93l68 354zM475 813.999l-209 -154l-20 7l164 165z" />
    <glyph glyph-name="ucircumflex" unicode="&#xfb;" horiz-adv-x="617" 
d="M176 585l-97 -387.001c-8.66699 -34.667 -13 -64 -13 -88c0 -23.333 7.33301 -42 22 -56s33.667 -21 57 -21c56.667 0 115.667 46.333 177 139l4 6c1.33301 6.66699 2.33301 12 3 16l63 350l98 41l-88 -329c-14.667 -54 -22 -97.333 -22 -130
c0 -21.333 3.66699 -38.666 11 -51.999s17 -20 29 -20c20.667 0 53.667 24.667 99 74l16 -14l-10 -11c-38 -44.667 -66 -74.834 -84 -90.501s-34.667 -23.5 -50 -23.5c-20.667 0 -38.167 10.5 -52.5 31.5s-21.5 47.167 -21.5 78.5c0 10 0.333008 19.333 1 28
c-69.333 -92 -138 -138 -206 -138c-34 0 -61.167 9.83301 -81.5 29.5s-30.5 45.834 -30.5 78.501c0 25.333 3.66699 56.333 11 93l68 354zM306 736.999l-135 -47l-7 15l154 98l115 -98l-11 -15z" />
    <glyph glyph-name="udieresis" unicode="&#xfc;" horiz-adv-x="617" 
d="M176 585l-97 -387.001c-8.66699 -34.667 -13 -64 -13 -88c0 -23.333 7.33301 -42 22 -56s33.667 -21 57 -21c56.667 0 115.667 46.333 177 139l4 6c1.33301 6.66699 2.33301 12 3 16l63 350l98 41l-88 -329c-14.667 -54 -22 -97.333 -22 -130
c0 -21.333 3.66699 -38.666 11 -51.999s17 -20 29 -20c20.667 0 53.667 24.667 99 74l16 -14l-10 -11c-38 -44.667 -66 -74.834 -84 -90.501s-34.667 -23.5 -50 -23.5c-20.667 0 -38.167 10.5 -52.5 31.5s-21.5 47.167 -21.5 78.5c0 10 0.333008 19.333 1 28
c-69.333 -92 -138 -138 -206 -138c-34 0 -61.167 9.83301 -81.5 29.5s-30.5 45.834 -30.5 78.501c0 25.333 3.66699 56.333 11 93l68 354zM238 792.999c9.33301 0 17.5 -2 24.5 -6s12.5 -9.5 16.5 -16.5s6 -15.167 6 -24.5c0 -12.667 -4.66699 -23.667 -14 -33
s-20.333 -14 -33 -14c-12 0 -22.667 4.66699 -32 14s-14 20.333 -14 33c0 14 4.33301 25.333 13 34s19.667 13 33 13zM395 792.999c8.66699 0 16.5 -2 23.5 -6s12.5 -9.5 16.5 -16.5s6 -15.167 6 -24.5c0 -12.667 -4.66699 -23.667 -14 -33s-20 -14 -32 -14
c-12.667 0 -23.667 4.66699 -33 14s-14 20.333 -14 33c0 14 4.33301 25.333 13 34s20 13 34 13z" />
    <glyph glyph-name="yacute" unicode="&#xfd;" horiz-adv-x="598" 
d="M-116 -355l48.998 65.999c38.667 -41.333 82.334 -62 131.001 -62c51.333 0 92.666 20.333 123.999 61s57 107.334 77 200.001l46 207c-73.333 -86 -139.666 -129 -198.999 -129c-34.667 0 -61.834 10.667 -81.501 32s-29.5 50 -29.5 86c0 24 3 50.333 9 79l68 359l97 41
l-97 -403c-8 -32.667 -12 -57 -12 -73c0 -22.667 6.83301 -41.167 20.5 -55.5s31.834 -21.5 54.501 -21.5c24.667 0 51.834 10.833 81.501 32.5s62.834 54.167 99.501 97.5l86 382l94 41l-146 -588c-17.333 -70.667 -33.833 -126 -49.5 -166s-33.834 -73.333 -54.501 -100
c-65.333 -84 -145 -126 -239 -126c-54.667 0 -97.667 13.333 -129 40zM465.998 813.999l-209 -154l-20 7l164 165z" />
    <glyph glyph-name="ydieresis" unicode="&#xff;" horiz-adv-x="598" 
d="M-116 -355l48.998 65.999c38.667 -41.333 82.334 -62 131.001 -62c51.333 0 92.666 20.333 123.999 61s57 107.334 77 200.001l46 207c-73.333 -86 -139.666 -129 -198.999 -129c-34.667 0 -61.834 10.667 -81.501 32s-29.5 50 -29.5 86c0 24 3 50.333 9 79l68 359l97 41
l-97 -403c-8 -32.667 -12 -57 -12 -73c0 -22.667 6.83301 -41.167 20.5 -55.5s31.834 -21.5 54.501 -21.5c24.667 0 51.834 10.833 81.501 32.5s62.834 54.167 99.501 97.5l86 382l94 41l-146 -588c-17.333 -70.667 -33.833 -126 -49.5 -166s-33.834 -73.333 -54.501 -100
c-65.333 -84 -145 -126 -239 -126c-54.667 0 -97.667 13.333 -129 40zM258.998 792.999c9.33301 0 17.5 -2 24.5 -6s12.5 -9.5 16.5 -16.5s6 -15.167 6 -24.5c0 -12.667 -4.66699 -23.667 -14 -33s-20.333 -14 -33 -14c-12 0 -22.667 4.66699 -32 14s-14 20.333 -14 33
c0 14 4.33301 25.333 13 34s19.667 13 33 13zM415.998 792.999c8.66699 0 16.5 -2 23.5 -6s12.5 -9.5 16.5 -16.5s6 -15.167 6 -24.5c0 -12.667 -4.66699 -23.667 -14 -33s-20 -14 -32 -14c-12.667 0 -23.667 4.66699 -33 14s-14 20.333 -14 33c0 14 4.33301 25.333 13 34
s20 13 34 13z" />
    <glyph glyph-name="Amacron" unicode="&#x100;" horiz-adv-x="1336" 
d="M1165 443l-95.001 -442.999h-64c-24.667 78.667 -64.167 155 -118.5 229s-115.833 135 -184.5 183c-45.333 -70.667 -96 -134 -152 -190s-115.5 -104 -178.5 -144s-128.5 -71 -196.5 -93s-134.667 -33 -200 -33c-18 0 -37.333 1.66699 -58 5l32 76c35.333 -4 62 -6 80 -6
c182.667 0 345.334 71.333 488.001 214c29.333 29.333 59.166 63.166 89.499 101.499s61.833 83.166 94.5 134.499c72.667 114 134.667 220.667 186 320l94 181c74 142 131 238.167 171 288.5s79.667 75.5 119 75.5c12.667 0 23.834 -2.66699 33.501 -8
s17.167 -13.166 22.5 -23.499s8 -21.833 8 -34.5c0 -9.33301 -1.66699 -23 -5 -41c-3.33301 -24 -5.33301 -37 -6 -39l-153 -719h71l-7 -34h-71zM1071 443.001h-349.001l4 -3c59.333 -45.333 110.333 -92 153 -140s84.334 -105.333 125.001 -172zM748.998 477.001
l329 0.000976562l142 680c4.66699 22 7 33.333 7 34c4 13.333 6 25.333 6 36c0 16.667 -7.33301 25 -22 25c-18 0 -39.667 -19 -65 -57s-69.333 -116 -132 -234l-57 -109c-24 -43.333 -37 -67.333 -39 -72l-96 -175c-40 -72.667 -64.333 -115.334 -73 -128.001zM1411 1479
l-9 -45h-244l9 45h244z" />
    <glyph glyph-name="amacron" unicode="&#x101;" horiz-adv-x="666" 
d="M537 591l-94.002 -365.999c-10 -40 -15 -71.333 -15 -94c0 -20 4.33301 -37.333 13 -52s19.334 -22 32.001 -22c19.333 0 51.333 23.667 96 71l14 -14l-11 -13c-35.333 -40.667 -62.5 -69.167 -81.5 -85.5s-35.5 -24.5 -49.5 -24.5c-21.333 0 -39.833 11.167 -55.5 33.5
s-23.5 48.166 -23.5 77.499c0 21.333 8 69.666 24 144.999l8 38c-24.667 -57.333 -57.667 -112.333 -99 -165c-69.333 -88 -135.666 -132 -198.999 -132c-38 0 -68 13.667 -90 41s-33 64 -33 110c0 62.667 17.833 128.334 53.5 197.001s80 125.167 133 169.5
s104.5 66.5 154.5 66.5c52.667 0 92 -19.333 118 -58l11 38zM421.998 463.001c-8 25.333 -21.501 45.165 -40.501 59.498s-40.833 21.5 -65.5 21.5c-29.333 0 -60.333 -13.5 -93 -40.5s-62.667 -64.5 -90 -112.5c-21.333 -38 -39.166 -80 -53.499 -126s-21.5 -84 -21.5 -114
c0 -34 6.5 -60.667 19.5 -80s31.5 -29 55.5 -29c30.667 0 62.667 14.333 96 43s66.333 69.667 99 123c20 30.667 35.667 61.334 47 92.001s24 73.334 38 128.001zM504.997 738l-9 -45h-244l9 45h244z" />
    <glyph glyph-name="Abreve" unicode="&#x102;" horiz-adv-x="1336" 
d="M1165 443l-95.001 -442.999h-64c-24.667 78.667 -64.167 155 -118.5 229s-115.833 135 -184.5 183c-45.333 -70.667 -96 -134 -152 -190s-115.5 -104 -178.5 -144s-128.5 -71 -196.5 -93s-134.667 -33 -200 -33c-18 0 -37.333 1.66699 -58 5l32 76c35.333 -4 62 -6 80 -6
c182.667 0 345.334 71.333 488.001 214c29.333 29.333 59.166 63.166 89.499 101.499s61.833 83.166 94.5 134.499c72.667 114 134.667 220.667 186 320l94 181c74 142 131 238.167 171 288.5s79.667 75.5 119 75.5c12.667 0 23.834 -2.66699 33.501 -8
s17.167 -13.166 22.5 -23.499s8 -21.833 8 -34.5c0 -9.33301 -1.66699 -23 -5 -41c-3.33301 -24 -5.33301 -37 -6 -39l-153 -719h71l-7 -34h-71zM1071 443.001h-349.001l4 -3c59.333 -45.333 110.333 -92 153 -140s84.334 -105.333 125.001 -172zM748.998 477.001
l329 0.000976562l142 680c4.66699 22 7 33.333 7 34c4 13.333 6 25.333 6 36c0 16.667 -7.33301 25 -22 25c-18 0 -39.667 -19 -65 -57s-69.333 -116 -132 -234l-57 -109c-24 -43.333 -37 -67.333 -39 -72l-96 -175c-40 -72.667 -64.333 -115.334 -73 -128.001zM1154 1564
c22.667 -26 45.334 -44.834 68.001 -56.501s45.167 -17 67.5 -16s44.666 7.83301 66.999 20.5s44.5 30 66.5 52v-17c-20.667 -32.667 -42.167 -57.667 -64.5 -75s-45 -26.333 -68 -27s-45.833 7.33301 -68.5 24s-44.667 42.334 -66 77.001z" />
    <glyph glyph-name="abreve" unicode="&#x103;" horiz-adv-x="666" 
d="M537 591l-94.002 -365.999c-10 -40 -15 -71.333 -15 -94c0 -20 4.33301 -37.333 13 -52s19.334 -22 32.001 -22c19.333 0 51.333 23.667 96 71l14 -14l-11 -13c-35.333 -40.667 -62.5 -69.167 -81.5 -85.5s-35.5 -24.5 -49.5 -24.5c-21.333 0 -39.833 11.167 -55.5 33.5
s-23.5 48.166 -23.5 77.499c0 21.333 8 69.666 24 144.999l8 38c-24.667 -57.333 -57.667 -112.333 -99 -165c-69.333 -88 -135.666 -132 -198.999 -132c-38 0 -68 13.667 -90 41s-33 64 -33 110c0 62.667 17.833 128.334 53.5 197.001s80 125.167 133 169.5
s104.5 66.5 154.5 66.5c52.667 0 92 -19.333 118 -58l11 38zM421.998 463.001c-8 25.333 -21.501 45.165 -40.501 59.498s-40.833 21.5 -65.5 21.5c-29.333 0 -60.333 -13.5 -93 -40.5s-62.667 -64.5 -90 -112.5c-21.333 -38 -39.166 -80 -53.499 -126s-21.5 -84 -21.5 -114
c0 -34 6.5 -60.667 19.5 -80s31.5 -29 55.5 -29c30.667 0 62.667 14.333 96 43s66.333 69.667 99 123c20 30.667 35.667 61.334 47 92.001s24 73.334 38 128.001zM242.997 815c22.667 -26 45.334 -44.834 68.001 -56.501s45.167 -17 67.5 -16s44.666 7.83301 66.999 20.5
s44.5 30 66.5 52v-17c-20.667 -32.667 -42.167 -57.667 -64.5 -75s-45 -26.333 -68 -27s-45.833 7.33301 -68.5 24s-44.667 42.334 -66 77.001z" />
    <glyph glyph-name="Aogonek" unicode="&#x104;" horiz-adv-x="1336" 
d="M1165 443l-95.001 -442.999h-64c-24.667 78.667 -64.167 155 -118.5 229s-115.833 135 -184.5 183c-45.333 -70.667 -96 -134 -152 -190s-115.5 -104 -178.5 -144s-128.5 -71 -196.5 -93s-134.667 -33 -200 -33c-18 0 -37.333 1.66699 -58 5l32 76c35.333 -4 62 -6 80 -6
c182.667 0 345.334 71.333 488.001 214c29.333 29.333 59.166 63.166 89.499 101.499s61.833 83.166 94.5 134.499c72.667 114 134.667 220.667 186 320l94 181c74 142 131 238.167 171 288.5s79.667 75.5 119 75.5c12.667 0 23.834 -2.66699 33.501 -8
s17.167 -13.166 22.5 -23.499s8 -21.833 8 -34.5c0 -9.33301 -1.66699 -23 -5 -41c-3.33301 -24 -5.33301 -37 -6 -39l-153 -719h71l-7 -34h-71zM1071 443.001h-349.001l4 -3c59.333 -45.333 110.333 -92 153 -140s84.334 -105.333 125.001 -172zM748.998 477.001
l329 0.000976562l142 680c4.66699 22 7 33.333 7 34c4 13.333 6 25.333 6 36c0 16.667 -7.33301 25 -22 25c-18 0 -39.667 -19 -65 -57s-69.333 -116 -132 -234l-57 -109c-24 -43.333 -37 -67.333 -39 -72l-96 -175c-40 -72.667 -64.333 -115.334 -73 -128.001zM1068 30.002
l-14.998 -26l-16 -3c-18.667 0 -30.667 -10.667 -36 -32c-4.66699 -18 -1.33398 -34.333 9.99902 -49s26.333 -22 45 -22c18 0 34 5.66699 48 17l7 -18c-23.333 -14.667 -49 -22 -77 -22c-30.667 0 -53.5 9 -68.5 27s-18.833 40.333 -11.5 67
c4.66699 17.333 13.667 31.833 27 43.5s28.666 17.5 45.999 17.5h41z" />
    <glyph glyph-name="aogonek" unicode="&#x105;" horiz-adv-x="666" 
d="M537 591l-94.0029 -366c-10 -40 -15 -71.333 -15 -94c0 -20 4.33301 -37.333 13 -52s19.334 -22 32.001 -22c19.333 0 51.333 23.667 96 71l14 -14l-11 -13c-35.333 -40.667 -62.666 -69.334 -81.999 -86.001c-17.333 -14.667 -32.666 -22.667 -45.999 -24l-16 -2
c-18.667 -1.33301 -30.667 -12.666 -36 -33.999c-4.66699 -18 -1.33398 -34.333 9.99902 -49s26.333 -22 45 -22c18 0 34 5.66699 48 17l7 -18c-23.333 -14.667 -49 -22 -77 -22c-30.667 0 -53.5 9 -68.5 27s-18.833 40.333 -11.5 67c4.66699 17.333 13.667 32 27 44
c7.33301 6 15 10.333 23 13l-10 12c-15.333 22.667 -23 48.667 -23 78c0 21.333 8 69.666 24 144.999l8 38c-24.667 -57.333 -57.667 -112.333 -99 -165c-69.333 -88 -135.666 -132 -198.999 -132c-38 0 -68 13.667 -90 41s-33 64 -33 110
c0 62.667 17.833 128.334 53.5 197.001s80 125.167 133 169.5s104.5 66.5 154.5 66.5c52.667 0 92 -19.333 118 -58l11 38zM421.997 463c-8 25.333 -21.501 45.165 -40.501 59.498s-40.833 21.5 -65.5 21.5c-29.333 0 -60.333 -13.5 -93 -40.5s-62.667 -64.5 -90 -112.5
c-21.333 -38 -39.166 -80 -53.499 -126s-21.5 -84 -21.5 -114c0 -34 6.5 -60.667 19.5 -80s31.5 -29 55.5 -29c30.667 0 62.667 14.333 96 43s66.333 69.667 99 123c20 30.667 35.667 61.334 47 92.001s24 73.334 38 128.001z" />
    <glyph glyph-name="Cacute" unicode="&#x106;" horiz-adv-x="986" 
d="M577 787l-27.9961 75.999c62 18 120.667 45.667 176 83s98.833 78.666 130.5 123.999s47.5 90 47.5 134c0 32.667 -10.5 58.334 -31.5 77.001s-49.167 28 -84.5 28c-42 0 -88 -11 -138 -33s-99.5 -52.667 -148.5 -92s-95.833 -86.666 -140.5 -141.999
c-48.667 -60.667 -89.334 -124 -122.001 -190s-57.334 -133.167 -74.001 -201.5s-25 -139.166 -25 -212.499c0 -124.667 28.667 -223.5 86 -296.5s135.666 -109.5 234.999 -109.5c64 0 126.167 14.333 186.5 43s129.5 76.667 207.5 144l16 13l12 -22
c-79.333 -78.667 -159 -137.667 -239 -177s-160.667 -59 -242 -59c-73.333 0 -138.5 17.5 -195.5 52.5s-101 84 -132 147s-46.5 136.833 -46.5 221.5c0 61.333 9 125.333 27 192s44.833 134.167 80.5 202.5s77.834 134.5 126.501 198.5c51.333 68 108.333 128.833 171 182.5
s125.5 95.167 188.5 124.5s119.5 44 169.5 44c47.333 0 85.166 -13.5 113.499 -40.5s42.5 -63.5 42.5 -109.5c0 -51.333 -17 -104.833 -51 -160.5s-79.333 -105.334 -136 -149.001s-117.334 -74.5 -182.001 -92.5zM900.004 1595l-209 -154l-20 7l164 165z" />
    <glyph glyph-name="cacute" unicode="&#x107;" horiz-adv-x="489" 
d="M393 150c-40.667 -57.333 -80.1689 -99.1689 -118.502 -125.502s-80.833 -39.5 -127.5 -39.5c-51.333 0 -93.166 18 -125.499 54s-48.5 82.667 -48.5 140c0 60 15.667 121 47 183s71.5 113.333 120.5 154s96.167 61 141.5 61c30.667 0 55.334 -8.5 74.001 -25.5
s28 -39.833 28 -68.5c0 -26 -9.83301 -50.833 -29.5 -74.5s-40.834 -35.5 -63.501 -35.5c-10 0 -19 4 -27 12c43.333 19.333 65 55.333 65 108c0 18.667 -4.83301 33.167 -14.5 43.5s-22.5 15.5 -38.5 15.5c-24.667 0 -49.5 -10 -74.5 -30s-48.5 -47.833 -70.5 -83.5
s-39.167 -73.667 -51.5 -114s-18.5 -81.166 -18.5 -122.499c0 -49.333 11.667 -89.333 35 -120s54 -46 92 -46c32.667 0 64.334 10.333 95.001 31s62.667 52.334 96 95.001zM433.998 834.997l-209 -154l-20 7l164 165z" />
    <glyph glyph-name="Ccircumflex" unicode="&#x108;" horiz-adv-x="986" 
d="M577 787l-27.9961 75.999c62 18 120.667 45.667 176 83s98.833 78.666 130.5 123.999s47.5 90 47.5 134c0 32.667 -10.5 58.334 -31.5 77.001s-49.167 28 -84.5 28c-42 0 -88 -11 -138 -33s-99.5 -52.667 -148.5 -92s-95.833 -86.666 -140.5 -141.999
c-48.667 -60.667 -89.334 -124 -122.001 -190s-57.334 -133.167 -74.001 -201.5s-25 -139.166 -25 -212.499c0 -124.667 28.667 -223.5 86 -296.5s135.666 -109.5 234.999 -109.5c64 0 126.167 14.333 186.5 43s129.5 76.667 207.5 144l16 13l12 -22
c-79.333 -78.667 -159 -137.667 -239 -177s-160.667 -59 -242 -59c-73.333 0 -138.5 17.5 -195.5 52.5s-101 84 -132 147s-46.5 136.833 -46.5 221.5c0 61.333 9 125.333 27 192s44.833 134.167 80.5 202.5s77.834 134.5 126.501 198.5c51.333 68 108.333 128.833 171 182.5
s125.5 95.167 188.5 124.5s119.5 44 169.5 44c47.333 0 85.166 -13.5 113.499 -40.5s42.5 -63.5 42.5 -109.5c0 -51.333 -17 -104.833 -51 -160.5s-79.333 -105.334 -136 -149.001s-117.334 -74.5 -182.001 -92.5zM793.004 1488l-135 -47l-7 15l154 98l115 -98l-11 -15z" />
    <glyph glyph-name="ccircumflex" unicode="&#x109;" horiz-adv-x="489" 
d="M393 150c-40.667 -57.333 -80.1689 -99.1689 -118.502 -125.502s-80.833 -39.5 -127.5 -39.5c-51.333 0 -93.166 18 -125.499 54s-48.5 82.667 -48.5 140c0 60 15.667 121 47 183s71.5 113.333 120.5 154s96.167 61 141.5 61c30.667 0 55.334 -8.5 74.001 -25.5
s28 -39.833 28 -68.5c0 -26 -9.83301 -50.833 -29.5 -74.5s-40.834 -35.5 -63.501 -35.5c-10 0 -19 4 -27 12c43.333 19.333 65 55.333 65 108c0 18.667 -4.83301 33.167 -14.5 43.5s-22.5 15.5 -38.5 15.5c-24.667 0 -49.5 -10 -74.5 -30s-48.5 -47.833 -70.5 -83.5
s-39.167 -73.667 -51.5 -114s-18.5 -81.166 -18.5 -122.499c0 -49.333 11.667 -89.333 35 -120s54 -46 92 -46c32.667 0 64.334 10.333 95.001 31s62.667 52.334 96 95.001zM289.998 727.997l-135 -47l-7 15l154 98l115 -98l-11 -15z" />
    <glyph glyph-name="Cdotaccent" unicode="&#x10a;" horiz-adv-x="986" 
d="M577 787l-27.9961 75.999c62 18 120.667 45.667 176 83s98.833 78.666 130.5 123.999s47.5 90 47.5 134c0 32.667 -10.5 58.334 -31.5 77.001s-49.167 28 -84.5 28c-42 0 -88 -11 -138 -33s-99.5 -52.667 -148.5 -92s-95.833 -86.666 -140.5 -141.999
c-48.667 -60.667 -89.334 -124 -122.001 -190s-57.334 -133.167 -74.001 -201.5s-25 -139.166 -25 -212.499c0 -124.667 28.667 -223.5 86 -296.5s135.666 -109.5 234.999 -109.5c64 0 126.167 14.333 186.5 43s129.5 76.667 207.5 144l16 13l12 -22
c-79.333 -78.667 -159 -137.667 -239 -177s-160.667 -59 -242 -59c-73.333 0 -138.5 17.5 -195.5 52.5s-101 84 -132 147s-46.5 136.833 -46.5 221.5c0 61.333 9 125.333 27 192s44.833 134.167 80.5 202.5s77.834 134.5 126.501 198.5c51.333 68 108.333 128.833 171 182.5
s125.5 95.167 188.5 124.5s119.5 44 169.5 44c47.333 0 85.166 -13.5 113.499 -40.5s42.5 -63.5 42.5 -109.5c0 -51.333 -17 -104.833 -51 -160.5s-79.333 -105.334 -136 -149.001s-117.334 -74.5 -182.001 -92.5zM837.004 1492c0 -17.333 -5.66602 -32.167 -16.999 -44.5
s-24.333 -18.5 -39 -18.5c-30.667 0 -46 15 -46 45c0 12 2.66699 23 8 33s12.166 17.833 20.499 23.5s17.5 8.5 27.5 8.5c14 0 25.167 -4.33301 33.5 -13s12.5 -20 12.5 -34z" />
    <glyph glyph-name="cdotaccent" unicode="&#x10b;" horiz-adv-x="489" 
d="M393 150c-40.667 -57.333 -80.1689 -99.1689 -118.502 -125.502s-80.833 -39.5 -127.5 -39.5c-51.333 0 -93.166 18 -125.499 54s-48.5 82.667 -48.5 140c0 60 15.667 121 47 183s71.5 113.333 120.5 154s96.167 61 141.5 61c30.667 0 55.334 -8.5 74.001 -25.5
s28 -39.833 28 -68.5c0 -26 -9.83301 -50.833 -29.5 -74.5s-40.834 -35.5 -63.501 -35.5c-10 0 -19 4 -27 12c43.333 19.333 65 55.333 65 108c0 18.667 -4.83301 33.167 -14.5 43.5s-22.5 15.5 -38.5 15.5c-24.667 0 -49.5 -10 -74.5 -30s-48.5 -47.833 -70.5 -83.5
s-39.167 -73.667 -51.5 -114s-18.5 -81.166 -18.5 -122.499c0 -49.333 11.667 -89.333 35 -120s54 -46 92 -46c32.667 0 64.334 10.333 95.001 31s62.667 52.334 96 95.001zM333.998 751.997c0 -17.333 -5.66602 -32.167 -16.999 -44.5s-24.333 -18.5 -39 -18.5
c-30.667 0 -46 15 -46 45c0 12 2.66699 23 8 33s12.166 17.833 20.499 23.5s17.5 8.5 27.5 8.5c14 0 25.167 -4.33301 33.5 -13s12.5 -20 12.5 -34z" />
    <glyph glyph-name="Ccaron" unicode="&#x10c;" horiz-adv-x="986" 
d="M577 787l-27.9961 75.999c62 18 120.667 45.667 176 83s98.833 78.666 130.5 123.999s47.5 90 47.5 134c0 32.667 -10.5 58.334 -31.5 77.001s-49.167 28 -84.5 28c-42 0 -88 -11 -138 -33s-99.5 -52.667 -148.5 -92s-95.833 -86.666 -140.5 -141.999
c-48.667 -60.667 -89.334 -124 -122.001 -190s-57.334 -133.167 -74.001 -201.5s-25 -139.166 -25 -212.499c0 -124.667 28.667 -223.5 86 -296.5s135.666 -109.5 234.999 -109.5c64 0 126.167 14.333 186.5 43s129.5 76.667 207.5 144l16 13l12 -22
c-79.333 -78.667 -159 -137.667 -239 -177s-160.667 -59 -242 -59c-73.333 0 -138.5 17.5 -195.5 52.5s-101 84 -132 147s-46.5 136.833 -46.5 221.5c0 61.333 9 125.333 27 192s44.833 134.167 80.5 202.5s77.834 134.5 126.501 198.5c51.333 68 108.333 128.833 171 182.5
s125.5 95.167 188.5 124.5s119.5 44 169.5 44c47.333 0 85.166 -13.5 113.499 -40.5s42.5 -63.5 42.5 -109.5c0 -51.333 -17 -104.833 -51 -160.5s-79.333 -105.334 -136 -149.001s-117.334 -74.5 -182.001 -92.5zM876.004 1556l11 -15l-130 -100l-139 100l7 15l130 -48z
" />
    <glyph glyph-name="ccaron" unicode="&#x10d;" horiz-adv-x="489" 
d="M393 150c-40.667 -57.333 -80.1689 -99.1689 -118.502 -125.502s-80.833 -39.5 -127.5 -39.5c-51.333 0 -93.166 18 -125.499 54s-48.5 82.667 -48.5 140c0 60 15.667 121 47 183s71.5 113.333 120.5 154s96.167 61 141.5 61c30.667 0 55.334 -8.5 74.001 -25.5
s28 -39.833 28 -68.5c0 -26 -9.83301 -50.833 -29.5 -74.5s-40.834 -35.5 -63.501 -35.5c-10 0 -19 4 -27 12c43.333 19.333 65 55.333 65 108c0 18.667 -4.83301 33.167 -14.5 43.5s-22.5 15.5 -38.5 15.5c-24.667 0 -49.5 -10 -74.5 -30s-48.5 -47.833 -70.5 -83.5
s-39.167 -73.667 -51.5 -114s-18.5 -81.166 -18.5 -122.499c0 -49.333 11.667 -89.333 35 -120s54 -46 92 -46c32.667 0 64.334 10.333 95.001 31s62.667 52.334 96 95.001zM405.998 795.997l11 -15l-130 -100l-139 100l7 15l130 -48z" />
    <glyph glyph-name="Dcaron" unicode="&#x10e;" horiz-adv-x="1451" 
d="M891 1289l109.004 48c-8 -57.333 -16.333 -104.333 -25 -141l-20 -85l-7 -31c59.333 -44 111.666 -91 156.999 -141s84.666 -103 117.999 -159s58.166 -111.333 74.499 -166s24.5 -108.667 24.5 -162c0 -69.333 -12.333 -133 -37 -191s-60.167 -108.667 -106.5 -152
s-101 -77 -164 -101s-130.5 -36 -202.5 -36c-111.333 0 -232 22.667 -362 68l-25 9c-49.333 -28 -97 -48.667 -143 -62s-93 -20 -141 -20c-50 0 -90.5 9.5 -121.5 28.5s-46.5 43.833 -46.5 74.5c0 24 8.5 44.833 25.5 62.5s40.833 31.5 71.5 41.5s66.334 15 107.001 15
c57.333 0 150 -17.667 278 -53l23 -7c42.667 41.333 84 99 124 173c58.667 108.667 117 266.667 175 474c30 103.333 53 193.333 69 270c-48.667 38 -103.334 72.333 -164.001 103s-120.667 54.667 -180 72s-112.333 26 -159 26c-55.333 0 -99.5 -12.833 -132.5 -38.5
s-49.5 -60.167 -49.5 -103.5c0 -27.333 8.5 -54.833 25.5 -82.5s40.833 -53.834 71.5 -78.501s69 -47.334 115 -68.001l-62 -61c-58.667 30.667 -104.5 69.667 -137.5 117s-49.5 97.333 -49.5 150c0 44 11.667 82.833 35 116.5s56 59.834 98 78.501s89.333 28 142 28
c135.333 0 290.666 -55 465.999 -165c14 50.667 22.667 100.334 26 149.001zM518.004 115l27.001 -8.99902c83.333 -25.333 152 -43.333 206 -54s105.667 -16 155 -16c69.333 0 132.166 16.667 188.499 50s101 79.666 134 138.999s49.5 124.333 49.5 195
c0 184 -117.333 373.333 -352 568c-6 -28 -20.667 -82.667 -44 -164c-38 -128 -70 -224 -96 -288c-76.667 -192 -166 -332.333 -268 -421zM389.005 62.001c-119.333 36.667 -213.668 55 -283.001 55c-29.333 0 -52.166 -4.83301 -68.499 -14.5s-24.5 -23.167 -24.5 -40.5
c0 -18.667 13 -34.667 39 -48s58.333 -20 97 -20c78 0 158 22.667 240 68zM1074 1556l11 -15l-130 -100l-139 100l7 15l130 -48z" />
    <glyph glyph-name="dcaron" unicode="&#x10f;" horiz-adv-x="888" 
d="M699 1409l-265.002 -1153c-14 -61.333 -21 -104 -21 -128c0 -21.333 3.83301 -38.666 11.5 -51.999s18.167 -20 31.5 -20c17.333 0 38.333 13 63 39l29 29l2 2c0.666992 0.666992 1.66699 1.33398 3 2.00098l15 -14l-8 -9c-25.333 -28 -38.333 -42.333 -39 -43l-33 -33
c-16.667 -16.667 -28.834 -27.167 -36.501 -31.5s-16.167 -6.5 -25.5 -6.5c-22 0 -40.333 11.333 -55 34s-22 48.667 -22 78c0 17.333 4.66699 49 14 95l11 57c-17.333 -42 -44.666 -87.667 -81.999 -137c-67.333 -86.667 -132.666 -130 -195.999 -130
c-38 0 -68 13.833 -90 41.5s-33 65.167 -33 112.5c0 66 17.333 132.833 52 200.5s78.834 123.5 132.501 167.5s107.167 66 160.5 66c39.333 0 76 -11.667 110 -35l163 817zM418.998 490.998c-6 18 -18.333 32.499 -37 43.499s-38.667 16.5 -60 16.5
c-31.333 0 -63.5 -14 -96.5 -42s-64.167 -67.667 -93.5 -119c-21.333 -38 -38.833 -79.5 -52.5 -124.5s-20.5 -85.833 -20.5 -122.5c0 -32 6.83301 -57.667 20.5 -77s32.5 -29 56.5 -29c28 0 58.167 14.333 90.5 43s64.833 70 97.5 124c22 36.667 39.333 74.667 52 114
c15.333 50.667 26.333 91.334 33 122.001zM801.998 1032l-13.001 22.0029c87.333 68.667 133.666 127.667 138.999 177c-13.333 -14 -28.666 -21 -45.999 -21c-14 0 -25.667 4.66699 -35 14s-14 21 -14 35c0 21.333 7.33301 39.666 22 54.999s31.334 23 50.001 23
c19.333 0 34.833 -6.33301 46.5 -19s17.5 -30.334 17.5 -53.001c0 -33.333 -15.167 -71.333 -45.5 -114s-70.833 -82.334 -121.5 -119.001z" />
    <glyph glyph-name="Dcroat" unicode="&#x110;" horiz-adv-x="1451" 
d="M891 1289l109.003 48c-8 -57.333 -16.333 -104.333 -25 -141l-20 -85l-7 -31c59.333 -44 111.666 -91 156.999 -141s84.666 -103 117.999 -159s58.166 -111.333 74.499 -166s24.5 -108.667 24.5 -162c0 -69.333 -12.333 -133 -37 -191s-60.167 -108.667 -106.5 -152
s-101 -77 -164 -101s-130.5 -36 -202.5 -36c-111.333 0 -232 22.667 -362 68l-25 9c-49.333 -28 -97 -48.667 -143 -62s-93 -20 -141 -20c-50 0 -90.5 9.5 -121.5 28.5s-46.5 43.833 -46.5 74.5c0 24 8.5 44.833 25.5 62.5s40.833 31.5 71.5 41.5s66.334 15 107.001 15
c57.333 0 150 -17.667 278 -53l23 -7c42.667 41.333 84 99 124 173c26.667 49.333 53.334 109.333 80.001 180h-194l9 45h202c26 72.667 52 155.667 78 249c30 103.333 53 193.333 69 270c-48.667 38 -103.334 72.333 -164.001 103s-120.667 54.667 -180 72
s-112.333 26 -159 26c-55.333 0 -99.5 -12.833 -132.5 -38.5s-49.5 -60.167 -49.5 -103.5c0 -27.333 8.5 -54.833 25.5 -82.5s40.833 -53.834 71.5 -78.501s69 -47.334 115 -68.001l-62 -61c-58.667 30.667 -104.5 69.667 -137.5 117s-49.5 97.333 -49.5 150
c0 44 11.667 82.833 35 116.5s56 59.834 98 78.501s89.333 28 142 28c135.333 0 290.666 -55 465.999 -165c14 50.667 22.667 100.334 26 149.001zM941.003 527l-9 -44.999h-169c-71.333 -164.667 -153 -287 -245 -367l27 -9c83.333 -25.333 152 -43.333 206 -54
s105.667 -16 155 -16c69.333 0 132.166 16.667 188.499 50s101 79.666 134 138.999s49.5 124.333 49.5 195c0 184 -117.333 373.333 -352 568c-6 -28 -20.667 -82.667 -44 -164c-38 -128 -70 -224 -96 -288c-1.33301 -3.33301 -2.66602 -6.33301 -3.99902 -9h159z
M389.003 62.001c-119.333 36.667 -213.668 55 -283.001 55c-29.333 0 -52.166 -4.83301 -68.499 -14.5s-24.5 -23.167 -24.5 -40.5c0 -18.667 13 -34.667 39 -48s58.333 -20 97 -20c78 0 158 22.667 240 68z" />
    <glyph glyph-name="dcroat" unicode="&#x111;" horiz-adv-x="834" 
d="M801 1027l-9.00195 -45.002h-192l-166 -726c-14 -61.333 -21 -104 -21 -128c0 -21.333 3.83301 -38.666 11.5 -51.999s18.167 -20 31.5 -20c17.333 0 38.333 13 63 39l31 31c0.666992 0.666992 1.66699 1.33398 3 2.00098l15 -14l-8 -9
c-25.333 -28 -38.333 -42.333 -39 -43l-33 -33c-16.667 -16.667 -28.834 -27.167 -36.501 -31.5s-16.167 -6.5 -25.5 -6.5c-22 0 -40.333 11.333 -55 34s-22 48.667 -22 78c0 17.333 4.66699 49 14 95l11 57c-17.333 -42 -44.666 -87.667 -81.999 -137
c-67.333 -86.667 -132.666 -130 -195.999 -130c-38 0 -68 13.833 -90 41.5s-33 65.167 -33 112.5c0 66 17.333 132.833 52 200.5s78.834 123.5 132.501 167.5s107.167 66 160.5 66c39.333 0 76 -11.667 110 -35l88 441h-218l9 45h218l66 331l108 51l-88 -382h190z
M418.998 490.998c-6 18 -18.333 32.499 -37 43.499s-38.667 16.5 -60 16.5c-31.333 0 -63.5 -14 -96.5 -42s-64.167 -67.667 -93.5 -119c-21.333 -38 -38.833 -79.5 -52.5 -124.5s-20.5 -85.833 -20.5 -122.5c0 -32 6.83301 -57.667 20.5 -77s32.5 -29 56.5 -29
c28 0 58.167 14.333 90.5 43s64.833 70 97.5 124c22 36.667 39.333 74.667 52 114c15.333 50.667 26.333 91.334 33 122.001z" />
    <glyph glyph-name="Emacron" unicode="&#x112;" horiz-adv-x="1025" 
d="M855 218l-23.999 -119.002c-84.667 -40 -167.834 -70.667 -249.501 -92s-155.834 -32 -222.501 -32c-73.333 0 -137 10.5 -191 31.5s-95.5 51.5 -124.5 91.5s-43.5 87 -43.5 141c0 90 40.667 179.5 122 268.5s197.333 171.167 348 246.5c-72 12 -108 49.333 -108 112
c0 89.333 77.333 189.666 232 300.999c48 34.667 96.833 65.167 146.5 91.5s96.334 46.5 140.001 60.5s82.167 21 115.5 21c34.667 0 61.834 -9.5 81.501 -28.5s29.5 -44.833 29.5 -77.5c0 -30 -7.5 -64.333 -22.5 -103s-36.833 -79 -65.5 -121s-60.667 -80 -96 -114l-53 58
c104 114.667 156 206 156 274c0 46 -27.333 69 -82 69c-34.667 0 -77.334 -10.333 -128.001 -31s-101 -48.334 -151 -83.001c-66.667 -45.333 -119.5 -93.666 -158.5 -144.999s-58.5 -97 -58.5 -137c0 -19.333 6.16699 -37.666 18.5 -54.999s27.5 -29.666 45.5 -36.999
c18.667 -6.66699 51 -11 97 -13h17l-13 -64c-100.667 -43.333 -201.667 -102.333 -303 -177c-168 -124 -252 -240.667 -252 -350c0 -54.667 21.167 -99.167 63.5 -133.5s96.5 -51.5 162.5 -51.5c46 0 96.833 7 152.5 21s117.5 35.333 185.5 64s145.667 66.334 233 113.001z
M1080 1487l-9 -45h-244l9 45h244z" />
    <glyph glyph-name="emacron" unicode="&#x113;" horiz-adv-x="496" 
d="M382 155l17.998 -15.001c-41.333 -54.667 -81.666 -94.167 -120.999 -118.5s-81.666 -36.5 -126.999 -36.5c-54 0 -97.333 18 -130 54s-49 83.667 -49 143c0 60 15.833 120.833 47.5 182.5s71.334 112.667 119.001 153s94.834 60.5 141.501 60.5
c27.333 0 49.833 -8 67.5 -24s26.5 -36.667 26.5 -62c0 -51.333 -28 -102.666 -84 -153.999s-132.333 -95 -229 -131c-0.666992 -5.33301 -1 -11.333 -1 -18c0 -46 12.667 -83.5 38 -112.5s58 -43.5 98 -43.5c31.333 0 61.666 9.83301 90.999 29.5s60.666 50.5 93.999 92.5z
M61.998 230.999c72 32 127.332 67.665 165.999 106.998c26 26.667 47 55.334 63 86.001s24 58.334 24 83.001c0 31.333 -14.333 47 -43 47c-43.333 0 -87.166 -34.167 -131.499 -102.5s-70.5 -141.833 -78.5 -220.5zM391.997 724.997l-9 -45h-244l9 45h244z" />
    <glyph glyph-name="Ebreve" unicode="&#x114;" horiz-adv-x="1025" 
d="M855 218l-23.999 -119.002c-84.667 -40 -167.834 -70.667 -249.501 -92s-155.834 -32 -222.501 -32c-73.333 0 -137 10.5 -191 31.5s-95.5 51.5 -124.5 91.5s-43.5 87 -43.5 141c0 90 40.667 179.5 122 268.5s197.333 171.167 348 246.5c-72 12 -108 49.333 -108 112
c0 89.333 77.333 189.666 232 300.999c48 34.667 96.833 65.167 146.5 91.5s96.334 46.5 140.001 60.5s82.167 21 115.5 21c34.667 0 61.834 -9.5 81.501 -28.5s29.5 -44.833 29.5 -77.5c0 -30 -7.5 -64.333 -22.5 -103s-36.833 -79 -65.5 -121s-60.667 -80 -96 -114l-53 58
c104 114.667 156 206 156 274c0 46 -27.333 69 -82 69c-34.667 0 -77.334 -10.333 -128.001 -31s-101 -48.334 -151 -83.001c-66.667 -45.333 -119.5 -93.666 -158.5 -144.999s-58.5 -97 -58.5 -137c0 -19.333 6.16699 -37.666 18.5 -54.999s27.5 -29.666 45.5 -36.999
c18.667 -6.66699 51 -11 97 -13h17l-13 -64c-100.667 -43.333 -201.667 -102.333 -303 -177c-168 -124 -252 -240.667 -252 -350c0 -54.667 21.167 -99.167 63.5 -133.5s96.5 -51.5 162.5 -51.5c46 0 96.833 7 152.5 21s117.5 35.333 185.5 64s145.667 66.334 233 113.001z
M781.001 1564c22.667 -26 45.334 -44.834 68.001 -56.501s45.167 -17 67.5 -16s44.666 7.83301 66.999 20.5s44.5 30 66.5 52v-17c-20.667 -32.667 -42.167 -57.667 -64.5 -75s-45 -26.333 -68 -27s-45.833 7.33301 -68.5 24s-44.667 42.334 -66 77.001z" />
    <glyph glyph-name="ebreve" unicode="&#x115;" horiz-adv-x="496" 
d="M382 155l17.998 -15.001c-41.333 -54.667 -81.666 -94.167 -120.999 -118.5s-81.666 -36.5 -126.999 -36.5c-54 0 -97.333 18 -130 54s-49 83.667 -49 143c0 60 15.833 120.833 47.5 182.5s71.334 112.667 119.001 153s94.834 60.5 141.501 60.5
c27.333 0 49.833 -8 67.5 -24s26.5 -36.667 26.5 -62c0 -51.333 -28 -102.666 -84 -153.999s-132.333 -95 -229 -131c-0.666992 -5.33301 -1 -11.333 -1 -18c0 -46 12.667 -83.5 38 -112.5s58 -43.5 98 -43.5c31.333 0 61.666 9.83301 90.999 29.5s60.666 50.5 93.999 92.5z
M61.998 230.999c72 32 127.332 67.665 165.999 106.998c26 26.667 47 55.334 63 86.001s24 58.334 24 83.001c0 31.333 -14.333 47 -43 47c-43.333 0 -87.166 -34.167 -131.499 -102.5s-70.5 -141.833 -78.5 -220.5zM150.997 801.997
c22.667 -26 45.334 -44.834 68.001 -56.501s45.167 -17 67.5 -16s44.666 7.83301 66.999 20.5s44.5 30 66.5 52v-17c-20.667 -32.667 -42.167 -57.667 -64.5 -75s-45 -26.333 -68 -27s-45.833 7.33301 -68.5 24s-44.667 42.334 -66 77.001z" />
    <glyph glyph-name="Edotaccent" unicode="&#x116;" horiz-adv-x="1025" 
d="M855 218l-23.999 -119.002c-84.667 -40 -167.834 -70.667 -249.501 -92s-155.834 -32 -222.501 -32c-73.333 0 -137 10.5 -191 31.5s-95.5 51.5 -124.5 91.5s-43.5 87 -43.5 141c0 90 40.667 179.5 122 268.5s197.333 171.167 348 246.5c-72 12 -108 49.333 -108 112
c0 89.333 77.333 189.666 232 300.999c48 34.667 96.833 65.167 146.5 91.5s96.334 46.5 140.001 60.5s82.167 21 115.5 21c34.667 0 61.834 -9.5 81.501 -28.5s29.5 -44.833 29.5 -77.5c0 -30 -7.5 -64.333 -22.5 -103s-36.833 -79 -65.5 -121s-60.667 -80 -96 -114l-53 58
c104 114.667 156 206 156 274c0 46 -27.333 69 -82 69c-34.667 0 -77.334 -10.333 -128.001 -31s-101 -48.334 -151 -83.001c-66.667 -45.333 -119.5 -93.666 -158.5 -144.999s-58.5 -97 -58.5 -137c0 -19.333 6.16699 -37.666 18.5 -54.999s27.5 -29.666 45.5 -36.999
c18.667 -6.66699 51 -11 97 -13h17l-13 -64c-100.667 -43.333 -201.667 -102.333 -303 -177c-168 -124 -252 -240.667 -252 -350c0 -54.667 21.167 -99.167 63.5 -133.5s96.5 -51.5 162.5 -51.5c46 0 96.833 7 152.5 21s117.5 35.333 185.5 64s145.667 66.334 233 113.001z
M1004 1492c0 -17.333 -5.66602 -32.167 -16.999 -44.5s-24.333 -18.5 -39 -18.5c-30.667 0 -46 15 -46 45c0 12 2.66699 23 8 33s12.166 17.833 20.499 23.5s17.5 8.5 27.5 8.5c14 0 25.167 -4.33301 33.5 -13s12.5 -20 12.5 -34z" />
    <glyph glyph-name="edotaccent" unicode="&#x117;" horiz-adv-x="496" 
d="M382 155l17.998 -15.001c-41.333 -54.667 -81.666 -94.167 -120.999 -118.5s-81.666 -36.5 -126.999 -36.5c-54 0 -97.333 18 -130 54s-49 83.667 -49 143c0 60 15.833 120.833 47.5 182.5s71.334 112.667 119.001 153s94.834 60.5 141.501 60.5
c27.333 0 49.833 -8 67.5 -24s26.5 -36.667 26.5 -62c0 -51.333 -28 -102.666 -84 -153.999s-132.333 -95 -229 -131c-0.666992 -5.33301 -1 -11.333 -1 -18c0 -46 12.667 -83.5 38 -112.5s58 -43.5 98 -43.5c31.333 0 61.666 9.83301 90.999 29.5s60.666 50.5 93.999 92.5z
M61.998 230.999c72 32 127.332 67.665 165.999 106.998c26 26.667 47 55.334 63 86.001s24 58.334 24 83.001c0 31.333 -14.333 47 -43 47c-43.333 0 -87.166 -34.167 -131.499 -102.5s-70.5 -141.833 -78.5 -220.5zM309.997 751.997
c0 -17.333 -5.66602 -32.167 -16.999 -44.5s-24.333 -18.5 -39 -18.5c-30.667 0 -46 15 -46 45c0 12 2.66699 23 8 33s12.166 17.833 20.499 23.5s17.5 8.5 27.5 8.5c14 0 25.167 -4.33301 33.5 -13s12.5 -20 12.5 -34z" />
    <glyph glyph-name="Eogonek" unicode="&#x118;" horiz-adv-x="1025" 
d="M855 218l-23.999 -119.002c-84.667 -40 -167.834 -70.667 -249.501 -92s-155.834 -32 -222.501 -32c-73.333 0 -137 10.5 -191 31.5s-95.5 51.5 -124.5 91.5s-43.5 87 -43.5 141c0 90 40.667 179.5 122 268.5s197.333 171.167 348 246.5c-72 12 -108 49.333 -108 112
c0 89.333 77.333 189.666 232 300.999c48 34.667 96.833 65.167 146.5 91.5s96.334 46.5 140.001 60.5s82.167 21 115.5 21c34.667 0 61.834 -9.5 81.501 -28.5s29.5 -44.833 29.5 -77.5c0 -30 -7.5 -64.333 -22.5 -103s-36.833 -79 -65.5 -121s-60.667 -80 -96 -114l-53 58
c104 114.667 156 206 156 274c0 46 -27.333 69 -82 69c-34.667 0 -77.334 -10.333 -128.001 -31s-101 -48.334 -151 -83.001c-66.667 -45.333 -119.5 -93.666 -158.5 -144.999s-58.5 -97 -58.5 -137c0 -19.333 6.16699 -37.666 18.5 -54.999s27.5 -29.666 45.5 -36.999
c18.667 -6.66699 51 -11 97 -13h17l-13 -64c-100.667 -43.333 -201.667 -102.333 -303 -177c-168 -124 -252 -240.667 -252 -350c0 -54.667 21.167 -99.167 63.5 -133.5s96.5 -51.5 162.5 -51.5c46 0 96.833 7 152.5 21s117.5 35.333 185.5 64s145.667 66.334 233 113.001z
M344.001 2.99805l-14.998 -26l-16 -3c-18.667 0 -30.667 -10.667 -36 -32c-4.66699 -18 -1.33398 -34.333 9.99902 -49s26.333 -22 45 -22c18 0 34 5.66699 48 17l7 -18c-23.333 -14.667 -49 -22 -77 -22c-30.667 0 -53.5 9 -68.5 27s-18.833 40.333 -11.5 67
c4.66699 17.333 13.667 31.833 27 43.5s28.666 17.5 45.999 17.5h41z" />
    <glyph glyph-name="eogonek" unicode="&#x119;" horiz-adv-x="496" 
d="M382 155l17.998 -15.001c-41.333 -54.667 -81.666 -94.167 -120.999 -118.5s-81.666 -36.5 -126.999 -36.5c-54 0 -97.333 18 -130 54s-49 83.667 -49 143c0 60 15.833 120.833 47.5 182.5s71.334 112.667 119.001 153s94.834 60.5 141.501 60.5
c27.333 0 49.833 -8 67.5 -24s26.5 -36.667 26.5 -62c0 -51.333 -28 -102.666 -84 -153.999s-132.333 -95 -229 -131c-0.666992 -5.33301 -1 -11.333 -1 -18c0 -46 12.667 -83.5 38 -112.5s58 -43.5 98 -43.5c31.333 0 61.666 9.83301 90.999 29.5s60.666 50.5 93.999 92.5z
M61.998 230.999c72 32 127.332 67.665 165.999 106.998c26 26.667 47 55.334 63 86.001s24 58.334 24 83.001c0 31.333 -14.333 47 -43 47c-43.333 0 -87.166 -34.167 -131.499 -102.5s-70.5 -141.833 -78.5 -220.5zM186.997 12.9971l-14.998 -26l-16 -3
c-18.667 0 -30.667 -10.667 -36 -32c-4.66699 -18 -1.33398 -34.333 9.99902 -49s26.333 -22 45 -22c18 0 34 5.66699 48 17l7 -18c-23.333 -14.667 -49 -22 -77 -22c-30.667 0 -53.5 9 -68.5 27s-18.833 40.333 -11.5 67c4.66699 17.333 13.667 31.833 27 43.5
s28.666 17.5 45.999 17.5h41z" />
    <glyph glyph-name="Ecaron" unicode="&#x11a;" horiz-adv-x="1025" 
d="M855 218l-23.999 -119.002c-84.667 -40 -167.834 -70.667 -249.501 -92s-155.834 -32 -222.501 -32c-73.333 0 -137 10.5 -191 31.5s-95.5 51.5 -124.5 91.5s-43.5 87 -43.5 141c0 90 40.667 179.5 122 268.5s197.333 171.167 348 246.5c-72 12 -108 49.333 -108 112
c0 89.333 77.333 189.666 232 300.999c48 34.667 96.833 65.167 146.5 91.5s96.334 46.5 140.001 60.5s82.167 21 115.5 21c34.667 0 61.834 -9.5 81.501 -28.5s29.5 -44.833 29.5 -77.5c0 -30 -7.5 -64.333 -22.5 -103s-36.833 -79 -65.5 -121s-60.667 -80 -96 -114l-53 58
c104 114.667 156 206 156 274c0 46 -27.333 69 -82 69c-34.667 0 -77.334 -10.333 -128.001 -31s-101 -48.334 -151 -83.001c-66.667 -45.333 -119.5 -93.666 -158.5 -144.999s-58.5 -97 -58.5 -137c0 -19.333 6.16699 -37.666 18.5 -54.999s27.5 -29.666 45.5 -36.999
c18.667 -6.66699 51 -11 97 -13h17l-13 -64c-100.667 -43.333 -201.667 -102.333 -303 -177c-168 -124 -252 -240.667 -252 -350c0 -54.667 21.167 -99.167 63.5 -133.5s96.5 -51.5 162.5 -51.5c46 0 96.833 7 152.5 21s117.5 35.333 185.5 64s145.667 66.334 233 113.001z
M1052 1556l11 -15l-130 -100l-139 100l7 15l130 -48z" />
    <glyph glyph-name="ecaron" unicode="&#x11b;" horiz-adv-x="496" 
d="M382 155l17.998 -15.001c-41.333 -54.667 -81.666 -94.167 -120.999 -118.5s-81.666 -36.5 -126.999 -36.5c-54 0 -97.333 18 -130 54s-49 83.667 -49 143c0 60 15.833 120.833 47.5 182.5s71.334 112.667 119.001 153s94.834 60.5 141.501 60.5
c27.333 0 49.833 -8 67.5 -24s26.5 -36.667 26.5 -62c0 -51.333 -28 -102.666 -84 -153.999s-132.333 -95 -229 -131c-0.666992 -5.33301 -1 -11.333 -1 -18c0 -46 12.667 -83.5 38 -112.5s58 -43.5 98 -43.5c31.333 0 61.666 9.83301 90.999 29.5s60.666 50.5 93.999 92.5z
M61.998 230.999c72 32 127.332 67.665 165.999 106.998c26 26.667 47 55.334 63 86.001s24 58.334 24 83.001c0 31.333 -14.333 47 -43 47c-43.333 0 -87.166 -34.167 -131.499 -102.5s-70.5 -141.833 -78.5 -220.5zM394.997 796.997l11 -15l-130 -100l-139 100l7 15
l130 -48z" />
    <glyph glyph-name="Gcircumflex" unicode="&#x11c;" horiz-adv-x="969" 
d="M712 169l-2.00195 -2.00195c-56.667 -59.333 -116 -104.333 -178 -135s-124.667 -46 -188 -46c-60 0 -114.333 15.667 -163 47s-86.5 75 -113.5 131s-40.5 120 -40.5 192c0 71.333 10.833 144.5 32.5 219.5s53.334 150.5 95.001 226.5s92.167 149.667 151.5 221
c80.667 97.333 167.167 174.833 259.5 232.5s174.833 86.5 247.5 86.5c30.667 0 58.167 -6.16699 82.5 -18.5s42.833 -30.333 55.5 -54s19 -51.167 19 -82.5c0 -82 -34.667 -161.167 -104 -237.5s-155.666 -130.5 -258.999 -162.5l-33 76c102 32 186.667 80.667 254 146
s101 131 101 197c0 18.667 -5.33301 36.667 -16 54s-25 30.333 -43 39s-38.667 13 -62 13c-62.667 0 -132 -23.667 -208 -71s-146.667 -110 -212 -188c-50 -60 -94 -126.333 -132 -199s-67.333 -147.667 -88 -225s-31 -150.333 -31 -219c0 -53.333 6 -102.166 18 -146.499
s30.333 -83 55 -116s54 -57.833 88 -74.5s71 -25 111 -25c95.333 0 198.333 55 309 165l4 5l36 171l104 59l-62 -299c-14.667 -72.667 -27.167 -125.167 -37.5 -157.5s-25.5 -66.833 -45.5 -103.5c-32 -58.667 -73.167 -110.167 -123.5 -154.5s-107.333 -78.5 -171 -102.5
s-127.834 -36 -192.501 -36c-76 0 -139 11.667 -189 35l32 71c72.667 -41.333 148.334 -62 227.001 -62c39.333 0 76.333 5.16699 111 15.5s66.5 25.5 95.5 45.5s53.833 44 74.5 72c18 24.667 33 49.667 45 75s23.333 56.833 34 94.5s22.667 87.834 36 150.501z
M704.998 1491l-135 -47l-7 15l154 98l115 -98l-11 -15z" />
    <glyph glyph-name="gcircumflex" unicode="&#x11d;" horiz-adv-x="620" 
d="M532 591l-152.999 -609c-15.333 -65.333 -28.833 -113.333 -40.5 -144s-25.834 -58.667 -42.501 -84c-31.333 -48 -69.5 -84.833 -114.5 -110.5s-93.5 -38.5 -145.5 -38.5c-47.333 0 -89 13.333 -125 40l51 66c43.333 -41.333 86.333 -62 129 -62
c27.333 0 55 8.66699 83 26s48.667 38.666 62 63.999c17.333 30.667 35.333 86.334 54 167.001l77 330c-89.333 -166.667 -180 -250 -272 -250c-37.333 0 -67.5 14.167 -90.5 42.5s-34.5 64.5 -34.5 108.5c0 62.667 17.667 128 53 196s79.833 124.5 133.5 169.5
s105.834 67.5 156.501 67.5c47.333 0 86.666 -17.667 117.999 -53l9 35zM420.001 467c-26 50 -60.333 74.999 -103 74.999c-44.667 0 -88.667 -24.667 -132 -74c-35.333 -41.333 -65.5 -93.166 -90.5 -155.499s-37.5 -118.166 -37.5 -167.499
c0 -33.333 7.16699 -59.5 21.5 -78.5s34.5 -28.5 60.5 -28.5c26.667 0 56.167 14.667 88.5 44s64.5 70.666 96.5 123.999c36.667 60.667 65 132.667 85 216zM328.001 741.999l-135 -47l-7 15l154 98l115 -98l-11 -15z" />
    <glyph glyph-name="Gbreve" unicode="&#x11e;" horiz-adv-x="969" 
d="M712 169l-2.00195 -2.00195c-56.667 -59.333 -116 -104.333 -178 -135s-124.667 -46 -188 -46c-60 0 -114.333 15.667 -163 47s-86.5 75 -113.5 131s-40.5 120 -40.5 192c0 71.333 10.833 144.5 32.5 219.5s53.334 150.5 95.001 226.5s92.167 149.667 151.5 221
c80.667 97.333 167.167 174.833 259.5 232.5s174.833 86.5 247.5 86.5c30.667 0 58.167 -6.16699 82.5 -18.5s42.833 -30.333 55.5 -54s19 -51.167 19 -82.5c0 -82 -34.667 -161.167 -104 -237.5s-155.666 -130.5 -258.999 -162.5l-33 76c102 32 186.667 80.667 254 146
s101 131 101 197c0 18.667 -5.33301 36.667 -16 54s-25 30.333 -43 39s-38.667 13 -62 13c-62.667 0 -132 -23.667 -208 -71s-146.667 -110 -212 -188c-50 -60 -94 -126.333 -132 -199s-67.333 -147.667 -88 -225s-31 -150.333 -31 -219c0 -53.333 6 -102.166 18 -146.499
s30.333 -83 55 -116s54 -57.833 88 -74.5s71 -25 111 -25c95.333 0 198.333 55 309 165l4 5l36 171l104 59l-62 -299c-14.667 -72.667 -27.167 -125.167 -37.5 -157.5s-25.5 -66.833 -45.5 -103.5c-32 -58.667 -73.167 -110.167 -123.5 -154.5s-107.333 -78.5 -171 -102.5
s-127.834 -36 -192.501 -36c-76 0 -139 11.667 -189 35l32 71c72.667 -41.333 148.334 -62 227.001 -62c39.333 0 76.333 5.16699 111 15.5s66.5 25.5 95.5 45.5s53.833 44 74.5 72c18 24.667 33 49.667 45 75s23.333 56.833 34 94.5s22.667 87.834 36 150.501z
M640.998 1564c22.667 -26 45.334 -44.834 68.001 -56.501s45.167 -17 67.5 -16s44.666 7.83301 66.999 20.5s44.5 30 66.5 52v-17c-20.667 -32.667 -42.167 -57.667 -64.5 -75s-45 -26.333 -68 -27s-45.833 7.33301 -68.5 24s-44.667 42.334 -66 77.001z" />
    <glyph glyph-name="gbreve" unicode="&#x11f;" horiz-adv-x="620" 
d="M532 591l-152.999 -609c-15.333 -65.333 -28.833 -113.333 -40.5 -144s-25.834 -58.667 -42.501 -84c-31.333 -48 -69.5 -84.833 -114.5 -110.5s-93.5 -38.5 -145.5 -38.5c-47.333 0 -89 13.333 -125 40l51 66c43.333 -41.333 86.333 -62 129 -62
c27.333 0 55 8.66699 83 26s48.667 38.666 62 63.999c17.333 30.667 35.333 86.334 54 167.001l77 330c-89.333 -166.667 -180 -250 -272 -250c-37.333 0 -67.5 14.167 -90.5 42.5s-34.5 64.5 -34.5 108.5c0 62.667 17.667 128 53 196s79.833 124.5 133.5 169.5
s105.834 67.5 156.501 67.5c47.333 0 86.666 -17.667 117.999 -53l9 35zM420.001 467c-26 50 -60.333 74.999 -103 74.999c-44.667 0 -88.667 -24.667 -132 -74c-35.333 -41.333 -65.5 -93.166 -90.5 -155.499s-37.5 -118.166 -37.5 -167.499
c0 -33.333 7.16699 -59.5 21.5 -78.5s34.5 -28.5 60.5 -28.5c26.667 0 56.167 14.667 88.5 44s64.5 70.666 96.5 123.999c36.667 60.667 65 132.667 85 216zM220.001 814.999c22.667 -26 45.334 -44.834 68.001 -56.501s45.167 -17 67.5 -16s44.666 7.83301 66.999 20.5
s44.5 30 66.5 52v-17c-20.667 -32.667 -42.167 -57.667 -64.5 -75s-45 -26.333 -68 -27s-45.833 7.33301 -68.5 24s-44.667 42.334 -66 77.001z" />
    <glyph glyph-name="Gdotaccent" unicode="&#x120;" horiz-adv-x="969" 
d="M712 169l-2.00195 -2.00195c-56.667 -59.333 -116 -104.333 -178 -135s-124.667 -46 -188 -46c-60 0 -114.333 15.667 -163 47s-86.5 75 -113.5 131s-40.5 120 -40.5 192c0 71.333 10.833 144.5 32.5 219.5s53.334 150.5 95.001 226.5s92.167 149.667 151.5 221
c80.667 97.333 167.167 174.833 259.5 232.5s174.833 86.5 247.5 86.5c30.667 0 58.167 -6.16699 82.5 -18.5s42.833 -30.333 55.5 -54s19 -51.167 19 -82.5c0 -82 -34.667 -161.167 -104 -237.5s-155.666 -130.5 -258.999 -162.5l-33 76c102 32 186.667 80.667 254 146
s101 131 101 197c0 18.667 -5.33301 36.667 -16 54s-25 30.333 -43 39s-38.667 13 -62 13c-62.667 0 -132 -23.667 -208 -71s-146.667 -110 -212 -188c-50 -60 -94 -126.333 -132 -199s-67.333 -147.667 -88 -225s-31 -150.333 -31 -219c0 -53.333 6 -102.166 18 -146.499
s30.333 -83 55 -116s54 -57.833 88 -74.5s71 -25 111 -25c95.333 0 198.333 55 309 165l4 5l36 171l104 59l-62 -299c-14.667 -72.667 -27.167 -125.167 -37.5 -157.5s-25.5 -66.833 -45.5 -103.5c-32 -58.667 -73.167 -110.167 -123.5 -154.5s-107.333 -78.5 -171 -102.5
s-127.834 -36 -192.501 -36c-76 0 -139 11.667 -189 35l32 71c72.667 -41.333 148.334 -62 227.001 -62c39.333 0 76.333 5.16699 111 15.5s66.5 25.5 95.5 45.5s53.833 44 74.5 72c18 24.667 33 49.667 45 75s23.333 56.833 34 94.5s22.667 87.834 36 150.501z
M848.998 1492c0 -17.333 -5.66602 -32.167 -16.999 -44.5s-24.333 -18.5 -39 -18.5c-30.667 0 -46 15 -46 45c0 12 2.66699 23 8 33s12.166 17.833 20.499 23.5s17.5 8.5 27.5 8.5c14 0 25.167 -4.33301 33.5 -13s12.5 -20 12.5 -34z" />
    <glyph glyph-name="gdotaccent" unicode="&#x121;" horiz-adv-x="620" 
d="M532 591l-152.999 -609c-15.333 -65.333 -28.833 -113.333 -40.5 -144s-25.834 -58.667 -42.501 -84c-31.333 -48 -69.5 -84.833 -114.5 -110.5s-93.5 -38.5 -145.5 -38.5c-47.333 0 -89 13.333 -125 40l51 66c43.333 -41.333 86.333 -62 129 -62
c27.333 0 55 8.66699 83 26s48.667 38.666 62 63.999c17.333 30.667 35.333 86.334 54 167.001l77 330c-89.333 -166.667 -180 -250 -272 -250c-37.333 0 -67.5 14.167 -90.5 42.5s-34.5 64.5 -34.5 108.5c0 62.667 17.667 128 53 196s79.833 124.5 133.5 169.5
s105.834 67.5 156.501 67.5c47.333 0 86.666 -17.667 117.999 -53l9 35zM420.001 467c-26 50 -60.333 74.999 -103 74.999c-44.667 0 -88.667 -24.667 -132 -74c-35.333 -41.333 -65.5 -93.166 -90.5 -155.499s-37.5 -118.166 -37.5 -167.499
c0 -33.333 7.16699 -59.5 21.5 -78.5s34.5 -28.5 60.5 -28.5c26.667 0 56.167 14.667 88.5 44s64.5 70.666 96.5 123.999c36.667 60.667 65 132.667 85 216zM413.001 751.999c0 -17.333 -5.66602 -32.167 -16.999 -44.5s-24.333 -18.5 -39 -18.5c-30.667 0 -46 15 -46 45
c0 12 2.66699 23 8 33s12.166 17.833 20.499 23.5s17.5 8.5 27.5 8.5c14 0 25.167 -4.33301 33.5 -13s12.5 -20 12.5 -34z" />
    <glyph glyph-name="Gcedilla" unicode="&#x122;" horiz-adv-x="969" 
d="M712 169l-2.00195 -2.00195c-56.667 -59.333 -116 -104.333 -178 -135s-124.667 -46 -188 -46c-60 0 -114.333 15.667 -163 47s-86.5 75 -113.5 131s-40.5 120 -40.5 192c0 71.333 10.833 144.5 32.5 219.5s53.334 150.5 95.001 226.5s92.167 149.667 151.5 221
c80.667 97.333 167.167 174.833 259.5 232.5s174.833 86.5 247.5 86.5c30.667 0 58.167 -6.16699 82.5 -18.5s42.833 -30.333 55.5 -54s19 -51.167 19 -82.5c0 -82 -34.667 -161.167 -104 -237.5s-155.666 -130.5 -258.999 -162.5l-33 76c102 32 186.667 80.667 254 146
s101 131 101 197c0 18.667 -5.33301 36.667 -16 54s-25 30.333 -43 39s-38.667 13 -62 13c-62.667 0 -132 -23.667 -208 -71s-146.667 -110 -212 -188c-50 -60 -94 -126.333 -132 -199s-67.333 -147.667 -88 -225s-31 -150.333 -31 -219c0 -53.333 6 -102.166 18 -146.499
s30.333 -83 55 -116s54 -57.833 88 -74.5s71 -25 111 -25c95.333 0 198.333 55 309 165l4 5l36 171l104 59l-62 -299c-14.667 -72.667 -27.167 -125.167 -37.5 -157.5s-25.5 -66.833 -45.5 -103.5c-32 -58.667 -73.167 -110.167 -123.5 -154.5s-107.333 -78.5 -171 -102.5
s-127.834 -36 -192.501 -36c-76 0 -139 11.667 -189 35l32 71c72.667 -41.333 148.334 -62 227.001 -62c39.333 0 76.333 5.16699 111 15.5s66.5 25.5 95.5 45.5s53.833 44 74.5 72c18 24.667 33 49.667 45 75s23.333 56.833 34 94.5s22.667 87.834 36 150.501z
M268.998 -763.002l-12 18c33.333 21.333 60.833 43 82.5 65s35.834 43 42.501 63c-14.667 -12 -28.334 -18 -41.001 -18c-14.667 0 -26 4.66699 -34 14s-12 21.333 -12 36c0 22 7 40.833 21 56.5s31 23.5 51 23.5c16.667 0 30.667 -6.16699 42 -18.5s17 -27.833 17 -46.5
c0 -32 -14.833 -66.167 -44.5 -102.5s-67.167 -66.5 -112.5 -90.5z" />
    <glyph glyph-name="gcedilla" unicode="&#x123;" horiz-adv-x="620" 
d="M532 591l-152.999 -609c-15.333 -65.333 -28.833 -113.333 -40.5 -144s-25.834 -58.667 -42.501 -84c-31.333 -48 -69.5 -84.833 -114.5 -110.5s-93.5 -38.5 -145.5 -38.5c-47.333 0 -89 13.333 -125 40l51 66c43.333 -41.333 86.333 -62 129 -62
c27.333 0 55 8.66699 83 26s48.667 38.666 62 63.999c17.333 30.667 35.333 86.334 54 167.001l77 330c-89.333 -166.667 -180 -250 -272 -250c-37.333 0 -67.5 14.167 -90.5 42.5s-34.5 64.5 -34.5 108.5c0 62.667 17.667 128 53 196s79.833 124.5 133.5 169.5
s105.834 67.5 156.501 67.5c47.333 0 86.666 -17.667 117.999 -53l9 35zM420.001 467c-26 50 -60.333 74.999 -103 74.999c-44.667 0 -88.667 -24.667 -132 -74c-35.333 -41.333 -65.5 -93.166 -90.5 -155.499s-37.5 -118.166 -37.5 -167.499
c0 -33.333 7.16699 -59.5 21.5 -78.5s34.5 -28.5 60.5 -28.5c26.667 0 56.167 14.667 88.5 44s64.5 70.666 96.5 123.999c36.667 60.667 65 132.667 85 216zM482.001 999.999l14 -22.001c-88 -69.333 -134.667 -128.333 -140 -177c14.667 14 30 21 46 21
c14 0 25.667 -4.66699 35 -14s14 -21.333 14 -36c0 -20.667 -7 -38.667 -21 -54s-31 -23 -51 -23c-19.333 0 -34.833 6.83301 -46.5 20.5s-17.5 30.834 -17.5 51.501c0 34.667 15.667 73.5 47 116.5s71.333 81.833 120 116.5z" />
    <glyph glyph-name="Hcircumflex" unicode="&#x124;" horiz-adv-x="1410" 
d="M738 477h420l171 818l105 52l-284 -1347h-62c-15.333 46 -35.5 91 -60.5 135s-54.5 86.833 -88.5 128.5s-69.167 78.5 -105.5 110.5s-72.5 56.667 -108.5 74l-3 -5c-38 -87.333 -84.167 -165.166 -138.5 -233.499s-110.166 -120.166 -167.499 -155.499
c-33.333 -20.667 -71.5 -38.667 -114.5 -54s-88 -27 -135 -35s-94.5 -12 -142.5 -12c-32.667 0 -68 3.33301 -106 10l32 79c76.667 -24.667 144.334 -37 203.001 -37c73.333 0 143.333 19 210 57s121.667 89.667 165 155c60.667 91.333 116.334 215.666 167.001 372.999
c8.66699 26 21.667 70 39 132s33.166 121.667 47.499 179s25.5 105 33.5 143l35 178l3 19l113 56c-6.66699 -53.333 -18.334 -116.333 -35.001 -189s-35.834 -147.667 -57.501 -225s-44.5 -152.833 -68.5 -226.5s-45.667 -131.834 -65 -174.501zM1150 443h-342
c46.667 -36 97 -83.5 151 -142.5s96.667 -113.5 128 -163.5zM1183 1496l-135 -47l-7 15l154 98l115 -98l-11 -15z" />
    <glyph glyph-name="hcircumflex" unicode="&#x125;" horiz-adv-x="638" 
d="M-31 -10l266.003 1368l105 51l-277 -1218c2.66699 4.66699 4 7.66699 4 9l23 52c39.333 89.333 88.666 166.666 147.999 231.999c56 60.667 107.667 91 155 91c25.333 0 45.666 -8.16699 60.999 -24.5s23 -38.166 23 -65.499c0 -15.333 -3.66699 -37 -11 -65l-10 -42
l-31 -122l-9 -39c-10 -40 -15 -70.667 -15 -92s3.66699 -38.5 11 -51.5s17 -19.5 29 -19.5c20.667 0 53.667 24.667 99 74l15 -14l-9 -11c-38 -44.667 -66.167 -74.834 -84.5 -90.501s-34.833 -23.5 -49.5 -23.5c-20.667 0 -38.334 11 -53.001 33s-22 47.667 -22 77
c0 18 4.33301 49.667 13 95l38 212c6 31.333 9 54.666 9 69.999c0 14 -3.66699 24.667 -11 32s-17.333 11 -30 11c-24.667 0 -53 -14.5 -85 -43.5s-64.167 -69.167 -96.5 -120.5s-60.5 -106.166 -84.5 -164.499s-42 -118.166 -54 -179.499zM314.003 1515l-135 -47l-7 15
l154 98l115 -98l-11 -15z" />
    <glyph glyph-name="Hbar" unicode="&#x126;" horiz-adv-x="1522" 
d="M1551 877l-9.00195 -45.001h-217l-175 -832h-62c-15.333 46 -35.5 91 -60.5 135s-54.5 86.833 -88.5 128.5s-69.167 78.5 -105.5 110.5s-72.5 56.667 -108.5 74l-3 -5c-38 -87.333 -84.167 -165.166 -138.5 -233.499s-110.166 -120.166 -167.499 -155.499
c-33.333 -20.667 -71.5 -38.667 -114.5 -54s-88 -27 -135 -35s-94.5 -12 -142.5 -12c-32.667 0 -68 3.33301 -106 10l32 79c76.667 -24.667 144.334 -37 203.001 -37c73.333 0 143.333 19 210 57s121.667 89.667 165 155c60.667 91.333 116.334 215.666 167.001 372.999
c8.66699 26 21.667 70 39 132c10.667 37.333 20.667 74 30 110h-216l9 45h218l6 24c14.667 57.333 26 105 34 143l35 178l3 19l113 56c-6.66699 -53.333 -18.334 -116.333 -35.001 -189s-36 -147.667 -58 -225c-0.666992 -2 -1 -4 -1 -6h369l88 418l105 52l-99 -470h216z
M737.998 476.999h420l74 355h-373c-17.333 -60 -35.333 -118.667 -54 -176c-24 -73.333 -45.667 -131.333 -65 -174zM1150 442.999h-342c46.667 -36 97 -83.5 151 -142.5s96.667 -113.5 128 -163.5z" />
    <glyph glyph-name="hbar" unicode="&#x127;" horiz-adv-x="687" 
d="M501 1027l-8.99707 -45h-199l-180 -791c2.66699 4.66699 4 7.66699 4 9l23 52c39.333 89.333 88.666 166.666 147.999 231.999c56 60.667 107.667 91 155 91c25.333 0 45.666 -8.16699 60.999 -24.5s23 -38.166 23 -65.499c0 -15.333 -3.66699 -37 -11 -65l-10 -42
l-31 -122l-9 -39c-10 -40 -15 -70.667 -15 -92s3.66699 -38.5 11 -51.5s17 -19.5 29 -19.5c20.667 0 53.667 24.667 99 74l15 -14l-9 -11c-38 -44.667 -66.167 -74.834 -84.5 -90.501s-34.833 -23.5 -49.5 -23.5c-20.667 0 -38.334 11 -53.001 33s-22 47.667 -22 77
c0 18 4.33301 49.667 13 95l38 212c6 31.333 9 54.666 9 69.999c0 14 -3.66699 24.667 -11 32s-17.333 11 -30 11c-24.667 0 -53 -14.5 -85 -43.5s-64.167 -69.167 -96.5 -120.5s-60.5 -106.166 -84.5 -164.499s-42 -118.166 -54 -179.499l-67 -21l193 992h-214l9 45h213
l65 331l105 51l-87 -382h198z" />
    <glyph glyph-name="Itilde" unicode="&#x128;" horiz-adv-x="873" 
d="M-68 -24l30.002 76.999c59.333 -26 124.333 -39 195 -39c86 0 164.333 28.667 235 86c41.333 32.667 76.166 69.334 104.499 110.001s58.5 96 90.5 166l8 16c-55.333 35.333 -96.166 83.5 -122.499 144.5s-39.5 136.833 -39.5 227.5c0 62.667 9.66699 130.167 29 202.5
s46 139.833 80 202.5c28.667 56 59.667 99.833 93 131.5s64.666 47.5 93.999 47.5c40 0 70.667 -24 92 -72s32 -116.333 32 -205c0 -67.333 -7.5 -142.166 -22.5 -224.499s-36.167 -164.833 -63.5 -247.5s-56 -151.667 -86 -207c19.333 -7.33301 39.666 -11 60.999 -11
s43.666 3.66699 66.999 11l-9 -27c-17.333 -5.33301 -38.666 -8 -63.999 -8c-26 0 -50 2.66699 -72 8c-54 -92 -112.5 -167.833 -175.5 -227.5s-131.667 -103.834 -206 -132.501s-155.833 -43 -244.5 -43c-42.667 0 -78 4.66699 -106 14zM610.002 423.999
c25.333 57.333 50.002 132.668 74.002 226.001c25.333 95.333 46.666 193.166 63.999 293.499s26 177.166 26 230.499c0 45.333 -5.33301 80.333 -16 105s-26.667 37 -48 37c-30.667 0 -61.834 -30.167 -93.501 -90.5s-57.667 -137.833 -78 -232.5s-30.5 -187 -30.5 -277
c0 -147.333 34 -244.666 102 -291.999zM941.004 1517c-46 -44.667 -83.668 -67 -113.001 -67c-13.333 0 -26.666 5.33301 -39.999 16l-23 18c-14.667 12 -27 18 -37 18c-18 0 -42 -14.667 -72 -44l-14 13c18.667 20.667 38.167 37.167 58.5 49.5s37.833 18.5 52.5 18.5
c14 0 35.333 -10.667 64 -32c17.333 -12 30.333 -18 39 -18c20 0 43.667 14.333 71 43z" />
    <glyph glyph-name="itilde" unicode="&#x129;" horiz-adv-x="295" 
d="M173 585l-88 -329c-14.667 -54 -22 -97.333 -22 -130c0 -21.333 3.66699 -38.666 11 -51.999s17 -20 29 -20c20.667 0 53.667 24.667 99 74l16 -14l-10 -11c-38 -44.667 -66 -74.834 -84 -90.501s-34.667 -23.5 -50 -23.5c-20.667 0 -38.167 10.5 -52.5 31.5
s-21.5 47.167 -21.5 78.5c0 20 4 51.667 12 95l63 350zM300 756c-46 -44.667 -83.668 -67 -113.001 -67c-13.333 0 -26.666 5.33301 -39.999 16l-23 18c-14.667 12 -27 18 -37 18c-18 0 -42 -14.667 -72 -44l-14 13c18.667 20.667 38.167 37.167 58.5 49.5
s37.833 18.5 52.5 18.5c14 0 35.333 -10.667 64 -32c17.333 -12 30.333 -18 39 -18c20 0 43.667 14.333 71 43z" />
    </font>
</defs>
</svg>
